<?xml version="1.0" standalone="no"?>
<svg width="567.429" height="384.969" viewBox="0 0 567.429 384.969" xmlns="http://www.w3.org/2000/svg">
<title>
compHwEmu_MPSums_MPSumEtxHF.svg
</title>
<desc>
Creator: ROOT Version 6.06/01
CreationDate: Mon Dec  5 11:09:29 2016</desc>
<defs>
</defs>
<rect x="0.5" y="0" width="566.929" height="384.469" fill="white"/>
<rect x="0.5" y="0" width="566.929" height="269.128" fill="white"/>
<rect x="57.1929" y="26.9128" width="453.543" height="236.833" fill="white"/>
<rect x="57.1929" y="26.9128" width="453.543" height="236.833" fill="none" stroke="black"/>
<path d="M57.1929,263.746h 453.543" fill="none" stroke="black"/>
<path d="M113.885,26.9128v 236.833" fill="none" stroke="black" stroke-dasharray=" 1, 2"/>
<path d="M170.578,26.9128v 236.833" fill="none" stroke="black" stroke-dasharray=" 1, 2"/>
<path d="M227.271,26.9128v 236.833" fill="none" stroke="black" stroke-dasharray=" 1, 2"/>
<path d="M283.964,26.9128v 236.833" fill="none" stroke="black" stroke-dasharray=" 1, 2"/>
<path d="M340.657,26.9128v 236.833" fill="none" stroke="black" stroke-dasharray=" 1, 2"/>
<path d="M397.35,26.9128v 236.833" fill="none" stroke="black" stroke-dasharray=" 1, 2"/>
<path d="M454.043,26.9128v 236.833" fill="none" stroke="black" stroke-dasharray=" 1, 2"/>
<path d="M510.736,26.9128v 236.833" fill="none" stroke="black" stroke-dasharray=" 1, 2"/>
<path d="M113.885,26.9128v 236.833" fill="none" stroke="black" stroke-dasharray=" 1, 2"/>
<path d="M510.736,26.9128v 236.833" fill="none" stroke="black" stroke-dasharray=" 1, 2"/>
<path d="M57.1929,263.746v -236.833" fill="none" stroke="black"/>
<g stroke="black" stroke-width="1" fill="black">
<rect x="240.269" y="217.006" width="3.25821" height="3.25821"/>
<rect x="242.991" y="217.006" width="3.25821" height="3.25821"/>
<rect x="243.898" y="217.006" width="3.25821" height="3.25821"/>
<rect x="244.351" y="217.006" width="3.25821" height="3.25821"/>
<rect x="245.939" y="217.006" width="3.25821" height="3.25821"/>
<rect x="249.113" y="217.006" width="3.25821" height="3.25821"/>
<rect x="251.381" y="217.006" width="3.25821" height="3.25821"/>
<rect x="255.463" y="126.784" width="3.25821" height="3.25821"/>
<rect x="255.917" y="217.006" width="3.25821" height="3.25821"/>
<rect x="256.597" y="217.006" width="3.25821" height="3.25821"/>
<rect x="257.731" y="217.006" width="3.25821" height="3.25821"/>
<rect x="260.679" y="217.006" width="3.25821" height="3.25821"/>
<rect x="261.132" y="217.006" width="3.25821" height="3.25821"/>
<rect x="261.586" y="171.895" width="3.25821" height="3.25821"/>
<rect x="262.493" y="217.006" width="3.25821" height="3.25821"/>
<rect x="262.946" y="217.006" width="3.25821" height="3.25821"/>
<rect x="263.173" y="217.006" width="3.25821" height="3.25821"/>
<rect x="263.627" y="217.006" width="3.25821" height="3.25821"/>
<rect x="264.534" y="171.895" width="3.25821" height="3.25821"/>
<rect x="264.761" y="217.006" width="3.25821" height="3.25821"/>
<rect x="264.987" y="217.006" width="3.25821" height="3.25821"/>
<rect x="265.214" y="171.895" width="3.25821" height="3.25821"/>
<rect x="265.668" y="217.006" width="3.25821" height="3.25821"/>
<rect x="265.895" y="217.006" width="3.25821" height="3.25821"/>
<rect x="266.121" y="217.006" width="3.25821" height="3.25821"/>
<rect x="266.575" y="217.006" width="3.25821" height="3.25821"/>
<rect x="267.482" y="217.006" width="3.25821" height="3.25821"/>
<rect x="267.709" y="217.006" width="3.25821" height="3.25821"/>
<rect x="268.389" y="217.006" width="3.25821" height="3.25821"/>
<rect x="268.616" y="171.895" width="3.25821" height="3.25821"/>
<rect x="269.069" y="217.006" width="3.25821" height="3.25821"/>
<rect x="269.976" y="217.006" width="3.25821" height="3.25821"/>
<rect x="270.203" y="217.006" width="3.25821" height="3.25821"/>
<rect x="270.43" y="217.006" width="3.25821" height="3.25821"/>
<rect x="271.791" y="217.006" width="3.25821" height="3.25821"/>
<rect x="272.017" y="171.895" width="3.25821" height="3.25821"/>
<rect x="272.698" y="171.895" width="3.25821" height="3.25821"/>
<rect x="272.924" y="217.006" width="3.25821" height="3.25821"/>
<rect x="273.605" y="217.006" width="3.25821" height="3.25821"/>
<rect x="274.058" y="217.006" width="3.25821" height="3.25821"/>
<rect x="274.512" y="126.784" width="3.25821" height="3.25821"/>
<rect x="275.192" y="126.784" width="3.25821" height="3.25821"/>
<rect x="275.646" y="171.895" width="3.25821" height="3.25821"/>
<rect x="275.872" y="217.006" width="3.25821" height="3.25821"/>
<rect x="276.099" y="171.895" width="3.25821" height="3.25821"/>
<rect x="276.326" y="126.784" width="3.25821" height="3.25821"/>
<rect x="276.78" y="81.6725" width="3.25821" height="3.25821"/>
<rect x="277.006" y="217.006" width="3.25821" height="3.25821"/>
<rect x="277.46" y="171.895" width="3.25821" height="3.25821"/>
<rect x="277.913" y="126.784" width="3.25821" height="3.25821"/>
</g>
<g stroke="black" stroke-width="1" fill="black">
<rect x="277.913" y="126.784" width="3.25821" height="3.25821"/>
<rect x="278.14" y="217.006" width="3.25821" height="3.25821"/>
<rect x="278.594" y="217.006" width="3.25821" height="3.25821"/>
<rect x="279.274" y="217.006" width="3.25821" height="3.25821"/>
<rect x="279.954" y="171.895" width="3.25821" height="3.25821"/>
<rect x="280.408" y="171.895" width="3.25821" height="3.25821"/>
<rect x="280.635" y="217.006" width="3.25821" height="3.25821"/>
<rect x="280.861" y="217.006" width="3.25821" height="3.25821"/>
<rect x="281.769" y="171.895" width="3.25821" height="3.25821"/>
<rect x="281.995" y="171.895" width="3.25821" height="3.25821"/>
<rect x="282.222" y="126.784" width="3.25821" height="3.25821"/>
<rect x="282.902" y="217.006" width="3.25821" height="3.25821"/>
<rect x="283.129" y="171.895" width="3.25821" height="3.25821"/>
<rect x="283.356" y="217.006" width="3.25821" height="3.25821"/>
<rect x="284.036" y="217.006" width="3.25821" height="3.25821"/>
<rect x="284.263" y="217.006" width="3.25821" height="3.25821"/>
<rect x="284.49" y="81.6725" width="3.25821" height="3.25821"/>
<rect x="285.397" y="217.006" width="3.25821" height="3.25821"/>
<rect x="285.624" y="171.895" width="3.25821" height="3.25821"/>
<rect x="285.85" y="217.006" width="3.25821" height="3.25821"/>
<rect x="286.531" y="171.895" width="3.25821" height="3.25821"/>
<rect x="286.984" y="36.5615" width="3.25821" height="3.25821"/>
<rect x="287.211" y="217.006" width="3.25821" height="3.25821"/>
<rect x="287.438" y="217.006" width="3.25821" height="3.25821"/>
<rect x="287.665" y="217.006" width="3.25821" height="3.25821"/>
<rect x="287.891" y="217.006" width="3.25821" height="3.25821"/>
<rect x="288.345" y="217.006" width="3.25821" height="3.25821"/>
<rect x="288.572" y="81.6725" width="3.25821" height="3.25821"/>
<rect x="288.798" y="217.006" width="3.25821" height="3.25821"/>
<rect x="289.706" y="217.006" width="3.25821" height="3.25821"/>
<rect x="290.159" y="217.006" width="3.25821" height="3.25821"/>
<rect x="290.386" y="217.006" width="3.25821" height="3.25821"/>
<rect x="290.613" y="217.006" width="3.25821" height="3.25821"/>
<rect x="291.293" y="217.006" width="3.25821" height="3.25821"/>
<rect x="291.52" y="171.895" width="3.25821" height="3.25821"/>
<rect x="291.973" y="171.895" width="3.25821" height="3.25821"/>
<rect x="292.2" y="217.006" width="3.25821" height="3.25821"/>
<rect x="292.427" y="171.895" width="3.25821" height="3.25821"/>
<rect x="292.654" y="171.895" width="3.25821" height="3.25821"/>
<rect x="292.88" y="217.006" width="3.25821" height="3.25821"/>
<rect x="293.107" y="217.006" width="3.25821" height="3.25821"/>
<rect x="293.561" y="171.895" width="3.25821" height="3.25821"/>
<rect x="294.241" y="217.006" width="3.25821" height="3.25821"/>
<rect x="294.468" y="171.895" width="3.25821" height="3.25821"/>
<rect x="294.695" y="217.006" width="3.25821" height="3.25821"/>
<rect x="294.921" y="217.006" width="3.25821" height="3.25821"/>
<rect x="295.148" y="171.895" width="3.25821" height="3.25821"/>
<rect x="295.375" y="217.006" width="3.25821" height="3.25821"/>
<rect x="296.282" y="217.006" width="3.25821" height="3.25821"/>
<rect x="296.509" y="217.006" width="3.25821" height="3.25821"/>
</g>
<g stroke="black" stroke-width="1" fill="black">
<rect x="296.509" y="217.006" width="3.25821" height="3.25821"/>
<rect x="297.189" y="171.895" width="3.25821" height="3.25821"/>
<rect x="297.416" y="217.006" width="3.25821" height="3.25821"/>
<rect x="297.643" y="217.006" width="3.25821" height="3.25821"/>
<rect x="297.869" y="217.006" width="3.25821" height="3.25821"/>
<rect x="298.55" y="171.895" width="3.25821" height="3.25821"/>
<rect x="299.003" y="217.006" width="3.25821" height="3.25821"/>
<rect x="299.457" y="171.895" width="3.25821" height="3.25821"/>
<rect x="299.684" y="217.006" width="3.25821" height="3.25821"/>
<rect x="300.137" y="217.006" width="3.25821" height="3.25821"/>
<rect x="300.817" y="217.006" width="3.25821" height="3.25821"/>
<rect x="301.271" y="171.895" width="3.25821" height="3.25821"/>
<rect x="301.724" y="126.784" width="3.25821" height="3.25821"/>
<rect x="302.178" y="217.006" width="3.25821" height="3.25821"/>
<rect x="302.405" y="126.784" width="3.25821" height="3.25821"/>
<rect x="302.632" y="217.006" width="3.25821" height="3.25821"/>
<rect x="302.858" y="217.006" width="3.25821" height="3.25821"/>
<rect x="303.992" y="217.006" width="3.25821" height="3.25821"/>
<rect x="304.219" y="217.006" width="3.25821" height="3.25821"/>
<rect x="305.58" y="171.895" width="3.25821" height="3.25821"/>
<rect x="306.033" y="217.006" width="3.25821" height="3.25821"/>
<rect x="306.487" y="217.006" width="3.25821" height="3.25821"/>
<rect x="307.621" y="171.895" width="3.25821" height="3.25821"/>
<rect x="308.074" y="171.895" width="3.25821" height="3.25821"/>
<rect x="308.301" y="217.006" width="3.25821" height="3.25821"/>
<rect x="308.528" y="217.006" width="3.25821" height="3.25821"/>
<rect x="309.661" y="171.895" width="3.25821" height="3.25821"/>
<rect x="309.888" y="217.006" width="3.25821" height="3.25821"/>
<rect x="310.115" y="217.006" width="3.25821" height="3.25821"/>
<rect x="310.795" y="217.006" width="3.25821" height="3.25821"/>
<rect x="311.476" y="217.006" width="3.25821" height="3.25821"/>
<rect x="311.929" y="171.895" width="3.25821" height="3.25821"/>
<rect x="313.517" y="217.006" width="3.25821" height="3.25821"/>
<rect x="314.65" y="171.895" width="3.25821" height="3.25821"/>
<rect x="315.784" y="217.006" width="3.25821" height="3.25821"/>
<rect x="316.011" y="217.006" width="3.25821" height="3.25821"/>
<rect x="317.145" y="171.895" width="3.25821" height="3.25821"/>
<rect x="318.732" y="217.006" width="3.25821" height="3.25821"/>
<rect x="320.093" y="171.895" width="3.25821" height="3.25821"/>
<rect x="322.361" y="217.006" width="3.25821" height="3.25821"/>
<rect x="322.587" y="217.006" width="3.25821" height="3.25821"/>
<rect x="322.814" y="217.006" width="3.25821" height="3.25821"/>
<rect x="323.041" y="217.006" width="3.25821" height="3.25821"/>
<rect x="325.082" y="217.006" width="3.25821" height="3.25821"/>
<rect x="325.535" y="217.006" width="3.25821" height="3.25821"/>
<rect x="327.803" y="217.006" width="3.25821" height="3.25821"/>
<rect x="328.257" y="217.006" width="3.25821" height="3.25821"/>
<rect x="329.617" y="217.006" width="3.25821" height="3.25821"/>
<rect x="332.339" y="217.006" width="3.25821" height="3.25821"/>
<rect x="332.565" y="217.006" width="3.25821" height="3.25821"/>
</g>
<g stroke="black" stroke-width="1" fill="black">
<rect x="332.565" y="217.006" width="3.25821" height="3.25821"/>
<rect x="333.019" y="217.006" width="3.25821" height="3.25821"/>
<rect x="344.811" y="217.006" width="3.25821" height="3.25821"/>
</g>
<path d="M57.1929,263.746h 453.543" fill="none" stroke="black"/>
<path d="M113.885,257.287v 6.45908" fill="none" stroke="black"/>
<path d="M125.224,260.516v 3.22954" fill="none" stroke="black"/>
<path d="M136.562,260.516v 3.22954" fill="none" stroke="black"/>
<path d="M147.901,260.516v 3.22954" fill="none" stroke="black"/>
<path d="M159.24,260.516v 3.22954" fill="none" stroke="black"/>
<path d="M170.578,257.287v 6.45908" fill="none" stroke="black"/>
<path d="M181.917,260.516v 3.22954" fill="none" stroke="black"/>
<path d="M193.255,260.516v 3.22954" fill="none" stroke="black"/>
<path d="M204.594,260.516v 3.22954" fill="none" stroke="black"/>
<path d="M215.933,260.516v 3.22954" fill="none" stroke="black"/>
<path d="M227.271,257.287v 6.45908" fill="none" stroke="black"/>
<path d="M238.61,260.516v 3.22954" fill="none" stroke="black"/>
<path d="M249.948,260.516v 3.22954" fill="none" stroke="black"/>
<path d="M261.287,260.516v 3.22954" fill="none" stroke="black"/>
<path d="M272.625,260.516v 3.22954" fill="none" stroke="black"/>
<path d="M283.964,257.287v 6.45908" fill="none" stroke="black"/>
<path d="M295.303,260.516v 3.22954" fill="none" stroke="black"/>
<path d="M306.641,260.516v 3.22954" fill="none" stroke="black"/>
<path d="M317.98,260.516v 3.22954" fill="none" stroke="black"/>
<path d="M329.318,260.516v 3.22954" fill="none" stroke="black"/>
<path d="M340.657,257.287v 6.45908" fill="none" stroke="black"/>
<path d="M351.995,260.516v 3.22954" fill="none" stroke="black"/>
<path d="M363.334,260.516v 3.22954" fill="none" stroke="black"/>
<path d="M374.673,260.516v 3.22954" fill="none" stroke="black"/>
<path d="M386.011,260.516v 3.22954" fill="none" stroke="black"/>
<path d="M397.35,257.287v 6.45908" fill="none" stroke="black"/>
<path d="M408.688,260.516v 3.22954" fill="none" stroke="black"/>
<path d="M420.027,260.516v 3.22954" fill="none" stroke="black"/>
<path d="M431.366,260.516v 3.22954" fill="none" stroke="black"/>
<path d="M442.704,260.516v 3.22954" fill="none" stroke="black"/>
<path d="M454.043,257.287v 6.45908" fill="none" stroke="black"/>
<path d="M465.381,260.516v 3.22954" fill="none" stroke="black"/>
<path d="M476.72,260.516v 3.22954" fill="none" stroke="black"/>
<path d="M488.058,260.516v 3.22954" fill="none" stroke="black"/>
<path d="M499.397,260.516v 3.22954" fill="none" stroke="black"/>
<path d="M510.736,257.287v 6.45908" fill="none" stroke="black"/>
<path d="M113.885,257.287v 6.45908" fill="none" stroke="black"/>
<path d="M102.547,260.516v 3.22954" fill="none" stroke="black"/>
<path d="M91.2081,260.516v 3.22954" fill="none" stroke="black"/>
<path d="M79.8695,260.516v 3.22954" fill="none" stroke="black"/>
<path d="M68.5309,260.516v 3.22954" fill="none" stroke="black"/>
<path d="M510.736,257.287v 6.45908" fill="none" stroke="black"/>
<text x="112.908" y="264.73" fill="black" font-size="0.5" font-family="Helvetica">
150
</text>
<text x="112.908" y="264.73" fill="black" font-size="0.5" font-family="Times">
&#8722;
</text>
<text x="169.113" y="264.73" fill="black" font-size="0.5" font-family="Helvetica">
100
</text>
<text x="169.113" y="264.73" fill="black" font-size="0.5" font-family="Times">
&#8722;
</text>
<text x="225.317" y="264.73" fill="black" font-size="0.5" font-family="Helvetica">
50
</text>
<text x="225.317" y="264.73" fill="black" font-size="0.5" font-family="Times">
&#8722;
</text>
<text x="282.335" y="264.73" fill="black" font-size="0.5" font-family="Helvetica">
0
</text>
<text x="338.54" y="264.73" fill="black" font-size="0.5" font-family="Helvetica">
50
</text>
<text x="396.373" y="264.73" fill="black" font-size="0.5" font-family="Helvetica">
100
</text>
<text x="452.577" y="264.73" fill="black" font-size="0.5" font-family="Helvetica">
150
</text>
<text x="508.781" y="264.73" fill="black" font-size="0.5" font-family="Helvetica">
200
</text>
<text x="512.854" y="261.472" fill="black" font-size="0.5" font-family="Helvetica">
3
</text>
<text x="511.225" y="263.101" fill="black" font-size="0.5" font-family="Helvetica">
10
</text>
<text x="510.41" y="263.101" fill="black" font-size="0.5" font-family="Times">
&#0215;
</text>
<path d="M57.1929,263.746v -236.833" fill="none" stroke="black"/>
<g transform="rotate(-90,17.6056,178.387)">
<text x="17.6056" y="178.387" fill="black" font-size="15.8082" font-family="Helvetica">
Number of candidates
</text>
</g>
<path d="M62.1819,263.746h -4.98898" fill="none" stroke="black"/>
<path d="M59.6874,254.724h -2.49449" fill="none" stroke="black"/>
<path d="M59.6874,245.701h -2.49449" fill="none" stroke="black"/>
<path d="M59.6874,236.679h -2.49449" fill="none" stroke="black"/>
<path d="M59.6874,227.657h -2.49449" fill="none" stroke="black"/>
<path d="M62.1819,218.635h -4.98898" fill="none" stroke="black"/>
<path d="M59.6874,209.613h -2.49449" fill="none" stroke="black"/>
<path d="M59.6874,200.59h -2.49449" fill="none" stroke="black"/>
<path d="M59.6874,191.568h -2.49449" fill="none" stroke="black"/>
<path d="M59.6874,182.546h -2.49449" fill="none" stroke="black"/>
<path d="M62.1819,173.524h -4.98898" fill="none" stroke="black"/>
<path d="M59.6874,164.502h -2.49449" fill="none" stroke="black"/>
<path d="M59.6874,155.479h -2.49449" fill="none" stroke="black"/>
<path d="M59.6874,146.457h -2.49449" fill="none" stroke="black"/>
<path d="M59.6874,137.435h -2.49449" fill="none" stroke="black"/>
<path d="M62.1819,128.413h -4.98898" fill="none" stroke="black"/>
<path d="M59.6874,119.39h -2.49449" fill="none" stroke="black"/>
<path d="M59.6874,110.368h -2.49449" fill="none" stroke="black"/>
<path d="M59.6874,101.346h -2.49449" fill="none" stroke="black"/>
<path d="M59.6874,92.3239h -2.49449" fill="none" stroke="black"/>
<path d="M62.1819,83.3017h -4.98898" fill="none" stroke="black"/>
<path d="M59.6874,74.2794h -2.49449" fill="none" stroke="black"/>
<path d="M59.6874,65.2572h -2.49449" fill="none" stroke="black"/>
<path d="M59.6874,56.235h -2.49449" fill="none" stroke="black"/>
<path d="M59.6874,47.2128h -2.49449" fill="none" stroke="black"/>
<path d="M62.1819,38.1906h -4.98898" fill="none" stroke="black"/>
<path d="M62.1819,38.1906h -4.98898" fill="none" stroke="black"/>
<path d="M59.6874,29.1684h -2.49449" fill="none" stroke="black"/>
<text x="47.7441" y="267.988" fill="black" font-size="11.6108" font-family="Helvetica">
0
</text>
<text x="50.1878" y="223.188" fill="black" font-size="11.6108" font-family="Helvetica">
1
</text>
<text x="47.7441" y="178.387" fill="black" font-size="11.6108" font-family="Helvetica">
2
</text>
<text x="47.7441" y="132.772" fill="black" font-size="11.6108" font-family="Helvetica">
3
</text>
<text x="47.7441" y="87.9718" fill="black" font-size="11.6108" font-family="Helvetica">
4
</text>
<text x="47.7441" y="42.3568" fill="black" font-size="11.6108" font-family="Helvetica">
5
</text>
<path d="M57.1929,263.746h 184.592v -45.111h 0.226772v 45.111h 2.49449v -45.111h 0.226772v 45.111h 0.680315v -45.111h 0.226772v 45.111h 0.226772v -45.111h 0.226772v 45.111h 1.36063v -45.111h 0.226772v 45.111h 2.94803v -45.111h 0.226772v 45.111h
 2.04094v -45.111h 0.226772v 45.111h 3.85512v -135.333h 0.226772v 135.333h 0.226772v -45.111h 0.226772v 45.111h 0.453543v -45.111h 0.226772v 45.111h 0.907087v -45.111h 0.226772v 45.111h 2.72126v -45.111h 0.226772v 45.111h 0.226772v -45.111h 0.226772v
 45.111h 0.226772v -90.2221h 0.226772v 90.2221h 0.680315v -45.111h 0.226772v 45.111h 0.226772v -45.111h 0.453543v 45.111h 0.226772v -45.111h 0.226772v 45.111h 0.680315v -90.2221h 0.226772v 45.111h 0.453543v -45.111h 0.226772v 90.2221h 0.226772v
 -45.111h 0.680315v 45.111h 0.226772v -45.111h 0.226772v 45.111h 0.680315v -45.111h 0.453543v 45.111h 0.453543v -45.111h 0.226772v -45.111h 0.226772v 90.2221h 0.226772v -45.111h 0.226772v 45.111h 0.680315v -45.111h 0.680315v 45.111h 1.13386v -45.111h
 0.226772v -45.111h 0.226772v 90.2221h 0.453543v -90.2221h 0.226772v 45.111h 0.226772v 45.111h 0.453543v -45.111h 0.226772v 45.111h 0.226772v -45.111h 0.226772v 45.111h 0.226772v -135.333h 0.226772v 135.333h 0.453543v -135.333h 0.226772v 135.333h
 0.226772v -90.2221h 0.226772v 45.111h 0.226772v -45.111h 0.226772v -45.111h 0.226772v 135.333h 0.226772v -180.444h 0.226772v 135.333h 0.226772v 45.111h 0.226772v -90.2221h 0.226772v 90.2221h 0.226772v -135.333h 0.226772v 90.2221h 0.226772v 45.111h
 0.226772v -45.111h 0.226772v 45.111h 0.453543v -45.111h 0.226772v 45.111h 0.453543v -90.2221h 0.226772v 90.2221h 0.226772v -90.2221h 0.226772v 45.111h 0.453543v 45.111h 0.680315v -90.2221h 0.453543v -45.111h 0.226772v 135.333h 0.453543v -45.111h
 0.226772v -45.111h 0.226772v 45.111h 0.226772v 45.111h 0.453543v -45.111h 0.453543v -135.333h 0.226772v 180.444h 0.680315v -45.111h 0.226772v -45.111h 0.226772v 45.111h 0.226772v 45.111h 0.453543v -90.2221h 0.226772v 90.2221h 0.226772v -225.555h
 0.226772v 180.444h 0.907087v 45.111h 0.226772v -45.111h 0.226772v -135.333h 0.226772v 135.333h 0.226772v 45.111h 0.680315v -45.111h 0.226772v 45.111h 0.226772v -45.111h 0.680315v 45.111h 0.453543v -45.111h 0.226772v -45.111h 0.226772v 90.2221h
 0.226772v -90.2221h 0.226772v 45.111h 0.226772v -45.111h 0.453543v 45.111h 0.453543v 45.111h 0.226772v -90.2221h 0.226772v 90.2221h 0.453543v -45.111h 0.226772v -45.111h 0.226772v 45.111h 0.453543v -45.111h 0.226772v 45.111h 0.226772v 45.111h
 0.680315v -45.111h 0.453543v 45.111h 0.453543v -90.2221h 0.226772v 45.111h 0.680315v 45.111h 0.453543v -90.2221h 0.226772v 90.2221h 0.226772v -45.111h 0.226772v 45.111h 0.226772v -90.2221h 0.226772v 45.111h 0.226772v 45.111h 0.226772v -45.111h
 0.226772v 45.111h 0.453543v -45.111h 0.226772v 45.111h 0.226772v -90.2221h 0.226772v 90.2221h 0.226772v -135.333h 0.226772v 135.333h 0.226772v -45.111h 0.226772v -90.2221h 0.226772v 90.2221h 0.453543v 45.111h 0.907087v -45.111h 0.453543v 45.111h
 1.13386v -90.2221h 0.226772v 90.2221h 0.226772v -45.111h 0.226772v 45.111h 0.226772v -45.111h 0.226772v 45.111h 0.907087v -90.2221h 0.226772v 90.2221h 0.226772v -90.2221h 0.226772v 45.111h 0.453543v 45.111h 0.907087v -90.2221h 0.226772v 45.111h
 0.453543v 45.111h 0.453543v -45.111h 0.226772v 45.111h 0.453543v -45.111h 0.226772v 45.111h 0.226772v -90.2221h 0.226772v 90.2221h 1.36063v -45.111h 0.226772v 45.111h 0.907087v -90.2221h 0.226772v 90.2221h 0.907087v -45.111h 0.453543v 45.111h
 0.907087v -90.2221h 0.226772v 90.2221h 1.36063v -45.111h 0.226772v 45.111h 1.13386v -90.2221h 0.226772v 90.2221h 2.04094v -45.111h 0.907087v 45.111h 1.81417v -45.111h 0.226772v 45.111h 0.226772v -45.111h 0.226772v 45.111h 2.04094v -45.111h 0.226772v
 45.111h 0.226772v -45.111h 0.226772v 45.111h 1.13386v -45.111h 0.226772v 45.111h 2.49449v -45.111h 0.453543v 45.111h 0.226772v -45.111h 0.226772v 45.111h 11.5654v -45.111h 0.226772v 45.111h 164.183" fill="none" stroke="#ff0000"/>
<text x="387.413" y="23.622" fill="black" font-size="9.79954" font-family="Helvetica">
Hardware
</text>
<g stroke="black" stroke-width="1" fill="black">
<rect x="376.587" y="18.5555" width="3.25821" height="3.25821"/>
</g>
<text x="463.166" y="23.622" fill="black" font-size="9.79954" font-family="Helvetica">
Emulator
</text>
<path d="M447.68,20.1846h 12.8976" fill="none" stroke="#ff0000"/>
<text x="248.939" y="22.8075" fill="black" font-size="12.8453" font-family="Helvetica" font-style="oblique">
 = 13 TeV, SingleMu
</text>
<text x="242.422" y="22.8075" fill="black" font-size="12.8453" font-family="Helvetica" font-style="oblique">
s
</text>
<path d="M238.35,15.4765l 0.814553, 8.14553" fill="none" stroke="black"/>
<path d="M239.164,23.622l 1.62911, -12.2183" fill="none" stroke="black"/>
<path d="M240.793,11.4037h 8.14553" fill="none" stroke="black"/>
<text x="155.265" y="22.8075" fill="black" font-size="12.8453" font-family="Helvetica" font-style="oblique">
: Run 284113, 
</text>
<text x="56.7042" y="22.8075" fill="black" font-size="12.8453" font-family="Helvetica" font-weight="bold" font-style="oblique">
CMS Preliminary
</text>
<rect x="0.5" y="269.128" width="566.929" height="96.1173" fill="white"/>
<rect x="57.1929" y="269.128" width="453.543" height="58.6315" fill="white"/>
<rect x="57.1929" y="269.128" width="453.543" height="58.6315" fill="none" stroke="black"/>
<path d="M57.1929,327.76h 453.543" fill="none" stroke="black"/>
<path d="M113.885,269.128v 58.6315" fill="none" stroke="black" stroke-dasharray=" 1, 2"/>
<path d="M170.578,269.128v 58.6315" fill="none" stroke="black" stroke-dasharray=" 1, 2"/>
<path d="M227.271,269.128v 58.6315" fill="none" stroke="black" stroke-dasharray=" 1, 2"/>
<path d="M283.964,269.128v 58.6315" fill="none" stroke="black" stroke-dasharray=" 1, 2"/>
<path d="M340.657,269.128v 58.6315" fill="none" stroke="black" stroke-dasharray=" 1, 2"/>
<path d="M397.35,269.128v 58.6315" fill="none" stroke="black" stroke-dasharray=" 1, 2"/>
<path d="M454.043,269.128v 58.6315" fill="none" stroke="black" stroke-dasharray=" 1, 2"/>
<path d="M510.736,269.128v 58.6315" fill="none" stroke="black" stroke-dasharray=" 1, 2"/>
<path d="M113.885,269.128v 58.6315" fill="none" stroke="black" stroke-dasharray=" 1, 2"/>
<path d="M510.736,269.128v 58.6315" fill="none" stroke="black" stroke-dasharray=" 1, 2"/>
<path d="M57.1929,327.76v -58.6315" fill="none" stroke="black"/>
<path d="M510.736,322.874h -453.543" fill="none" stroke="black" stroke-dasharray=" 1, 2"/>
<path d="M510.736,310.659h -453.543" fill="none" stroke="black" stroke-dasharray=" 1, 2"/>
<path d="M510.736,298.444h -453.543" fill="none" stroke="black" stroke-dasharray=" 1, 2"/>
<path d="M510.736,286.229h -453.543" fill="none" stroke="black" stroke-dasharray=" 1, 2"/>
<path d="M510.736,274.014h -453.543" fill="none" stroke="black" stroke-dasharray=" 1, 2"/>
<path d="M510.736,322.874h -453.543" fill="none" stroke="black" stroke-dasharray=" 1, 2"/>
<path d="M510.736,274.014h -453.543" fill="none" stroke="black" stroke-dasharray=" 1, 2"/>
<g stroke="black" stroke-width="1" fill="black">
<rect x="240.269" y="296.815" width="3.25821" height="3.25821"/>
<rect x="242.991" y="296.815" width="3.25821" height="3.25821"/>
<rect x="243.898" y="296.815" width="3.25821" height="3.25821"/>
<rect x="244.351" y="296.815" width="3.25821" height="3.25821"/>
<rect x="245.939" y="296.815" width="3.25821" height="3.25821"/>
<rect x="249.113" y="296.815" width="3.25821" height="3.25821"/>
<rect x="251.381" y="296.815" width="3.25821" height="3.25821"/>
<rect x="255.463" y="296.815" width="3.25821" height="3.25821"/>
<rect x="255.917" y="296.815" width="3.25821" height="3.25821"/>
<rect x="256.597" y="296.815" width="3.25821" height="3.25821"/>
<rect x="257.731" y="296.815" width="3.25821" height="3.25821"/>
<rect x="260.679" y="296.815" width="3.25821" height="3.25821"/>
<rect x="261.132" y="296.815" width="3.25821" height="3.25821"/>
<rect x="261.586" y="296.815" width="3.25821" height="3.25821"/>
<rect x="262.493" y="296.815" width="3.25821" height="3.25821"/>
<rect x="262.946" y="296.815" width="3.25821" height="3.25821"/>
<rect x="263.173" y="296.815" width="3.25821" height="3.25821"/>
<rect x="263.627" y="296.815" width="3.25821" height="3.25821"/>
<rect x="264.534" y="296.815" width="3.25821" height="3.25821"/>
<rect x="264.761" y="296.815" width="3.25821" height="3.25821"/>
<rect x="264.987" y="296.815" width="3.25821" height="3.25821"/>
<rect x="265.214" y="296.815" width="3.25821" height="3.25821"/>
<rect x="265.668" y="296.815" width="3.25821" height="3.25821"/>
<rect x="265.895" y="296.815" width="3.25821" height="3.25821"/>
<rect x="266.121" y="296.815" width="3.25821" height="3.25821"/>
<rect x="266.575" y="296.815" width="3.25821" height="3.25821"/>
<rect x="267.482" y="296.815" width="3.25821" height="3.25821"/>
<rect x="267.709" y="296.815" width="3.25821" height="3.25821"/>
<rect x="268.389" y="296.815" width="3.25821" height="3.25821"/>
<rect x="268.616" y="296.815" width="3.25821" height="3.25821"/>
<rect x="269.069" y="296.815" width="3.25821" height="3.25821"/>
<rect x="269.976" y="296.815" width="3.25821" height="3.25821"/>
<rect x="270.203" y="296.815" width="3.25821" height="3.25821"/>
<rect x="270.43" y="296.815" width="3.25821" height="3.25821"/>
<rect x="271.791" y="296.815" width="3.25821" height="3.25821"/>
<rect x="272.017" y="296.815" width="3.25821" height="3.25821"/>
<rect x="272.698" y="296.815" width="3.25821" height="3.25821"/>
<rect x="272.924" y="296.815" width="3.25821" height="3.25821"/>
<rect x="273.605" y="296.815" width="3.25821" height="3.25821"/>
<rect x="274.058" y="296.815" width="3.25821" height="3.25821"/>
<rect x="274.512" y="296.815" width="3.25821" height="3.25821"/>
<rect x="275.192" y="296.815" width="3.25821" height="3.25821"/>
<rect x="275.646" y="296.815" width="3.25821" height="3.25821"/>
<rect x="275.872" y="296.815" width="3.25821" height="3.25821"/>
<rect x="276.099" y="296.815" width="3.25821" height="3.25821"/>
<rect x="276.326" y="296.815" width="3.25821" height="3.25821"/>
<rect x="276.78" y="296.815" width="3.25821" height="3.25821"/>
<rect x="277.006" y="296.815" width="3.25821" height="3.25821"/>
<rect x="277.46" y="296.815" width="3.25821" height="3.25821"/>
<rect x="277.913" y="296.815" width="3.25821" height="3.25821"/>
</g>
<g stroke="black" stroke-width="1" fill="black">
<rect x="277.913" y="296.815" width="3.25821" height="3.25821"/>
<rect x="278.14" y="296.815" width="3.25821" height="3.25821"/>
<rect x="278.594" y="296.815" width="3.25821" height="3.25821"/>
<rect x="279.274" y="296.815" width="3.25821" height="3.25821"/>
<rect x="279.954" y="296.815" width="3.25821" height="3.25821"/>
<rect x="280.408" y="296.815" width="3.25821" height="3.25821"/>
<rect x="280.635" y="296.815" width="3.25821" height="3.25821"/>
<rect x="280.861" y="296.815" width="3.25821" height="3.25821"/>
<rect x="281.769" y="296.815" width="3.25821" height="3.25821"/>
<rect x="281.995" y="296.815" width="3.25821" height="3.25821"/>
<rect x="282.222" y="296.815" width="3.25821" height="3.25821"/>
<rect x="282.902" y="296.815" width="3.25821" height="3.25821"/>
<rect x="283.129" y="296.815" width="3.25821" height="3.25821"/>
<rect x="283.356" y="296.815" width="3.25821" height="3.25821"/>
<rect x="284.036" y="296.815" width="3.25821" height="3.25821"/>
<rect x="284.263" y="296.815" width="3.25821" height="3.25821"/>
<rect x="284.49" y="296.815" width="3.25821" height="3.25821"/>
<rect x="285.397" y="296.815" width="3.25821" height="3.25821"/>
<rect x="285.624" y="296.815" width="3.25821" height="3.25821"/>
<rect x="285.85" y="296.815" width="3.25821" height="3.25821"/>
<rect x="286.531" y="296.815" width="3.25821" height="3.25821"/>
<rect x="286.984" y="296.815" width="3.25821" height="3.25821"/>
<rect x="287.211" y="296.815" width="3.25821" height="3.25821"/>
<rect x="287.438" y="296.815" width="3.25821" height="3.25821"/>
<rect x="287.665" y="296.815" width="3.25821" height="3.25821"/>
<rect x="287.891" y="296.815" width="3.25821" height="3.25821"/>
<rect x="288.345" y="296.815" width="3.25821" height="3.25821"/>
<rect x="288.572" y="296.815" width="3.25821" height="3.25821"/>
<rect x="288.798" y="296.815" width="3.25821" height="3.25821"/>
<rect x="289.706" y="296.815" width="3.25821" height="3.25821"/>
<rect x="290.159" y="296.815" width="3.25821" height="3.25821"/>
<rect x="290.386" y="296.815" width="3.25821" height="3.25821"/>
<rect x="290.613" y="296.815" width="3.25821" height="3.25821"/>
<rect x="291.293" y="296.815" width="3.25821" height="3.25821"/>
<rect x="291.52" y="296.815" width="3.25821" height="3.25821"/>
<rect x="291.973" y="296.815" width="3.25821" height="3.25821"/>
<rect x="292.2" y="296.815" width="3.25821" height="3.25821"/>
<rect x="292.427" y="296.815" width="3.25821" height="3.25821"/>
<rect x="292.654" y="296.815" width="3.25821" height="3.25821"/>
<rect x="292.88" y="296.815" width="3.25821" height="3.25821"/>
<rect x="293.107" y="296.815" width="3.25821" height="3.25821"/>
<rect x="293.561" y="296.815" width="3.25821" height="3.25821"/>
<rect x="294.241" y="296.815" width="3.25821" height="3.25821"/>
<rect x="294.468" y="296.815" width="3.25821" height="3.25821"/>
<rect x="294.695" y="296.815" width="3.25821" height="3.25821"/>
<rect x="294.921" y="296.815" width="3.25821" height="3.25821"/>
<rect x="295.148" y="296.815" width="3.25821" height="3.25821"/>
<rect x="295.375" y="296.815" width="3.25821" height="3.25821"/>
<rect x="296.282" y="296.815" width="3.25821" height="3.25821"/>
<rect x="296.509" y="296.815" width="3.25821" height="3.25821"/>
</g>
<g stroke="black" stroke-width="1" fill="black">
<rect x="296.509" y="296.815" width="3.25821" height="3.25821"/>
<rect x="297.189" y="296.815" width="3.25821" height="3.25821"/>
<rect x="297.416" y="296.815" width="3.25821" height="3.25821"/>
<rect x="297.643" y="296.815" width="3.25821" height="3.25821"/>
<rect x="297.869" y="296.815" width="3.25821" height="3.25821"/>
<rect x="298.55" y="296.815" width="3.25821" height="3.25821"/>
<rect x="299.003" y="296.815" width="3.25821" height="3.25821"/>
<rect x="299.457" y="296.815" width="3.25821" height="3.25821"/>
<rect x="299.684" y="296.815" width="3.25821" height="3.25821"/>
<rect x="300.137" y="296.815" width="3.25821" height="3.25821"/>
<rect x="300.817" y="296.815" width="3.25821" height="3.25821"/>
<rect x="301.271" y="296.815" width="3.25821" height="3.25821"/>
<rect x="301.724" y="296.815" width="3.25821" height="3.25821"/>
<rect x="302.178" y="296.815" width="3.25821" height="3.25821"/>
<rect x="302.405" y="296.815" width="3.25821" height="3.25821"/>
<rect x="302.632" y="296.815" width="3.25821" height="3.25821"/>
<rect x="302.858" y="296.815" width="3.25821" height="3.25821"/>
<rect x="303.992" y="296.815" width="3.25821" height="3.25821"/>
<rect x="304.219" y="296.815" width="3.25821" height="3.25821"/>
<rect x="305.58" y="296.815" width="3.25821" height="3.25821"/>
<rect x="306.033" y="296.815" width="3.25821" height="3.25821"/>
<rect x="306.487" y="296.815" width="3.25821" height="3.25821"/>
<rect x="307.621" y="296.815" width="3.25821" height="3.25821"/>
<rect x="308.074" y="296.815" width="3.25821" height="3.25821"/>
<rect x="308.301" y="296.815" width="3.25821" height="3.25821"/>
<rect x="308.528" y="296.815" width="3.25821" height="3.25821"/>
<rect x="309.661" y="296.815" width="3.25821" height="3.25821"/>
<rect x="309.888" y="296.815" width="3.25821" height="3.25821"/>
<rect x="310.115" y="296.815" width="3.25821" height="3.25821"/>
<rect x="310.795" y="296.815" width="3.25821" height="3.25821"/>
<rect x="311.476" y="296.815" width="3.25821" height="3.25821"/>
<rect x="311.929" y="296.815" width="3.25821" height="3.25821"/>
<rect x="313.517" y="296.815" width="3.25821" height="3.25821"/>
<rect x="314.65" y="296.815" width="3.25821" height="3.25821"/>
<rect x="315.784" y="296.815" width="3.25821" height="3.25821"/>
<rect x="316.011" y="296.815" width="3.25821" height="3.25821"/>
<rect x="317.145" y="296.815" width="3.25821" height="3.25821"/>
<rect x="318.732" y="296.815" width="3.25821" height="3.25821"/>
<rect x="320.093" y="296.815" width="3.25821" height="3.25821"/>
<rect x="322.361" y="296.815" width="3.25821" height="3.25821"/>
<rect x="322.587" y="296.815" width="3.25821" height="3.25821"/>
<rect x="322.814" y="296.815" width="3.25821" height="3.25821"/>
<rect x="323.041" y="296.815" width="3.25821" height="3.25821"/>
<rect x="325.082" y="296.815" width="3.25821" height="3.25821"/>
<rect x="325.535" y="296.815" width="3.25821" height="3.25821"/>
<rect x="327.803" y="296.815" width="3.25821" height="3.25821"/>
<rect x="328.257" y="296.815" width="3.25821" height="3.25821"/>
<rect x="329.617" y="296.815" width="3.25821" height="3.25821"/>
<rect x="332.339" y="296.815" width="3.25821" height="3.25821"/>
<rect x="332.565" y="296.815" width="3.25821" height="3.25821"/>
</g>
<g stroke="black" stroke-width="1" fill="black">
<rect x="332.565" y="296.815" width="3.25821" height="3.25821"/>
<rect x="333.019" y="296.815" width="3.25821" height="3.25821"/>
<rect x="344.811" y="296.815" width="3.25821" height="3.25821"/>
</g>
<path d="M57.1929,327.76h 453.543" fill="none" stroke="black"/>
<text x="497.378" y="361.662" fill="black" font-size="9.3181" font-family="Helvetica">
T,x
</text>
<text x="366.234" y="353.516" fill="black" font-size="13.7271" font-family="Helvetica">
Level-1 Trigger Jet iE
</text>
<path d="M113.885,325.453v 2.30681" fill="none" stroke="black"/>
<path d="M125.224,326.607v 1.15341" fill="none" stroke="black"/>
<path d="M136.562,326.607v 1.15341" fill="none" stroke="black"/>
<path d="M147.901,326.607v 1.15341" fill="none" stroke="black"/>
<path d="M159.24,326.607v 1.15341" fill="none" stroke="black"/>
<path d="M170.578,325.453v 2.30681" fill="none" stroke="black"/>
<path d="M181.917,326.607v 1.15341" fill="none" stroke="black"/>
<path d="M193.255,326.607v 1.15341" fill="none" stroke="black"/>
<path d="M204.594,326.607v 1.15341" fill="none" stroke="black"/>
<path d="M215.933,326.607v 1.15341" fill="none" stroke="black"/>
<path d="M227.271,325.453v 2.30681" fill="none" stroke="black"/>
<path d="M238.61,326.607v 1.15341" fill="none" stroke="black"/>
<path d="M249.948,326.607v 1.15341" fill="none" stroke="black"/>
<path d="M261.287,326.607v 1.15341" fill="none" stroke="black"/>
<path d="M272.625,326.607v 1.15341" fill="none" stroke="black"/>
<path d="M283.964,325.453v 2.30681" fill="none" stroke="black"/>
<path d="M295.303,326.607v 1.15341" fill="none" stroke="black"/>
<path d="M306.641,326.607v 1.15341" fill="none" stroke="black"/>
<path d="M317.98,326.607v 1.15341" fill="none" stroke="black"/>
<path d="M329.318,326.607v 1.15341" fill="none" stroke="black"/>
<path d="M340.657,325.453v 2.30681" fill="none" stroke="black"/>
<path d="M351.995,326.607v 1.15341" fill="none" stroke="black"/>
<path d="M363.334,326.607v 1.15341" fill="none" stroke="black"/>
<path d="M374.673,326.607v 1.15341" fill="none" stroke="black"/>
<path d="M386.011,326.607v 1.15341" fill="none" stroke="black"/>
<path d="M397.35,325.453v 2.30681" fill="none" stroke="black"/>
<path d="M408.688,326.607v 1.15341" fill="none" stroke="black"/>
<path d="M420.027,326.607v 1.15341" fill="none" stroke="black"/>
<path d="M431.366,326.607v 1.15341" fill="none" stroke="black"/>
<path d="M442.704,326.607v 1.15341" fill="none" stroke="black"/>
<path d="M454.043,325.453v 2.30681" fill="none" stroke="black"/>
<path d="M465.381,326.607v 1.15341" fill="none" stroke="black"/>
<path d="M476.72,326.607v 1.15341" fill="none" stroke="black"/>
<path d="M488.058,326.607v 1.15341" fill="none" stroke="black"/>
<path d="M499.397,326.607v 1.15341" fill="none" stroke="black"/>
<path d="M510.736,325.453v 2.30681" fill="none" stroke="black"/>
<path d="M113.885,325.453v 2.30681" fill="none" stroke="black"/>
<path d="M102.547,326.607v 1.15341" fill="none" stroke="black"/>
<path d="M91.2081,326.607v 1.15341" fill="none" stroke="black"/>
<path d="M79.8695,326.607v 1.15341" fill="none" stroke="black"/>
<path d="M68.5309,326.607v 1.15341" fill="none" stroke="black"/>
<path d="M510.736,325.453v 2.30681" fill="none" stroke="black"/>
<text x="107.206" y="340.483" fill="black" font-size="11.0817" font-family="Helvetica">
150
</text>
<text x="101.505" y="340.483" fill="black" font-size="11.0817" font-family="Times">
&#8722;
</text>
<text x="163.411" y="340.483" fill="black" font-size="11.0817" font-family="Helvetica">
100
</text>
<text x="157.709" y="340.483" fill="black" font-size="11.0817" font-family="Times">
&#8722;
</text>
<text x="223.688" y="340.483" fill="black" font-size="11.0817" font-family="Helvetica">
50
</text>
<text x="217.986" y="340.483" fill="black" font-size="11.0817" font-family="Times">
&#8722;
</text>
<text x="279.892" y="340.483" fill="black" font-size="11.0817" font-family="Helvetica">
0
</text>
<text x="334.467" y="340.483" fill="black" font-size="11.0817" font-family="Helvetica">
50
</text>
<text x="388.227" y="340.483" fill="black" font-size="11.0817" font-family="Helvetica">
100
</text>
<text x="444.432" y="340.483" fill="black" font-size="11.0817" font-family="Helvetica">
150
</text>
<text x="501.45" y="340.483" fill="black" font-size="11.0817" font-family="Helvetica">
200
</text>
<text x="534.032" y="321.749" fill="black" font-size="7.55448" font-family="Helvetica">
3
</text>
<text x="522.629" y="327.45" fill="black" font-size="11.0817" font-family="Helvetica">
10
</text>
<text x="516.927" y="327.45" fill="black" font-size="11.0817" font-family="Times">
&#0215;
</text>
<path d="M57.1929,327.76v -58.6315" fill="none" stroke="black"/>
<g transform="rotate(-90,21.6784,321.749)">
<text x="21.6784" y="321.749" fill="black" font-size="13.7271" font-family="Helvetica">
HW/EM
</text>
</g>
<path d="M60.6512,322.874h -3.45827" fill="none" stroke="black"/>
<path d="M58.0575,319.82h -0.864567" fill="none" stroke="black"/>
<path d="M58.9221,316.767h -1.72913" fill="none" stroke="black"/>
<path d="M58.0575,313.713h -0.864567" fill="none" stroke="black"/>
<path d="M60.6512,310.659h -3.45827" fill="none" stroke="black"/>
<path d="M58.0575,307.605h -0.864567" fill="none" stroke="black"/>
<path d="M58.9221,304.552h -1.72913" fill="none" stroke="black"/>
<path d="M58.0575,301.498h -0.864567" fill="none" stroke="black"/>
<path d="M60.6512,298.444h -3.45827" fill="none" stroke="black"/>
<path d="M58.0575,295.39h -0.864567" fill="none" stroke="black"/>
<path d="M58.9221,292.337h -1.72913" fill="none" stroke="black"/>
<path d="M58.0575,289.283h -0.864567" fill="none" stroke="black"/>
<path d="M60.6512,286.229h -3.45827" fill="none" stroke="black"/>
<path d="M58.0575,283.176h -0.864567" fill="none" stroke="black"/>
<path d="M58.9221,280.122h -1.72913" fill="none" stroke="black"/>
<path d="M58.0575,277.068h -0.864567" fill="none" stroke="black"/>
<path d="M60.6512,274.014h -3.45827" fill="none" stroke="black"/>
<path d="M60.6512,322.874h -3.45827" fill="none" stroke="black"/>
<path d="M58.0575,325.928h -0.864567" fill="none" stroke="black"/>
<path d="M60.6512,274.014h -3.45827" fill="none" stroke="black"/>
<path d="M58.0575,270.961h -0.864567" fill="none" stroke="black"/>
<text x="38.784" y="326.636" fill="black" font-size="11.0817" font-family="Helvetica">
0.8
</text>
<text x="38.784" y="314.418" fill="black" font-size="11.0817" font-family="Helvetica">
0.9
</text>
<text x="49.3732" y="303.014" fill="black" font-size="11.0817" font-family="Helvetica">
1
</text>
<text x="40.4131" y="290.796" fill="black" font-size="11.0817" font-family="Helvetica">
1.1
</text>
<text x="38.784" y="278.577" fill="black" font-size="11.0817" font-family="Helvetica">
1.2
</text>
<path d="M57.1929,298.444h 453.543" fill="none" stroke="#0000ff"/></svg>
