<?xml version="1.0" standalone="no"?>
<svg width="567.429" height="384.969" viewBox="0 0 567.429 384.969" xmlns="http://www.w3.org/2000/svg">
<title>
compHwEmu_DemuxJets_JetEta.svg
</title>
<desc>
Creator: ROOT Version 6.06/01
CreationDate: Mon Dec  5 11:09:29 2016</desc>
<defs>
</defs>
<rect x="0.5" y="0" width="566.929" height="384.469" fill="white"/>
<rect x="0.5" y="0" width="566.929" height="269.128" fill="white"/>
<rect x="57.1929" y="26.9128" width="453.543" height="236.833" fill="white"/>
<rect x="57.1929" y="26.9128" width="453.543" height="236.833" fill="none" stroke="black"/>
<path d="M57.1929,263.746h 453.543" fill="none" stroke="black"/>
<path d="M84.1658,26.9128v 236.833" fill="none" stroke="black" stroke-dasharray=" 1, 2"/>
<path d="M184.065,26.9128v 236.833" fill="none" stroke="black" stroke-dasharray=" 1, 2"/>
<path d="M283.965,26.9128v 236.833" fill="none" stroke="black" stroke-dasharray=" 1, 2"/>
<path d="M383.864,26.9128v 236.833" fill="none" stroke="black" stroke-dasharray=" 1, 2"/>
<path d="M483.763,26.9128v 236.833" fill="none" stroke="black" stroke-dasharray=" 1, 2"/>
<path d="M84.1658,26.9128v 236.833" fill="none" stroke="black" stroke-dasharray=" 1, 2"/>
<path d="M483.763,26.9128v 236.833" fill="none" stroke="black" stroke-dasharray=" 1, 2"/>
<path d="M57.1929,263.746v -236.833" fill="none" stroke="black"/>
<g stroke="black" stroke-width="1" fill="black">
<rect x="94.5246" y="253.763" width="3.25821" height="3.25821"/>
<rect x="118.5" y="253.763" width="3.25821" height="3.25821"/>
<rect x="126.492" y="245.409" width="3.25821" height="3.25821"/>
<rect x="134.484" y="253.763" width="3.25821" height="3.25821"/>
<rect x="144.474" y="228.701" width="3.25821" height="3.25821"/>
<rect x="156.462" y="211.993" width="3.25821" height="3.25821"/>
<rect x="164.454" y="228.701" width="3.25821" height="3.25821"/>
<rect x="172.446" y="203.639" width="3.25821" height="3.25821"/>
<rect x="178.44" y="203.639" width="3.25821" height="3.25821"/>
<rect x="186.432" y="228.701" width="3.25821" height="3.25821"/>
<rect x="190.428" y="228.701" width="3.25821" height="3.25821"/>
<rect x="196.422" y="211.993" width="3.25821" height="3.25821"/>
<rect x="200.418" y="245.409" width="3.25821" height="3.25821"/>
<rect x="204.414" y="153.516" width="3.25821" height="3.25821"/>
<rect x="208.41" y="153.516" width="3.25821" height="3.25821"/>
<rect x="212.406" y="161.87" width="3.25821" height="3.25821"/>
<rect x="216.402" y="195.286" width="3.25821" height="3.25821"/>
<rect x="220.398" y="145.162" width="3.25821" height="3.25821"/>
<rect x="224.394" y="220.347" width="3.25821" height="3.25821"/>
<rect x="228.39" y="170.224" width="3.25821" height="3.25821"/>
<rect x="232.386" y="103.393" width="3.25821" height="3.25821"/>
<rect x="236.382" y="145.162" width="3.25821" height="3.25821"/>
<rect x="240.378" y="136.808" width="3.25821" height="3.25821"/>
<rect x="244.374" y="120.1" width="3.25821" height="3.25821"/>
<rect x="248.37" y="136.808" width="3.25821" height="3.25821"/>
<rect x="252.366" y="128.454" width="3.25821" height="3.25821"/>
<rect x="256.362" y="161.87" width="3.25821" height="3.25821"/>
<rect x="260.358" y="120.1" width="3.25821" height="3.25821"/>
<rect x="264.354" y="86.6849" width="3.25821" height="3.25821"/>
<rect x="268.35" y="86.6849" width="3.25821" height="3.25821"/>
<rect x="272.346" y="103.393" width="3.25821" height="3.25821"/>
<rect x="276.341" y="61.6232" width="3.25821" height="3.25821"/>
<rect x="280.337" y="36.5615" width="3.25821" height="3.25821"/>
<rect x="284.333" y="53.2693" width="3.25821" height="3.25821"/>
<rect x="288.329" y="78.331" width="3.25821" height="3.25821"/>
<rect x="292.325" y="103.393" width="3.25821" height="3.25821"/>
<rect x="296.321" y="95.0388" width="3.25821" height="3.25821"/>
<rect x="300.317" y="78.331" width="3.25821" height="3.25821"/>
<rect x="304.313" y="136.808" width="3.25821" height="3.25821"/>
<rect x="308.309" y="136.808" width="3.25821" height="3.25821"/>
<rect x="312.305" y="120.1" width="3.25821" height="3.25821"/>
<rect x="316.301" y="153.516" width="3.25821" height="3.25821"/>
<rect x="320.297" y="178.578" width="3.25821" height="3.25821"/>
<rect x="324.293" y="186.932" width="3.25821" height="3.25821"/>
<rect x="328.289" y="95.0388" width="3.25821" height="3.25821"/>
<rect x="332.285" y="111.747" width="3.25821" height="3.25821"/>
<rect x="336.281" y="95.0388" width="3.25821" height="3.25821"/>
<rect x="340.277" y="145.162" width="3.25821" height="3.25821"/>
<rect x="344.273" y="170.224" width="3.25821" height="3.25821"/>
<rect x="348.269" y="153.516" width="3.25821" height="3.25821"/>
</g>
<g stroke="black" stroke-width="1" fill="black">
<rect x="348.269" y="153.516" width="3.25821" height="3.25821"/>
<rect x="352.265" y="95.0388" width="3.25821" height="3.25821"/>
<rect x="356.261" y="78.331" width="3.25821" height="3.25821"/>
<rect x="360.257" y="128.454" width="3.25821" height="3.25821"/>
<rect x="364.253" y="220.347" width="3.25821" height="3.25821"/>
<rect x="368.249" y="178.578" width="3.25821" height="3.25821"/>
<rect x="374.243" y="211.993" width="3.25821" height="3.25821"/>
<rect x="378.239" y="203.639" width="3.25821" height="3.25821"/>
<rect x="386.231" y="186.932" width="3.25821" height="3.25821"/>
<rect x="392.225" y="120.1" width="3.25821" height="3.25821"/>
<rect x="400.217" y="228.701" width="3.25821" height="3.25821"/>
<rect x="408.209" y="136.808" width="3.25821" height="3.25821"/>
<rect x="420.197" y="228.701" width="3.25821" height="3.25821"/>
<rect x="430.187" y="245.409" width="3.25821" height="3.25821"/>
<rect x="446.17" y="253.763" width="3.25821" height="3.25821"/>
<rect x="454.162" y="253.763" width="3.25821" height="3.25821"/>
<rect x="470.146" y="253.763" width="3.25821" height="3.25821"/>
</g>
<path d="M57.1929,263.746h 453.543" fill="none" stroke="black"/>
<path d="M84.1658,257.287v 6.45908" fill="none" stroke="black"/>
<path d="M104.146,260.516v 3.22954" fill="none" stroke="black"/>
<path d="M124.126,260.516v 3.22954" fill="none" stroke="black"/>
<path d="M144.105,260.516v 3.22954" fill="none" stroke="black"/>
<path d="M164.085,260.516v 3.22954" fill="none" stroke="black"/>
<path d="M184.065,257.287v 6.45908" fill="none" stroke="black"/>
<path d="M204.045,260.516v 3.22954" fill="none" stroke="black"/>
<path d="M224.025,260.516v 3.22954" fill="none" stroke="black"/>
<path d="M244.005,260.516v 3.22954" fill="none" stroke="black"/>
<path d="M263.985,260.516v 3.22954" fill="none" stroke="black"/>
<path d="M283.965,257.287v 6.45908" fill="none" stroke="black"/>
<path d="M303.944,260.516v 3.22954" fill="none" stroke="black"/>
<path d="M323.924,260.516v 3.22954" fill="none" stroke="black"/>
<path d="M343.904,260.516v 3.22954" fill="none" stroke="black"/>
<path d="M363.884,260.516v 3.22954" fill="none" stroke="black"/>
<path d="M383.864,257.287v 6.45908" fill="none" stroke="black"/>
<path d="M403.844,260.516v 3.22954" fill="none" stroke="black"/>
<path d="M423.824,260.516v 3.22954" fill="none" stroke="black"/>
<path d="M443.804,260.516v 3.22954" fill="none" stroke="black"/>
<path d="M463.784,260.516v 3.22954" fill="none" stroke="black"/>
<path d="M483.763,257.287v 6.45908" fill="none" stroke="black"/>
<path d="M84.1658,257.287v 6.45908" fill="none" stroke="black"/>
<path d="M64.1859,260.516v 3.22954" fill="none" stroke="black"/>
<path d="M483.763,257.287v 6.45908" fill="none" stroke="black"/>
<path d="M503.743,260.516v 3.22954" fill="none" stroke="black"/>
<text x="82.7699" y="264.73" fill="black" font-size="0.5" font-family="Helvetica">
100
</text>
<text x="82.7699" y="264.73" fill="black" font-size="0.5" font-family="Times">
&#8722;
</text>
<text x="182.145" y="264.73" fill="black" font-size="0.5" font-family="Helvetica">
50
</text>
<text x="182.145" y="264.73" fill="black" font-size="0.5" font-family="Times">
&#8722;
</text>
<text x="283.15" y="264.73" fill="black" font-size="0.5" font-family="Helvetica">
0
</text>
<text x="381.711" y="264.73" fill="black" font-size="0.5" font-family="Helvetica">
50
</text>
<text x="482.716" y="264.73" fill="black" font-size="0.5" font-family="Helvetica">
100
</text>
<path d="M57.1929,263.746v -236.833" fill="none" stroke="black"/>
<g transform="rotate(-90,17.6056,178.387)">
<text x="17.6056" y="178.387" fill="black" font-size="15.8082" font-family="Helvetica">
Number of candidates
</text>
</g>
<path d="M62.1819,263.746h -4.98898" fill="none" stroke="black"/>
<path d="M59.6874,255.392h -2.49449" fill="none" stroke="black"/>
<path d="M59.6874,247.038h -2.49449" fill="none" stroke="black"/>
<path d="M59.6874,238.684h -2.49449" fill="none" stroke="black"/>
<path d="M59.6874,230.33h -2.49449" fill="none" stroke="black"/>
<path d="M62.1819,221.976h -4.98898" fill="none" stroke="black"/>
<path d="M59.6874,213.622h -2.49449" fill="none" stroke="black"/>
<path d="M59.6874,205.269h -2.49449" fill="none" stroke="black"/>
<path d="M59.6874,196.915h -2.49449" fill="none" stroke="black"/>
<path d="M59.6874,188.561h -2.49449" fill="none" stroke="black"/>
<path d="M62.1819,180.207h -4.98898" fill="none" stroke="black"/>
<path d="M59.6874,171.853h -2.49449" fill="none" stroke="black"/>
<path d="M59.6874,163.499h -2.49449" fill="none" stroke="black"/>
<path d="M59.6874,155.145h -2.49449" fill="none" stroke="black"/>
<path d="M59.6874,146.791h -2.49449" fill="none" stroke="black"/>
<path d="M62.1819,138.437h -4.98898" fill="none" stroke="black"/>
<path d="M59.6874,130.083h -2.49449" fill="none" stroke="black"/>
<path d="M59.6874,121.73h -2.49449" fill="none" stroke="black"/>
<path d="M59.6874,113.376h -2.49449" fill="none" stroke="black"/>
<path d="M59.6874,105.022h -2.49449" fill="none" stroke="black"/>
<path d="M62.1819,96.6679h -4.98898" fill="none" stroke="black"/>
<path d="M59.6874,88.314h -2.49449" fill="none" stroke="black"/>
<path d="M59.6874,79.9601h -2.49449" fill="none" stroke="black"/>
<path d="M59.6874,71.6062h -2.49449" fill="none" stroke="black"/>
<path d="M59.6874,63.2523h -2.49449" fill="none" stroke="black"/>
<path d="M62.1819,54.8984h -4.98898" fill="none" stroke="black"/>
<path d="M62.1819,54.8984h -4.98898" fill="none" stroke="black"/>
<path d="M59.6874,46.5445h -2.49449" fill="none" stroke="black"/>
<path d="M59.6874,38.1906h -2.49449" fill="none" stroke="black"/>
<path d="M59.6874,29.8367h -2.49449" fill="none" stroke="black"/>
<text x="47.7441" y="267.988" fill="black" font-size="11.6108" font-family="Helvetica">
0
</text>
<text x="47.7441" y="226.446" fill="black" font-size="11.6108" font-family="Helvetica">
5
</text>
<text x="41.2277" y="184.904" fill="black" font-size="11.6108" font-family="Helvetica">
10
</text>
<text x="41.2277" y="142.547" fill="black" font-size="11.6108" font-family="Helvetica">
15
</text>
<text x="41.2277" y="101.005" fill="black" font-size="11.6108" font-family="Helvetica">
20
</text>
<text x="41.2277" y="59.4624" fill="black" font-size="11.6108" font-family="Helvetica">
25
</text>
<path d="M57.1929,263.746h 37.9618v -8.3539h 1.99799v 8.3539h 21.9779v -8.3539h 1.99799v 8.3539h 5.99396v -16.7078h 1.99799v 16.7078h 5.99396v -8.3539h 1.99799v 8.3539h 7.99195v -33.4156h 1.99799v 33.4156h 9.98994v -50.1234h 1.99799v 50.1234h
 5.99396v -33.4156h 1.99799v 33.4156h 5.99396v -58.4773h 1.99799v 58.4773h 3.99598v -58.4773h 1.99799v 58.4773h 5.99396v -33.4156h 1.99799v 33.4156h 1.99799v -33.4156h 1.99799v 33.4156h 3.99598v -50.1234h 1.99799v 50.1234h 1.99799v -16.7078h 1.99799v
 16.7078h 1.99799v -108.601h 1.99799v 108.601h 1.99799v -108.601h 1.99799v 108.601h 1.99799v -100.247h 1.99799v 100.247h 1.99799v -66.8312h 1.99799v 66.8312h 1.99799v -116.955h 1.99799v 116.955h 1.99799v -41.7695h 1.99799v 41.7695h 1.99799v -91.8929h
 1.99799v 91.8929h 1.99799v -158.724h 1.99799v 158.724h 1.99799v -116.955h 1.99799v 116.955h 1.99799v -125.308h 1.99799v 125.308h 1.99799v -142.016h 1.99799v 142.016h 1.99799v -125.308h 1.99799v 125.308h 1.99799v -133.662h 1.99799v 133.662h 1.99799v
 -100.247h 1.99799v 100.247h 1.99799v -142.016h 1.99799v 142.016h 1.99799v -175.432h 1.99799v 175.432h 1.99799v -175.432h 1.99799v 175.432h 1.99799v -158.724h 1.99799v 158.724h 1.99799v -200.494h 1.99799v 200.494h 1.99799v -225.555h 1.99799v 225.555h
 1.99799v -208.847h 1.99799v 208.847h 1.99799v -183.786h 1.99799v 183.786h 1.99799v -158.724h 1.99799v 158.724h 1.99799v -167.078h 1.99799v 167.078h 1.99799v -183.786h 1.99799v 183.786h 1.99799v -125.308h 1.99799v 125.308h 1.99799v -125.308h 1.99799v
 125.308h 1.99799v -142.016h 1.99799v 142.016h 1.99799v -108.601h 1.99799v 108.601h 1.99799v -83.539h 1.99799v 83.539h 1.99799v -75.1851h 1.99799v 75.1851h 1.99799v -167.078h 1.99799v 167.078h 1.99799v -150.37h 1.99799v 150.37h 1.99799v -167.078h
 1.99799v 167.078h 1.99799v -116.955h 1.99799v 116.955h 1.99799v -91.8929h 1.99799v 91.8929h 1.99799v -108.601h 1.99799v 108.601h 1.99799v -167.078h 1.99799v 167.078h 1.99799v -183.786h 1.99799v 183.786h 1.99799v -133.662h 1.99799v 133.662h 1.99799v
 -41.7695h 1.99799v 41.7695h 1.99799v -83.539h 1.99799v 83.539h 3.99598v -50.1234h 1.99799v 50.1234h 1.99799v -58.4773h 1.99799v 58.4773h 5.99396v -75.1851h 1.99799v 75.1851h 3.99598v -142.016h 1.99799v 142.016h 5.99396v -33.4156h 1.99799v 33.4156h
 5.99396v -125.308h 1.99799v 125.308h 9.98994v -33.4156h 1.99799v 33.4156h 7.99195v -16.7078h 1.99799v 16.7078h 13.9859v -8.3539h 1.99799v 8.3539h 5.99396v -8.3539h 1.99799v 8.3539h 13.9859v -8.3539h 1.99799v 8.3539h 37.9618" fill="none"
 stroke="#ff0000"/>
<text x="387.413" y="23.622" fill="black" font-size="9.79954" font-family="Helvetica">
Hardware
</text>
<g stroke="black" stroke-width="1" fill="black">
<rect x="376.587" y="18.5555" width="3.25821" height="3.25821"/>
</g>
<text x="463.166" y="23.622" fill="black" font-size="9.79954" font-family="Helvetica">
Emulator
</text>
<path d="M447.68,20.1846h 12.8976" fill="none" stroke="#ff0000"/>
<text x="248.939" y="22.8075" fill="black" font-size="12.8453" font-family="Helvetica" font-style="oblique">
 = 13 TeV, SingleMu
</text>
<text x="242.422" y="22.8075" fill="black" font-size="12.8453" font-family="Helvetica" font-style="oblique">
s
</text>
<path d="M238.35,15.4765l 0.814553, 8.14553" fill="none" stroke="black"/>
<path d="M239.164,23.622l 1.62911, -12.2183" fill="none" stroke="black"/>
<path d="M240.793,11.4037h 8.14553" fill="none" stroke="black"/>
<text x="155.265" y="22.8075" fill="black" font-size="12.8453" font-family="Helvetica" font-style="oblique">
: Run 284113, 
</text>
<text x="56.7042" y="22.8075" fill="black" font-size="12.8453" font-family="Helvetica" font-weight="bold" font-style="oblique">
CMS Preliminary
</text>
<rect x="0.5" y="269.128" width="566.929" height="96.1173" fill="white"/>
<rect x="57.1929" y="269.128" width="453.543" height="58.6315" fill="white"/>
<rect x="57.1929" y="269.128" width="453.543" height="58.6315" fill="none" stroke="black"/>
<path d="M57.1929,327.76h 453.543" fill="none" stroke="black"/>
<path d="M84.1658,269.128v 58.6315" fill="none" stroke="black" stroke-dasharray=" 1, 2"/>
<path d="M184.065,269.128v 58.6315" fill="none" stroke="black" stroke-dasharray=" 1, 2"/>
<path d="M283.965,269.128v 58.6315" fill="none" stroke="black" stroke-dasharray=" 1, 2"/>
<path d="M383.864,269.128v 58.6315" fill="none" stroke="black" stroke-dasharray=" 1, 2"/>
<path d="M483.763,269.128v 58.6315" fill="none" stroke="black" stroke-dasharray=" 1, 2"/>
<path d="M84.1658,269.128v 58.6315" fill="none" stroke="black" stroke-dasharray=" 1, 2"/>
<path d="M483.763,269.128v 58.6315" fill="none" stroke="black" stroke-dasharray=" 1, 2"/>
<path d="M57.1929,327.76v -58.6315" fill="none" stroke="black"/>
<path d="M510.736,322.874h -453.543" fill="none" stroke="black" stroke-dasharray=" 1, 2"/>
<path d="M510.736,310.659h -453.543" fill="none" stroke="black" stroke-dasharray=" 1, 2"/>
<path d="M510.736,298.444h -453.543" fill="none" stroke="black" stroke-dasharray=" 1, 2"/>
<path d="M510.736,286.229h -453.543" fill="none" stroke="black" stroke-dasharray=" 1, 2"/>
<path d="M510.736,274.014h -453.543" fill="none" stroke="black" stroke-dasharray=" 1, 2"/>
<path d="M510.736,322.874h -453.543" fill="none" stroke="black" stroke-dasharray=" 1, 2"/>
<path d="M510.736,274.014h -453.543" fill="none" stroke="black" stroke-dasharray=" 1, 2"/>
<g stroke="black" stroke-width="1" fill="black">
<rect x="94.5246" y="296.815" width="3.25821" height="3.25821"/>
<rect x="118.5" y="296.815" width="3.25821" height="3.25821"/>
<rect x="126.492" y="296.815" width="3.25821" height="3.25821"/>
<rect x="134.484" y="296.815" width="3.25821" height="3.25821"/>
<rect x="144.474" y="296.815" width="3.25821" height="3.25821"/>
<rect x="156.462" y="296.815" width="3.25821" height="3.25821"/>
<rect x="164.454" y="296.815" width="3.25821" height="3.25821"/>
<rect x="172.446" y="296.815" width="3.25821" height="3.25821"/>
<rect x="178.44" y="296.815" width="3.25821" height="3.25821"/>
<rect x="186.432" y="296.815" width="3.25821" height="3.25821"/>
<rect x="190.428" y="296.815" width="3.25821" height="3.25821"/>
<rect x="196.422" y="296.815" width="3.25821" height="3.25821"/>
<rect x="200.418" y="296.815" width="3.25821" height="3.25821"/>
<rect x="204.414" y="296.815" width="3.25821" height="3.25821"/>
<rect x="208.41" y="296.815" width="3.25821" height="3.25821"/>
<rect x="212.406" y="296.815" width="3.25821" height="3.25821"/>
<rect x="216.402" y="296.815" width="3.25821" height="3.25821"/>
<rect x="220.398" y="296.815" width="3.25821" height="3.25821"/>
<rect x="224.394" y="296.815" width="3.25821" height="3.25821"/>
<rect x="228.39" y="296.815" width="3.25821" height="3.25821"/>
<rect x="232.386" y="296.815" width="3.25821" height="3.25821"/>
<rect x="236.382" y="296.815" width="3.25821" height="3.25821"/>
<rect x="240.378" y="296.815" width="3.25821" height="3.25821"/>
<rect x="244.374" y="296.815" width="3.25821" height="3.25821"/>
<rect x="248.37" y="296.815" width="3.25821" height="3.25821"/>
<rect x="252.366" y="296.815" width="3.25821" height="3.25821"/>
<rect x="256.362" y="296.815" width="3.25821" height="3.25821"/>
<rect x="260.358" y="296.815" width="3.25821" height="3.25821"/>
<rect x="264.354" y="296.815" width="3.25821" height="3.25821"/>
<rect x="268.35" y="296.815" width="3.25821" height="3.25821"/>
<rect x="272.346" y="296.815" width="3.25821" height="3.25821"/>
<rect x="276.341" y="296.815" width="3.25821" height="3.25821"/>
<rect x="280.337" y="296.815" width="3.25821" height="3.25821"/>
<rect x="284.333" y="296.815" width="3.25821" height="3.25821"/>
<rect x="288.329" y="296.815" width="3.25821" height="3.25821"/>
<rect x="292.325" y="296.815" width="3.25821" height="3.25821"/>
<rect x="296.321" y="296.815" width="3.25821" height="3.25821"/>
<rect x="300.317" y="296.815" width="3.25821" height="3.25821"/>
<rect x="304.313" y="296.815" width="3.25821" height="3.25821"/>
<rect x="308.309" y="296.815" width="3.25821" height="3.25821"/>
<rect x="312.305" y="296.815" width="3.25821" height="3.25821"/>
<rect x="316.301" y="296.815" width="3.25821" height="3.25821"/>
<rect x="320.297" y="296.815" width="3.25821" height="3.25821"/>
<rect x="324.293" y="296.815" width="3.25821" height="3.25821"/>
<rect x="328.289" y="296.815" width="3.25821" height="3.25821"/>
<rect x="332.285" y="296.815" width="3.25821" height="3.25821"/>
<rect x="336.281" y="296.815" width="3.25821" height="3.25821"/>
<rect x="340.277" y="296.815" width="3.25821" height="3.25821"/>
<rect x="344.273" y="296.815" width="3.25821" height="3.25821"/>
<rect x="348.269" y="296.815" width="3.25821" height="3.25821"/>
</g>
<g stroke="black" stroke-width="1" fill="black">
<rect x="348.269" y="296.815" width="3.25821" height="3.25821"/>
<rect x="352.265" y="296.815" width="3.25821" height="3.25821"/>
<rect x="356.261" y="296.815" width="3.25821" height="3.25821"/>
<rect x="360.257" y="296.815" width="3.25821" height="3.25821"/>
<rect x="364.253" y="296.815" width="3.25821" height="3.25821"/>
<rect x="368.249" y="296.815" width="3.25821" height="3.25821"/>
<rect x="374.243" y="296.815" width="3.25821" height="3.25821"/>
<rect x="378.239" y="296.815" width="3.25821" height="3.25821"/>
<rect x="386.231" y="296.815" width="3.25821" height="3.25821"/>
<rect x="392.225" y="296.815" width="3.25821" height="3.25821"/>
<rect x="400.217" y="296.815" width="3.25821" height="3.25821"/>
<rect x="408.209" y="296.815" width="3.25821" height="3.25821"/>
<rect x="420.197" y="296.815" width="3.25821" height="3.25821"/>
<rect x="430.187" y="296.815" width="3.25821" height="3.25821"/>
<rect x="446.17" y="296.815" width="3.25821" height="3.25821"/>
<rect x="454.162" y="296.815" width="3.25821" height="3.25821"/>
<rect x="470.146" y="296.815" width="3.25821" height="3.25821"/>
</g>
<path d="M57.1929,327.76h 453.543" fill="none" stroke="black"/>
<text x="503.079" y="356.774" fill="black" font-size="13.7271" font-family="Times">
&#0951;
</text>
<text x="380.896" y="356.774" fill="black" font-size="13.7271" font-family="Helvetica">
Level-1 Trigger Jet i
</text>
<path d="M84.1658,325.453v 2.30681" fill="none" stroke="black"/>
<path d="M104.146,326.607v 1.15341" fill="none" stroke="black"/>
<path d="M124.126,326.607v 1.15341" fill="none" stroke="black"/>
<path d="M144.105,326.607v 1.15341" fill="none" stroke="black"/>
<path d="M164.085,326.607v 1.15341" fill="none" stroke="black"/>
<path d="M184.065,325.453v 2.30681" fill="none" stroke="black"/>
<path d="M204.045,326.607v 1.15341" fill="none" stroke="black"/>
<path d="M224.025,326.607v 1.15341" fill="none" stroke="black"/>
<path d="M244.005,326.607v 1.15341" fill="none" stroke="black"/>
<path d="M263.985,326.607v 1.15341" fill="none" stroke="black"/>
<path d="M283.965,325.453v 2.30681" fill="none" stroke="black"/>
<path d="M303.944,326.607v 1.15341" fill="none" stroke="black"/>
<path d="M323.924,326.607v 1.15341" fill="none" stroke="black"/>
<path d="M343.904,326.607v 1.15341" fill="none" stroke="black"/>
<path d="M363.884,326.607v 1.15341" fill="none" stroke="black"/>
<path d="M383.864,325.453v 2.30681" fill="none" stroke="black"/>
<path d="M403.844,326.607v 1.15341" fill="none" stroke="black"/>
<path d="M423.824,326.607v 1.15341" fill="none" stroke="black"/>
<path d="M443.804,326.607v 1.15341" fill="none" stroke="black"/>
<path d="M463.784,326.607v 1.15341" fill="none" stroke="black"/>
<path d="M483.763,325.453v 2.30681" fill="none" stroke="black"/>
<path d="M84.1658,325.453v 2.30681" fill="none" stroke="black"/>
<path d="M64.1859,326.607v 1.15341" fill="none" stroke="black"/>
<path d="M483.763,325.453v 2.30681" fill="none" stroke="black"/>
<path d="M503.743,326.607v 1.15341" fill="none" stroke="black"/>
<text x="77.068" y="340.483" fill="black" font-size="11.0817" font-family="Helvetica">
100
</text>
<text x="71.3661" y="340.483" fill="black" font-size="11.0817" font-family="Times">
&#8722;
</text>
<text x="180.516" y="340.483" fill="black" font-size="11.0817" font-family="Helvetica">
50
</text>
<text x="174.814" y="340.483" fill="black" font-size="11.0817" font-family="Times">
&#8722;
</text>
<text x="280.706" y="340.483" fill="black" font-size="11.0817" font-family="Helvetica">
0
</text>
<text x="377.638" y="340.483" fill="black" font-size="11.0817" font-family="Helvetica">
50
</text>
<text x="474.57" y="340.483" fill="black" font-size="11.0817" font-family="Helvetica">
100
</text>
<path d="M57.1929,327.76v -58.6315" fill="none" stroke="black"/>
<g transform="rotate(-90,21.6784,321.749)">
<text x="21.6784" y="321.749" fill="black" font-size="13.7271" font-family="Helvetica">
HW/EM
</text>
</g>
<path d="M60.6512,322.874h -3.45827" fill="none" stroke="black"/>
<path d="M58.0575,319.82h -0.864567" fill="none" stroke="black"/>
<path d="M58.9221,316.767h -1.72913" fill="none" stroke="black"/>
<path d="M58.0575,313.713h -0.864567" fill="none" stroke="black"/>
<path d="M60.6512,310.659h -3.45827" fill="none" stroke="black"/>
<path d="M58.0575,307.605h -0.864567" fill="none" stroke="black"/>
<path d="M58.9221,304.552h -1.72913" fill="none" stroke="black"/>
<path d="M58.0575,301.498h -0.864567" fill="none" stroke="black"/>
<path d="M60.6512,298.444h -3.45827" fill="none" stroke="black"/>
<path d="M58.0575,295.39h -0.864567" fill="none" stroke="black"/>
<path d="M58.9221,292.337h -1.72913" fill="none" stroke="black"/>
<path d="M58.0575,289.283h -0.864567" fill="none" stroke="black"/>
<path d="M60.6512,286.229h -3.45827" fill="none" stroke="black"/>
<path d="M58.0575,283.176h -0.864567" fill="none" stroke="black"/>
<path d="M58.9221,280.122h -1.72913" fill="none" stroke="black"/>
<path d="M58.0575,277.068h -0.864567" fill="none" stroke="black"/>
<path d="M60.6512,274.014h -3.45827" fill="none" stroke="black"/>
<path d="M60.6512,322.874h -3.45827" fill="none" stroke="black"/>
<path d="M58.0575,325.928h -0.864567" fill="none" stroke="black"/>
<path d="M60.6512,274.014h -3.45827" fill="none" stroke="black"/>
<path d="M58.0575,270.961h -0.864567" fill="none" stroke="black"/>
<text x="38.784" y="326.636" fill="black" font-size="11.0817" font-family="Helvetica">
0.8
</text>
<text x="38.784" y="314.418" fill="black" font-size="11.0817" font-family="Helvetica">
0.9
</text>
<text x="49.3732" y="303.014" fill="black" font-size="11.0817" font-family="Helvetica">
1
</text>
<text x="40.4131" y="290.796" fill="black" font-size="11.0817" font-family="Helvetica">
1.1
</text>
<text x="38.784" y="278.577" fill="black" font-size="11.0817" font-family="Helvetica">
1.2
</text>
<path d="M57.1929,298.444h 453.543" fill="none" stroke="#0000ff"/></svg>
