<?xml version="1.0" standalone="no"?>
<svg width="567.429" height="384.969" viewBox="0 0 567.429 384.969" xmlns="http://www.w3.org/2000/svg">
<title>
compHwEmu_Taus_TauEta.svg
</title>
<desc>
Creator: ROOT Version 6.06/01
CreationDate: Mon Dec  5 11:09:30 2016</desc>
<defs>
</defs>
<rect x="0.5" y="0" width="566.929" height="384.469" fill="white"/>
<rect x="0.5" y="0" width="566.929" height="269.128" fill="white"/>
<rect x="57.1929" y="26.9128" width="453.543" height="236.833" fill="white"/>
<rect x="57.1929" y="26.9128" width="453.543" height="236.833" fill="none" stroke="black"/>
<path d="M57.1929,263.746h 453.543" fill="none" stroke="black"/>
<path d="M65.3895,26.9128v 236.833" fill="none" stroke="black" stroke-dasharray=" 1, 2"/>
<path d="M120.033,26.9128v 236.833" fill="none" stroke="black" stroke-dasharray=" 1, 2"/>
<path d="M174.677,26.9128v 236.833" fill="none" stroke="black" stroke-dasharray=" 1, 2"/>
<path d="M229.321,26.9128v 236.833" fill="none" stroke="black" stroke-dasharray=" 1, 2"/>
<path d="M283.965,26.9128v 236.833" fill="none" stroke="black" stroke-dasharray=" 1, 2"/>
<path d="M338.608,26.9128v 236.833" fill="none" stroke="black" stroke-dasharray=" 1, 2"/>
<path d="M393.252,26.9128v 236.833" fill="none" stroke="black" stroke-dasharray=" 1, 2"/>
<path d="M447.896,26.9128v 236.833" fill="none" stroke="black" stroke-dasharray=" 1, 2"/>
<path d="M502.54,26.9128v 236.833" fill="none" stroke="black" stroke-dasharray=" 1, 2"/>
<path d="M65.3895,26.9128v 236.833" fill="none" stroke="black" stroke-dasharray=" 1, 2"/>
<path d="M502.54,26.9128v 236.833" fill="none" stroke="black" stroke-dasharray=" 1, 2"/>
<path d="M57.1929,263.746v -236.833" fill="none" stroke="black"/>
<g stroke="black" stroke-width="1" fill="black">
<rect x="129.333" y="218.461" width="3.25821" height="3.25821"/>
<rect x="134.797" y="233.013" width="3.25821" height="3.25821"/>
<rect x="140.262" y="211.185" width="3.25821" height="3.25821"/>
<rect x="145.726" y="218.461" width="3.25821" height="3.25821"/>
<rect x="151.19" y="225.737" width="3.25821" height="3.25821"/>
<rect x="156.655" y="233.013" width="3.25821" height="3.25821"/>
<rect x="162.119" y="218.461" width="3.25821" height="3.25821"/>
<rect x="167.584" y="247.565" width="3.25821" height="3.25821"/>
<rect x="173.048" y="167.529" width="3.25821" height="3.25821"/>
<rect x="178.512" y="160.253" width="3.25821" height="3.25821"/>
<rect x="183.977" y="174.805" width="3.25821" height="3.25821"/>
<rect x="189.441" y="203.909" width="3.25821" height="3.25821"/>
<rect x="194.905" y="116.597" width="3.25821" height="3.25821"/>
<rect x="200.37" y="225.737" width="3.25821" height="3.25821"/>
<rect x="205.834" y="167.529" width="3.25821" height="3.25821"/>
<rect x="211.299" y="123.873" width="3.25821" height="3.25821"/>
<rect x="216.763" y="145.701" width="3.25821" height="3.25821"/>
<rect x="222.227" y="167.529" width="3.25821" height="3.25821"/>
<rect x="227.692" y="123.873" width="3.25821" height="3.25821"/>
<rect x="233.156" y="152.977" width="3.25821" height="3.25821"/>
<rect x="238.62" y="131.149" width="3.25821" height="3.25821"/>
<rect x="244.085" y="160.253" width="3.25821" height="3.25821"/>
<rect x="249.549" y="131.149" width="3.25821" height="3.25821"/>
<rect x="255.014" y="116.597" width="3.25821" height="3.25821"/>
<rect x="260.478" y="87.4933" width="3.25821" height="3.25821"/>
<rect x="265.942" y="109.321" width="3.25821" height="3.25821"/>
<rect x="271.407" y="87.4933" width="3.25821" height="3.25821"/>
<rect x="276.871" y="36.5615" width="3.25821" height="3.25821"/>
<rect x="287.8" y="58.3894" width="3.25821" height="3.25821"/>
<rect x="293.264" y="102.045" width="3.25821" height="3.25821"/>
<rect x="298.729" y="123.873" width="3.25821" height="3.25821"/>
<rect x="304.193" y="123.873" width="3.25821" height="3.25821"/>
<rect x="309.657" y="94.7693" width="3.25821" height="3.25821"/>
<rect x="315.122" y="138.425" width="3.25821" height="3.25821"/>
<rect x="320.586" y="145.701" width="3.25821" height="3.25821"/>
<rect x="326.05" y="131.149" width="3.25821" height="3.25821"/>
<rect x="331.515" y="160.253" width="3.25821" height="3.25821"/>
<rect x="336.979" y="174.805" width="3.25821" height="3.25821"/>
<rect x="342.444" y="182.081" width="3.25821" height="3.25821"/>
<rect x="347.908" y="109.321" width="3.25821" height="3.25821"/>
<rect x="353.372" y="116.597" width="3.25821" height="3.25821"/>
<rect x="358.837" y="123.873" width="3.25821" height="3.25821"/>
<rect x="364.301" y="152.977" width="3.25821" height="3.25821"/>
<rect x="369.766" y="182.081" width="3.25821" height="3.25821"/>
<rect x="375.23" y="174.805" width="3.25821" height="3.25821"/>
<rect x="380.694" y="116.597" width="3.25821" height="3.25821"/>
<rect x="386.159" y="102.045" width="3.25821" height="3.25821"/>
<rect x="391.623" y="145.701" width="3.25821" height="3.25821"/>
<rect x="397.087" y="225.737" width="3.25821" height="3.25821"/>
<rect x="402.552" y="189.357" width="3.25821" height="3.25821"/>
</g>
<g stroke="black" stroke-width="1" fill="black">
<rect x="402.552" y="189.357" width="3.25821" height="3.25821"/>
<rect x="408.016" y="218.461" width="3.25821" height="3.25821"/>
<rect x="413.48" y="218.461" width="3.25821" height="3.25821"/>
<rect x="418.945" y="182.081" width="3.25821" height="3.25821"/>
<rect x="424.409" y="145.701" width="3.25821" height="3.25821"/>
<rect x="429.874" y="225.737" width="3.25821" height="3.25821"/>
<rect x="435.338" y="138.425" width="3.25821" height="3.25821"/>
</g>
<path d="M57.1929,263.746h 453.543" fill="none" stroke="black"/>
<path d="M65.3895,257.287v 6.45908" fill="none" stroke="black"/>
<path d="M76.3182,260.516v 3.22954" fill="none" stroke="black"/>
<path d="M87.247,260.516v 3.22954" fill="none" stroke="black"/>
<path d="M98.1757,260.516v 3.22954" fill="none" stroke="black"/>
<path d="M109.104,260.516v 3.22954" fill="none" stroke="black"/>
<path d="M120.033,257.287v 6.45908" fill="none" stroke="black"/>
<path d="M130.962,260.516v 3.22954" fill="none" stroke="black"/>
<path d="M141.891,260.516v 3.22954" fill="none" stroke="black"/>
<path d="M152.82,260.516v 3.22954" fill="none" stroke="black"/>
<path d="M163.748,260.516v 3.22954" fill="none" stroke="black"/>
<path d="M174.677,257.287v 6.45908" fill="none" stroke="black"/>
<path d="M185.606,260.516v 3.22954" fill="none" stroke="black"/>
<path d="M196.535,260.516v 3.22954" fill="none" stroke="black"/>
<path d="M207.463,260.516v 3.22954" fill="none" stroke="black"/>
<path d="M218.392,260.516v 3.22954" fill="none" stroke="black"/>
<path d="M229.321,257.287v 6.45908" fill="none" stroke="black"/>
<path d="M240.25,260.516v 3.22954" fill="none" stroke="black"/>
<path d="M251.178,260.516v 3.22954" fill="none" stroke="black"/>
<path d="M262.107,260.516v 3.22954" fill="none" stroke="black"/>
<path d="M273.036,260.516v 3.22954" fill="none" stroke="black"/>
<path d="M283.965,257.287v 6.45908" fill="none" stroke="black"/>
<path d="M294.893,260.516v 3.22954" fill="none" stroke="black"/>
<path d="M305.822,260.516v 3.22954" fill="none" stroke="black"/>
<path d="M316.751,260.516v 3.22954" fill="none" stroke="black"/>
<path d="M327.68,260.516v 3.22954" fill="none" stroke="black"/>
<path d="M338.608,257.287v 6.45908" fill="none" stroke="black"/>
<path d="M349.537,260.516v 3.22954" fill="none" stroke="black"/>
<path d="M360.466,260.516v 3.22954" fill="none" stroke="black"/>
<path d="M371.395,260.516v 3.22954" fill="none" stroke="black"/>
<path d="M382.323,260.516v 3.22954" fill="none" stroke="black"/>
<path d="M393.252,257.287v 6.45908" fill="none" stroke="black"/>
<path d="M404.181,260.516v 3.22954" fill="none" stroke="black"/>
<path d="M415.11,260.516v 3.22954" fill="none" stroke="black"/>
<path d="M426.038,260.516v 3.22954" fill="none" stroke="black"/>
<path d="M436.967,260.516v 3.22954" fill="none" stroke="black"/>
<path d="M447.896,257.287v 6.45908" fill="none" stroke="black"/>
<path d="M458.825,260.516v 3.22954" fill="none" stroke="black"/>
<path d="M469.753,260.516v 3.22954" fill="none" stroke="black"/>
<path d="M480.682,260.516v 3.22954" fill="none" stroke="black"/>
<path d="M491.611,260.516v 3.22954" fill="none" stroke="black"/>
<path d="M502.54,257.287v 6.45908" fill="none" stroke="black"/>
<path d="M65.3895,257.287v 6.45908" fill="none" stroke="black"/>
<path d="M502.54,257.287v 6.45908" fill="none" stroke="black"/>
<text x="63.2206" y="264.73" fill="black" font-size="0.5" font-family="Helvetica">
40
</text>
<text x="63.2206" y="264.73" fill="black" font-size="0.5" font-family="Times">
&#8722;
</text>
<text x="117.796" y="264.73" fill="black" font-size="0.5" font-family="Helvetica">
30
</text>
<text x="117.796" y="264.73" fill="black" font-size="0.5" font-family="Times">
&#8722;
</text>
<text x="172.371" y="264.73" fill="black" font-size="0.5" font-family="Helvetica">
20
</text>
<text x="172.371" y="264.73" fill="black" font-size="0.5" font-family="Times">
&#8722;
</text>
<text x="227.76" y="264.73" fill="black" font-size="0.5" font-family="Helvetica">
10
</text>
<text x="227.76" y="264.73" fill="black" font-size="0.5" font-family="Times">
&#8722;
</text>
<text x="283.15" y="264.73" fill="black" font-size="0.5" font-family="Helvetica">
0
</text>
<text x="337.725" y="264.73" fill="black" font-size="0.5" font-family="Helvetica">
10
</text>
<text x="391.486" y="264.73" fill="black" font-size="0.5" font-family="Helvetica">
20
</text>
<text x="446.061" y="264.73" fill="black" font-size="0.5" font-family="Helvetica">
30
</text>
<text x="500.636" y="264.73" fill="black" font-size="0.5" font-family="Helvetica">
40
</text>
<path d="M57.1929,263.746v -236.833" fill="none" stroke="black"/>
<g transform="rotate(-90,17.6056,178.387)">
<text x="17.6056" y="178.387" fill="black" font-size="15.8082" font-family="Helvetica">
Number of candidates
</text>
</g>
<path d="M62.1819,263.746h -4.98898" fill="none" stroke="black"/>
<path d="M59.6874,256.47h -2.49449" fill="none" stroke="black"/>
<path d="M59.6874,249.194h -2.49449" fill="none" stroke="black"/>
<path d="M59.6874,241.918h -2.49449" fill="none" stroke="black"/>
<path d="M59.6874,234.642h -2.49449" fill="none" stroke="black"/>
<path d="M62.1819,227.366h -4.98898" fill="none" stroke="black"/>
<path d="M59.6874,220.09h -2.49449" fill="none" stroke="black"/>
<path d="M59.6874,212.814h -2.49449" fill="none" stroke="black"/>
<path d="M59.6874,205.538h -2.49449" fill="none" stroke="black"/>
<path d="M59.6874,198.262h -2.49449" fill="none" stroke="black"/>
<path d="M62.1819,190.986h -4.98898" fill="none" stroke="black"/>
<path d="M59.6874,183.71h -2.49449" fill="none" stroke="black"/>
<path d="M59.6874,176.434h -2.49449" fill="none" stroke="black"/>
<path d="M59.6874,169.158h -2.49449" fill="none" stroke="black"/>
<path d="M59.6874,161.882h -2.49449" fill="none" stroke="black"/>
<path d="M62.1819,154.606h -4.98898" fill="none" stroke="black"/>
<path d="M59.6874,147.33h -2.49449" fill="none" stroke="black"/>
<path d="M59.6874,140.054h -2.49449" fill="none" stroke="black"/>
<path d="M59.6874,132.778h -2.49449" fill="none" stroke="black"/>
<path d="M59.6874,125.502h -2.49449" fill="none" stroke="black"/>
<path d="M62.1819,118.226h -4.98898" fill="none" stroke="black"/>
<path d="M59.6874,110.95h -2.49449" fill="none" stroke="black"/>
<path d="M59.6874,103.674h -2.49449" fill="none" stroke="black"/>
<path d="M59.6874,96.3984h -2.49449" fill="none" stroke="black"/>
<path d="M59.6874,89.1224h -2.49449" fill="none" stroke="black"/>
<path d="M62.1819,81.8465h -4.98898" fill="none" stroke="black"/>
<path d="M59.6874,74.5705h -2.49449" fill="none" stroke="black"/>
<path d="M59.6874,67.2945h -2.49449" fill="none" stroke="black"/>
<path d="M59.6874,60.0185h -2.49449" fill="none" stroke="black"/>
<path d="M59.6874,52.7426h -2.49449" fill="none" stroke="black"/>
<path d="M62.1819,45.4666h -4.98898" fill="none" stroke="black"/>
<path d="M62.1819,45.4666h -4.98898" fill="none" stroke="black"/>
<path d="M59.6874,38.1906h -2.49449" fill="none" stroke="black"/>
<path d="M59.6874,30.9146h -2.49449" fill="none" stroke="black"/>
<text x="47.7441" y="267.988" fill="black" font-size="11.6108" font-family="Helvetica">
0
</text>
<text x="47.7441" y="232.148" fill="black" font-size="11.6108" font-family="Helvetica">
5
</text>
<text x="41.2277" y="195.493" fill="black" font-size="11.6108" font-family="Helvetica">
10
</text>
<text x="41.2277" y="158.838" fill="black" font-size="11.6108" font-family="Helvetica">
15
</text>
<text x="41.2277" y="122.998" fill="black" font-size="11.6108" font-family="Helvetica">
20
</text>
<text x="41.2277" y="86.3427" fill="black" font-size="11.6108" font-family="Helvetica">
25
</text>
<text x="41.2277" y="49.6878" fill="black" font-size="11.6108" font-family="Helvetica">
30
</text>
<path d="M57.1929,263.746h 71.0369v -43.6559h 5.46438v 14.552h 5.46438v -21.8279h 5.46438v 7.27598h 5.46438v 7.27598h 5.46438v 7.27598h 5.46438v -14.552h 5.46438v 29.1039h 5.46438v -80.0357h 5.46438v -7.27598h 5.46438v 14.552h 5.46438v 29.1039h
 5.46438v -87.3117h 5.46438v 109.14h 5.46438v -58.2078h 5.46438v -43.6559h 5.46438v 21.8279h 5.46438v 21.8279h 5.46438v -43.6559h 5.46438v 29.1039h 5.46438v -21.8279h 5.46438v 29.1039h 5.46438v -29.1039h 5.46438v -14.552h 5.46438v -29.1039h 5.46438v
 21.8279h 5.46438v -21.8279h 5.46438v -50.9318h 5.46438v 225.555h 5.46438v -203.727h 5.46438v 43.6559h 5.46438v 21.8279h 10.9288v -29.1039h 5.46438v 43.6559h 5.46438v 7.27598h 5.46438v -14.552h 5.46438v 29.1039h 5.46438v 14.552h 5.46438v 7.27598h
 5.46438v -72.7598h 5.46438v 7.27598h 5.46438v 7.27598h 5.46438v 29.1039h 5.46438v 29.1039h 5.46438v -7.27598h 5.46438v -58.2078h 5.46438v -14.552h 5.46438v 43.6559h 5.46438v 80.0357h 5.46438v -36.3799h 5.46438v 29.1039h 10.9288v -36.3799h 5.46438v
 -36.3799h 5.46438v 80.0357h 5.46438v -87.3117h 5.46438v 123.692h 71.0369" fill="none" stroke="#ff0000"/>
<text x="387.413" y="23.622" fill="black" font-size="9.79954" font-family="Helvetica">
Hardware
</text>
<g stroke="black" stroke-width="1" fill="black">
<rect x="376.587" y="18.5555" width="3.25821" height="3.25821"/>
</g>
<text x="463.166" y="23.622" fill="black" font-size="9.79954" font-family="Helvetica">
Emulator
</text>
<path d="M447.68,20.1846h 12.8976" fill="none" stroke="#ff0000"/>
<text x="248.939" y="22.8075" fill="black" font-size="12.8453" font-family="Helvetica" font-style="oblique">
 = 13 TeV, SingleMu
</text>
<text x="242.422" y="22.8075" fill="black" font-size="12.8453" font-family="Helvetica" font-style="oblique">
s
</text>
<path d="M238.35,15.4765l 0.814553, 8.14553" fill="none" stroke="black"/>
<path d="M239.164,23.622l 1.62911, -12.2183" fill="none" stroke="black"/>
<path d="M240.793,11.4037h 8.14553" fill="none" stroke="black"/>
<text x="155.265" y="22.8075" fill="black" font-size="12.8453" font-family="Helvetica" font-style="oblique">
: Run 284113, 
</text>
<text x="56.7042" y="22.8075" fill="black" font-size="12.8453" font-family="Helvetica" font-weight="bold" font-style="oblique">
CMS Preliminary
</text>
<rect x="0.5" y="269.128" width="566.929" height="96.1173" fill="white"/>
<rect x="57.1929" y="269.128" width="453.543" height="58.6315" fill="white"/>
<rect x="57.1929" y="269.128" width="453.543" height="58.6315" fill="none" stroke="black"/>
<path d="M57.1929,327.76h 453.543" fill="none" stroke="black"/>
<path d="M65.3895,269.128v 58.6315" fill="none" stroke="black" stroke-dasharray=" 1, 2"/>
<path d="M120.033,269.128v 58.6315" fill="none" stroke="black" stroke-dasharray=" 1, 2"/>
<path d="M174.677,269.128v 58.6315" fill="none" stroke="black" stroke-dasharray=" 1, 2"/>
<path d="M229.321,269.128v 58.6315" fill="none" stroke="black" stroke-dasharray=" 1, 2"/>
<path d="M283.965,269.128v 58.6315" fill="none" stroke="black" stroke-dasharray=" 1, 2"/>
<path d="M338.608,269.128v 58.6315" fill="none" stroke="black" stroke-dasharray=" 1, 2"/>
<path d="M393.252,269.128v 58.6315" fill="none" stroke="black" stroke-dasharray=" 1, 2"/>
<path d="M447.896,269.128v 58.6315" fill="none" stroke="black" stroke-dasharray=" 1, 2"/>
<path d="M502.54,269.128v 58.6315" fill="none" stroke="black" stroke-dasharray=" 1, 2"/>
<path d="M65.3895,269.128v 58.6315" fill="none" stroke="black" stroke-dasharray=" 1, 2"/>
<path d="M502.54,269.128v 58.6315" fill="none" stroke="black" stroke-dasharray=" 1, 2"/>
<path d="M57.1929,327.76v -58.6315" fill="none" stroke="black"/>
<path d="M510.736,322.874h -453.543" fill="none" stroke="black" stroke-dasharray=" 1, 2"/>
<path d="M510.736,310.659h -453.543" fill="none" stroke="black" stroke-dasharray=" 1, 2"/>
<path d="M510.736,298.444h -453.543" fill="none" stroke="black" stroke-dasharray=" 1, 2"/>
<path d="M510.736,286.229h -453.543" fill="none" stroke="black" stroke-dasharray=" 1, 2"/>
<path d="M510.736,274.014h -453.543" fill="none" stroke="black" stroke-dasharray=" 1, 2"/>
<path d="M510.736,322.874h -453.543" fill="none" stroke="black" stroke-dasharray=" 1, 2"/>
<path d="M510.736,274.014h -453.543" fill="none" stroke="black" stroke-dasharray=" 1, 2"/>
<g stroke="black" stroke-width="1" fill="black">
<rect x="129.333" y="296.815" width="3.25821" height="3.25821"/>
<rect x="134.797" y="296.815" width="3.25821" height="3.25821"/>
<rect x="140.262" y="296.815" width="3.25821" height="3.25821"/>
<rect x="145.726" y="296.815" width="3.25821" height="3.25821"/>
<rect x="151.19" y="296.815" width="3.25821" height="3.25821"/>
<rect x="156.655" y="296.815" width="3.25821" height="3.25821"/>
<rect x="162.119" y="296.815" width="3.25821" height="3.25821"/>
<rect x="167.584" y="296.815" width="3.25821" height="3.25821"/>
<rect x="173.048" y="296.815" width="3.25821" height="3.25821"/>
<rect x="178.512" y="296.815" width="3.25821" height="3.25821"/>
<rect x="183.977" y="296.815" width="3.25821" height="3.25821"/>
<rect x="189.441" y="296.815" width="3.25821" height="3.25821"/>
<rect x="194.905" y="296.815" width="3.25821" height="3.25821"/>
<rect x="200.37" y="296.815" width="3.25821" height="3.25821"/>
<rect x="205.834" y="296.815" width="3.25821" height="3.25821"/>
<rect x="211.299" y="296.815" width="3.25821" height="3.25821"/>
<rect x="216.763" y="296.815" width="3.25821" height="3.25821"/>
<rect x="222.227" y="296.815" width="3.25821" height="3.25821"/>
<rect x="227.692" y="296.815" width="3.25821" height="3.25821"/>
<rect x="233.156" y="296.815" width="3.25821" height="3.25821"/>
<rect x="238.62" y="296.815" width="3.25821" height="3.25821"/>
<rect x="244.085" y="296.815" width="3.25821" height="3.25821"/>
<rect x="249.549" y="296.815" width="3.25821" height="3.25821"/>
<rect x="255.014" y="296.815" width="3.25821" height="3.25821"/>
<rect x="260.478" y="296.815" width="3.25821" height="3.25821"/>
<rect x="265.942" y="296.815" width="3.25821" height="3.25821"/>
<rect x="271.407" y="296.815" width="3.25821" height="3.25821"/>
<rect x="276.871" y="296.815" width="3.25821" height="3.25821"/>
<rect x="287.8" y="296.815" width="3.25821" height="3.25821"/>
<rect x="293.264" y="296.815" width="3.25821" height="3.25821"/>
<rect x="298.729" y="296.815" width="3.25821" height="3.25821"/>
<rect x="304.193" y="296.815" width="3.25821" height="3.25821"/>
<rect x="309.657" y="296.815" width="3.25821" height="3.25821"/>
<rect x="315.122" y="296.815" width="3.25821" height="3.25821"/>
<rect x="320.586" y="296.815" width="3.25821" height="3.25821"/>
<rect x="326.05" y="296.815" width="3.25821" height="3.25821"/>
<rect x="331.515" y="296.815" width="3.25821" height="3.25821"/>
<rect x="336.979" y="296.815" width="3.25821" height="3.25821"/>
<rect x="342.444" y="296.815" width="3.25821" height="3.25821"/>
<rect x="347.908" y="296.815" width="3.25821" height="3.25821"/>
<rect x="353.372" y="296.815" width="3.25821" height="3.25821"/>
<rect x="358.837" y="296.815" width="3.25821" height="3.25821"/>
<rect x="364.301" y="296.815" width="3.25821" height="3.25821"/>
<rect x="369.766" y="296.815" width="3.25821" height="3.25821"/>
<rect x="375.23" y="296.815" width="3.25821" height="3.25821"/>
<rect x="380.694" y="296.815" width="3.25821" height="3.25821"/>
<rect x="386.159" y="296.815" width="3.25821" height="3.25821"/>
<rect x="391.623" y="296.815" width="3.25821" height="3.25821"/>
<rect x="397.087" y="296.815" width="3.25821" height="3.25821"/>
<rect x="402.552" y="296.815" width="3.25821" height="3.25821"/>
</g>
<g stroke="black" stroke-width="1" fill="black">
<rect x="402.552" y="296.815" width="3.25821" height="3.25821"/>
<rect x="408.016" y="296.815" width="3.25821" height="3.25821"/>
<rect x="413.48" y="296.815" width="3.25821" height="3.25821"/>
<rect x="418.945" y="296.815" width="3.25821" height="3.25821"/>
<rect x="424.409" y="296.815" width="3.25821" height="3.25821"/>
<rect x="429.874" y="296.815" width="3.25821" height="3.25821"/>
<rect x="435.338" y="296.815" width="3.25821" height="3.25821"/>
</g>
<path d="M57.1929,327.76h 453.543" fill="none" stroke="black"/>
<text x="503.079" y="356.774" fill="black" font-size="13.7271" font-family="Times">
&#0951;
</text>
<text x="496.563" y="356.774" fill="black" font-size="13.7271" font-family="Helvetica">
 i
</text>
<text x="490.047" y="356.774" fill="black" font-size="13.7271" font-family="Times">
&#0964;
</text>
<text x="391.486" y="356.774" fill="black" font-size="13.7271" font-family="Helvetica">
Level-1 Trigger 
</text>
<path d="M65.3895,325.453v 2.30681" fill="none" stroke="black"/>
<path d="M76.3182,326.607v 1.15341" fill="none" stroke="black"/>
<path d="M87.247,326.607v 1.15341" fill="none" stroke="black"/>
<path d="M98.1757,326.607v 1.15341" fill="none" stroke="black"/>
<path d="M109.104,326.607v 1.15341" fill="none" stroke="black"/>
<path d="M120.033,325.453v 2.30681" fill="none" stroke="black"/>
<path d="M130.962,326.607v 1.15341" fill="none" stroke="black"/>
<path d="M141.891,326.607v 1.15341" fill="none" stroke="black"/>
<path d="M152.82,326.607v 1.15341" fill="none" stroke="black"/>
<path d="M163.748,326.607v 1.15341" fill="none" stroke="black"/>
<path d="M174.677,325.453v 2.30681" fill="none" stroke="black"/>
<path d="M185.606,326.607v 1.15341" fill="none" stroke="black"/>
<path d="M196.535,326.607v 1.15341" fill="none" stroke="black"/>
<path d="M207.463,326.607v 1.15341" fill="none" stroke="black"/>
<path d="M218.392,326.607v 1.15341" fill="none" stroke="black"/>
<path d="M229.321,325.453v 2.30681" fill="none" stroke="black"/>
<path d="M240.25,326.607v 1.15341" fill="none" stroke="black"/>
<path d="M251.178,326.607v 1.15341" fill="none" stroke="black"/>
<path d="M262.107,326.607v 1.15341" fill="none" stroke="black"/>
<path d="M273.036,326.607v 1.15341" fill="none" stroke="black"/>
<path d="M283.965,325.453v 2.30681" fill="none" stroke="black"/>
<path d="M294.893,326.607v 1.15341" fill="none" stroke="black"/>
<path d="M305.822,326.607v 1.15341" fill="none" stroke="black"/>
<path d="M316.751,326.607v 1.15341" fill="none" stroke="black"/>
<path d="M327.68,326.607v 1.15341" fill="none" stroke="black"/>
<path d="M338.608,325.453v 2.30681" fill="none" stroke="black"/>
<path d="M349.537,326.607v 1.15341" fill="none" stroke="black"/>
<path d="M360.466,326.607v 1.15341" fill="none" stroke="black"/>
<path d="M371.395,326.607v 1.15341" fill="none" stroke="black"/>
<path d="M382.323,326.607v 1.15341" fill="none" stroke="black"/>
<path d="M393.252,325.453v 2.30681" fill="none" stroke="black"/>
<path d="M404.181,326.607v 1.15341" fill="none" stroke="black"/>
<path d="M415.11,326.607v 1.15341" fill="none" stroke="black"/>
<path d="M426.038,326.607v 1.15341" fill="none" stroke="black"/>
<path d="M436.967,326.607v 1.15341" fill="none" stroke="black"/>
<path d="M447.896,325.453v 2.30681" fill="none" stroke="black"/>
<path d="M458.825,326.607v 1.15341" fill="none" stroke="black"/>
<path d="M469.753,326.607v 1.15341" fill="none" stroke="black"/>
<path d="M480.682,326.607v 1.15341" fill="none" stroke="black"/>
<path d="M491.611,326.607v 1.15341" fill="none" stroke="black"/>
<path d="M502.54,325.453v 2.30681" fill="none" stroke="black"/>
<path d="M65.3895,325.453v 2.30681" fill="none" stroke="black"/>
<path d="M502.54,325.453v 2.30681" fill="none" stroke="black"/>
<text x="61.5915" y="340.483" fill="black" font-size="11.0817" font-family="Helvetica">
40
</text>
<text x="55.8896" y="340.483" fill="black" font-size="11.0817" font-family="Times">
&#8722;
</text>
<text x="116.167" y="340.483" fill="black" font-size="11.0817" font-family="Helvetica">
30
</text>
<text x="110.465" y="340.483" fill="black" font-size="11.0817" font-family="Times">
&#8722;
</text>
<text x="170.742" y="340.483" fill="black" font-size="11.0817" font-family="Helvetica">
20
</text>
<text x="165.04" y="340.483" fill="black" font-size="11.0817" font-family="Times">
&#8722;
</text>
<text x="225.317" y="340.483" fill="black" font-size="11.0817" font-family="Helvetica">
10
</text>
<text x="219.615" y="340.483" fill="black" font-size="11.0817" font-family="Times">
&#8722;
</text>
<text x="280.706" y="340.483" fill="black" font-size="11.0817" font-family="Helvetica">
0
</text>
<text x="332.838" y="340.483" fill="black" font-size="11.0817" font-family="Helvetica">
10
</text>
<text x="387.413" y="340.483" fill="black" font-size="11.0817" font-family="Helvetica">
20
</text>
<text x="441.988" y="340.483" fill="black" font-size="11.0817" font-family="Helvetica">
30
</text>
<text x="496.563" y="340.483" fill="black" font-size="11.0817" font-family="Helvetica">
40
</text>
<path d="M57.1929,327.76v -58.6315" fill="none" stroke="black"/>
<g transform="rotate(-90,21.6784,321.749)">
<text x="21.6784" y="321.749" fill="black" font-size="13.7271" font-family="Helvetica">
HW/EM
</text>
</g>
<path d="M60.6512,322.874h -3.45827" fill="none" stroke="black"/>
<path d="M58.0575,319.82h -0.864567" fill="none" stroke="black"/>
<path d="M58.9221,316.767h -1.72913" fill="none" stroke="black"/>
<path d="M58.0575,313.713h -0.864567" fill="none" stroke="black"/>
<path d="M60.6512,310.659h -3.45827" fill="none" stroke="black"/>
<path d="M58.0575,307.605h -0.864567" fill="none" stroke="black"/>
<path d="M58.9221,304.552h -1.72913" fill="none" stroke="black"/>
<path d="M58.0575,301.498h -0.864567" fill="none" stroke="black"/>
<path d="M60.6512,298.444h -3.45827" fill="none" stroke="black"/>
<path d="M58.0575,295.39h -0.864567" fill="none" stroke="black"/>
<path d="M58.9221,292.337h -1.72913" fill="none" stroke="black"/>
<path d="M58.0575,289.283h -0.864567" fill="none" stroke="black"/>
<path d="M60.6512,286.229h -3.45827" fill="none" stroke="black"/>
<path d="M58.0575,283.176h -0.864567" fill="none" stroke="black"/>
<path d="M58.9221,280.122h -1.72913" fill="none" stroke="black"/>
<path d="M58.0575,277.068h -0.864567" fill="none" stroke="black"/>
<path d="M60.6512,274.014h -3.45827" fill="none" stroke="black"/>
<path d="M60.6512,322.874h -3.45827" fill="none" stroke="black"/>
<path d="M58.0575,325.928h -0.864567" fill="none" stroke="black"/>
<path d="M60.6512,274.014h -3.45827" fill="none" stroke="black"/>
<path d="M58.0575,270.961h -0.864567" fill="none" stroke="black"/>
<text x="38.784" y="326.636" fill="black" font-size="11.0817" font-family="Helvetica">
0.8
</text>
<text x="38.784" y="314.418" fill="black" font-size="11.0817" font-family="Helvetica">
0.9
</text>
<text x="49.3732" y="303.014" fill="black" font-size="11.0817" font-family="Helvetica">
1
</text>
<text x="40.4131" y="290.796" fill="black" font-size="11.0817" font-family="Helvetica">
1.1
</text>
<text x="38.784" y="278.577" fill="black" font-size="11.0817" font-family="Helvetica">
1.2
</text>
<path d="M57.1929,298.444h 453.543" fill="none" stroke="#0000ff"/></svg>
