<?xml version="1.0" standalone="no"?>
<svg width="567.429" height="384.969" viewBox="0 0 567.429 384.969" xmlns="http://www.w3.org/2000/svg">
<title>
compHwEmu_MPSums_MPSumHtxHF.svg
</title>
<desc>
Creator: ROOT Version 6.06/01
CreationDate: Mon Dec  5 11:09:29 2016</desc>
<defs>
</defs>
<rect x="0.5" y="0" width="566.929" height="384.469" fill="white"/>
<rect x="0.5" y="0" width="566.929" height="269.128" fill="white"/>
<rect x="57.1929" y="26.9128" width="453.543" height="236.833" fill="white"/>
<rect x="57.1929" y="26.9128" width="453.543" height="236.833" fill="none" stroke="black"/>
<path d="M57.1929,263.746h 453.543" fill="none" stroke="black"/>
<path d="M113.885,26.9128v 236.833" fill="none" stroke="black" stroke-dasharray=" 1, 2"/>
<path d="M170.578,26.9128v 236.833" fill="none" stroke="black" stroke-dasharray=" 1, 2"/>
<path d="M227.271,26.9128v 236.833" fill="none" stroke="black" stroke-dasharray=" 1, 2"/>
<path d="M283.964,26.9128v 236.833" fill="none" stroke="black" stroke-dasharray=" 1, 2"/>
<path d="M340.657,26.9128v 236.833" fill="none" stroke="black" stroke-dasharray=" 1, 2"/>
<path d="M397.35,26.9128v 236.833" fill="none" stroke="black" stroke-dasharray=" 1, 2"/>
<path d="M454.043,26.9128v 236.833" fill="none" stroke="black" stroke-dasharray=" 1, 2"/>
<path d="M510.736,26.9128v 236.833" fill="none" stroke="black" stroke-dasharray=" 1, 2"/>
<path d="M113.885,26.9128v 236.833" fill="none" stroke="black" stroke-dasharray=" 1, 2"/>
<path d="M510.736,26.9128v 236.833" fill="none" stroke="black" stroke-dasharray=" 1, 2"/>
<path d="M57.1929,263.746v -236.833" fill="none" stroke="black"/>
<g stroke="black" stroke-width="1" fill="black">
<rect x="282.222" y="36.5615" width="3.25821" height="3.25821"/>
</g>
<path d="M57.1929,263.746h 453.543" fill="none" stroke="black"/>
<path d="M113.885,257.287v 6.45908" fill="none" stroke="black"/>
<path d="M125.224,260.516v 3.22954" fill="none" stroke="black"/>
<path d="M136.562,260.516v 3.22954" fill="none" stroke="black"/>
<path d="M147.901,260.516v 3.22954" fill="none" stroke="black"/>
<path d="M159.24,260.516v 3.22954" fill="none" stroke="black"/>
<path d="M170.578,257.287v 6.45908" fill="none" stroke="black"/>
<path d="M181.917,260.516v 3.22954" fill="none" stroke="black"/>
<path d="M193.255,260.516v 3.22954" fill="none" stroke="black"/>
<path d="M204.594,260.516v 3.22954" fill="none" stroke="black"/>
<path d="M215.933,260.516v 3.22954" fill="none" stroke="black"/>
<path d="M227.271,257.287v 6.45908" fill="none" stroke="black"/>
<path d="M238.61,260.516v 3.22954" fill="none" stroke="black"/>
<path d="M249.948,260.516v 3.22954" fill="none" stroke="black"/>
<path d="M261.287,260.516v 3.22954" fill="none" stroke="black"/>
<path d="M272.625,260.516v 3.22954" fill="none" stroke="black"/>
<path d="M283.964,257.287v 6.45908" fill="none" stroke="black"/>
<path d="M295.303,260.516v 3.22954" fill="none" stroke="black"/>
<path d="M306.641,260.516v 3.22954" fill="none" stroke="black"/>
<path d="M317.98,260.516v 3.22954" fill="none" stroke="black"/>
<path d="M329.318,260.516v 3.22954" fill="none" stroke="black"/>
<path d="M340.657,257.287v 6.45908" fill="none" stroke="black"/>
<path d="M351.995,260.516v 3.22954" fill="none" stroke="black"/>
<path d="M363.334,260.516v 3.22954" fill="none" stroke="black"/>
<path d="M374.673,260.516v 3.22954" fill="none" stroke="black"/>
<path d="M386.011,260.516v 3.22954" fill="none" stroke="black"/>
<path d="M397.35,257.287v 6.45908" fill="none" stroke="black"/>
<path d="M408.688,260.516v 3.22954" fill="none" stroke="black"/>
<path d="M420.027,260.516v 3.22954" fill="none" stroke="black"/>
<path d="M431.366,260.516v 3.22954" fill="none" stroke="black"/>
<path d="M442.704,260.516v 3.22954" fill="none" stroke="black"/>
<path d="M454.043,257.287v 6.45908" fill="none" stroke="black"/>
<path d="M465.381,260.516v 3.22954" fill="none" stroke="black"/>
<path d="M476.72,260.516v 3.22954" fill="none" stroke="black"/>
<path d="M488.058,260.516v 3.22954" fill="none" stroke="black"/>
<path d="M499.397,260.516v 3.22954" fill="none" stroke="black"/>
<path d="M510.736,257.287v 6.45908" fill="none" stroke="black"/>
<path d="M113.885,257.287v 6.45908" fill="none" stroke="black"/>
<path d="M102.547,260.516v 3.22954" fill="none" stroke="black"/>
<path d="M91.2081,260.516v 3.22954" fill="none" stroke="black"/>
<path d="M79.8695,260.516v 3.22954" fill="none" stroke="black"/>
<path d="M68.5309,260.516v 3.22954" fill="none" stroke="black"/>
<path d="M510.736,257.287v 6.45908" fill="none" stroke="black"/>
<text x="112.908" y="264.73" fill="black" font-size="0.5" font-family="Helvetica">
150
</text>
<text x="112.908" y="264.73" fill="black" font-size="0.5" font-family="Times">
&#8722;
</text>
<text x="169.113" y="264.73" fill="black" font-size="0.5" font-family="Helvetica">
100
</text>
<text x="169.113" y="264.73" fill="black" font-size="0.5" font-family="Times">
&#8722;
</text>
<text x="225.317" y="264.73" fill="black" font-size="0.5" font-family="Helvetica">
50
</text>
<text x="225.317" y="264.73" fill="black" font-size="0.5" font-family="Times">
&#8722;
</text>
<text x="282.335" y="264.73" fill="black" font-size="0.5" font-family="Helvetica">
0
</text>
<text x="338.54" y="264.73" fill="black" font-size="0.5" font-family="Helvetica">
50
</text>
<text x="396.373" y="264.73" fill="black" font-size="0.5" font-family="Helvetica">
100
</text>
<text x="452.577" y="264.73" fill="black" font-size="0.5" font-family="Helvetica">
150
</text>
<text x="508.781" y="264.73" fill="black" font-size="0.5" font-family="Helvetica">
200
</text>
<text x="512.854" y="261.472" fill="black" font-size="0.5" font-family="Helvetica">
3
</text>
<text x="511.225" y="263.101" fill="black" font-size="0.5" font-family="Helvetica">
10
</text>
<text x="510.41" y="263.101" fill="black" font-size="0.5" font-family="Times">
&#0215;
</text>
<path d="M57.1929,263.746v -236.833" fill="none" stroke="black"/>
<g transform="rotate(-90,17.6056,178.387)">
<text x="17.6056" y="178.387" fill="black" font-size="15.8082" font-family="Helvetica">
Number of candidates
</text>
</g>
<path d="M62.1819,263.746h -4.98898" fill="none" stroke="black"/>
<path d="M59.6874,258.476h -2.49449" fill="none" stroke="black"/>
<path d="M59.6874,253.206h -2.49449" fill="none" stroke="black"/>
<path d="M59.6874,247.936h -2.49449" fill="none" stroke="black"/>
<path d="M62.1819,242.666h -4.98898" fill="none" stroke="black"/>
<path d="M59.6874,237.396h -2.49449" fill="none" stroke="black"/>
<path d="M59.6874,232.126h -2.49449" fill="none" stroke="black"/>
<path d="M59.6874,226.856h -2.49449" fill="none" stroke="black"/>
<path d="M62.1819,221.586h -4.98898" fill="none" stroke="black"/>
<path d="M59.6874,216.316h -2.49449" fill="none" stroke="black"/>
<path d="M59.6874,211.046h -2.49449" fill="none" stroke="black"/>
<path d="M59.6874,205.776h -2.49449" fill="none" stroke="black"/>
<path d="M62.1819,200.506h -4.98898" fill="none" stroke="black"/>
<path d="M59.6874,195.236h -2.49449" fill="none" stroke="black"/>
<path d="M59.6874,189.966h -2.49449" fill="none" stroke="black"/>
<path d="M59.6874,184.696h -2.49449" fill="none" stroke="black"/>
<path d="M62.1819,179.426h -4.98898" fill="none" stroke="black"/>
<path d="M59.6874,174.156h -2.49449" fill="none" stroke="black"/>
<path d="M59.6874,168.886h -2.49449" fill="none" stroke="black"/>
<path d="M59.6874,163.616h -2.49449" fill="none" stroke="black"/>
<path d="M62.1819,158.346h -4.98898" fill="none" stroke="black"/>
<path d="M59.6874,153.076h -2.49449" fill="none" stroke="black"/>
<path d="M59.6874,147.806h -2.49449" fill="none" stroke="black"/>
<path d="M59.6874,142.536h -2.49449" fill="none" stroke="black"/>
<path d="M62.1819,137.266h -4.98898" fill="none" stroke="black"/>
<path d="M59.6874,131.996h -2.49449" fill="none" stroke="black"/>
<path d="M59.6874,126.726h -2.49449" fill="none" stroke="black"/>
<path d="M59.6874,121.456h -2.49449" fill="none" stroke="black"/>
<path d="M62.1819,116.186h -4.98898" fill="none" stroke="black"/>
<path d="M59.6874,110.916h -2.49449" fill="none" stroke="black"/>
<path d="M59.6874,105.646h -2.49449" fill="none" stroke="black"/>
<path d="M59.6874,100.376h -2.49449" fill="none" stroke="black"/>
<path d="M62.1819,95.1064h -4.98898" fill="none" stroke="black"/>
<path d="M59.6874,89.8364h -2.49449" fill="none" stroke="black"/>
<path d="M59.6874,84.5665h -2.49449" fill="none" stroke="black"/>
<path d="M59.6874,79.2965h -2.49449" fill="none" stroke="black"/>
<path d="M62.1819,74.0265h -4.98898" fill="none" stroke="black"/>
<path d="M59.6874,68.7565h -2.49449" fill="none" stroke="black"/>
<path d="M59.6874,63.4865h -2.49449" fill="none" stroke="black"/>
<path d="M59.6874,58.2165h -2.49449" fill="none" stroke="black"/>
<path d="M62.1819,52.9466h -4.98898" fill="none" stroke="black"/>
<path d="M59.6874,47.6766h -2.49449" fill="none" stroke="black"/>
<path d="M59.6874,42.4066h -2.49449" fill="none" stroke="black"/>
<path d="M59.6874,37.1366h -2.49449" fill="none" stroke="black"/>
<path d="M62.1819,31.8666h -4.98898" fill="none" stroke="black"/>
<path d="M62.1819,31.8666h -4.98898" fill="none" stroke="black"/>
<text x="47.7441" y="267.988" fill="black" font-size="11.6108" font-family="Helvetica">
0
</text>
<text x="41.2277" y="246.81" fill="black" font-size="11.6108" font-family="Helvetica">
20
</text>
<text x="41.2277" y="226.446" fill="black" font-size="11.6108" font-family="Helvetica">
40
</text>
<text x="41.2277" y="205.267" fill="black" font-size="11.6108" font-family="Helvetica">
60
</text>
<text x="41.2277" y="184.089" fill="black" font-size="11.6108" font-family="Helvetica">
80
</text>
<text x="35.5258" y="162.911" fill="black" font-size="11.6108" font-family="Helvetica">
100
</text>
<text x="35.5258" y="141.732" fill="black" font-size="11.6108" font-family="Helvetica">
120
</text>
<text x="35.5258" y="120.554" fill="black" font-size="11.6108" font-family="Helvetica">
140
</text>
<text x="35.5258" y="99.3755" fill="black" font-size="11.6108" font-family="Helvetica">
160
</text>
<text x="35.5258" y="78.1971" fill="black" font-size="11.6108" font-family="Helvetica">
180
</text>
<text x="35.5258" y="57.8333" fill="black" font-size="11.6108" font-family="Helvetica">
200
</text>
<text x="35.5258" y="36.6549" fill="black" font-size="11.6108" font-family="Helvetica">
220
</text>
<path d="M57.1929,263.746h 226.545v -225.555h 0.226772v 225.555h 226.772" fill="none" stroke="#ff0000"/>
<text x="387.413" y="23.622" fill="black" font-size="9.79954" font-family="Helvetica">
Hardware
</text>
<g stroke="black" stroke-width="1" fill="black">
<rect x="376.587" y="18.5555" width="3.25821" height="3.25821"/>
</g>
<text x="463.166" y="23.622" fill="black" font-size="9.79954" font-family="Helvetica">
Emulator
</text>
<path d="M447.68,20.1846h 12.8976" fill="none" stroke="#ff0000"/>
<text x="248.939" y="22.8075" fill="black" font-size="12.8453" font-family="Helvetica" font-style="oblique">
 = 13 TeV, SingleMu
</text>
<text x="242.422" y="22.8075" fill="black" font-size="12.8453" font-family="Helvetica" font-style="oblique">
s
</text>
<path d="M238.35,15.4765l 0.814553, 8.14553" fill="none" stroke="black"/>
<path d="M239.164,23.622l 1.62911, -12.2183" fill="none" stroke="black"/>
<path d="M240.793,11.4037h 8.14553" fill="none" stroke="black"/>
<text x="155.265" y="22.8075" fill="black" font-size="12.8453" font-family="Helvetica" font-style="oblique">
: Run 284113, 
</text>
<text x="56.7042" y="22.8075" fill="black" font-size="12.8453" font-family="Helvetica" font-weight="bold" font-style="oblique">
CMS Preliminary
</text>
<rect x="0.5" y="269.128" width="566.929" height="96.1173" fill="white"/>
<rect x="57.1929" y="269.128" width="453.543" height="58.6315" fill="white"/>
<rect x="57.1929" y="269.128" width="453.543" height="58.6315" fill="none" stroke="black"/>
<path d="M57.1929,327.76h 453.543" fill="none" stroke="black"/>
<path d="M113.885,269.128v 58.6315" fill="none" stroke="black" stroke-dasharray=" 1, 2"/>
<path d="M170.578,269.128v 58.6315" fill="none" stroke="black" stroke-dasharray=" 1, 2"/>
<path d="M227.271,269.128v 58.6315" fill="none" stroke="black" stroke-dasharray=" 1, 2"/>
<path d="M283.964,269.128v 58.6315" fill="none" stroke="black" stroke-dasharray=" 1, 2"/>
<path d="M340.657,269.128v 58.6315" fill="none" stroke="black" stroke-dasharray=" 1, 2"/>
<path d="M397.35,269.128v 58.6315" fill="none" stroke="black" stroke-dasharray=" 1, 2"/>
<path d="M454.043,269.128v 58.6315" fill="none" stroke="black" stroke-dasharray=" 1, 2"/>
<path d="M510.736,269.128v 58.6315" fill="none" stroke="black" stroke-dasharray=" 1, 2"/>
<path d="M113.885,269.128v 58.6315" fill="none" stroke="black" stroke-dasharray=" 1, 2"/>
<path d="M510.736,269.128v 58.6315" fill="none" stroke="black" stroke-dasharray=" 1, 2"/>
<path d="M57.1929,327.76v -58.6315" fill="none" stroke="black"/>
<path d="M510.736,322.874h -453.543" fill="none" stroke="black" stroke-dasharray=" 1, 2"/>
<path d="M510.736,310.659h -453.543" fill="none" stroke="black" stroke-dasharray=" 1, 2"/>
<path d="M510.736,298.444h -453.543" fill="none" stroke="black" stroke-dasharray=" 1, 2"/>
<path d="M510.736,286.229h -453.543" fill="none" stroke="black" stroke-dasharray=" 1, 2"/>
<path d="M510.736,274.014h -453.543" fill="none" stroke="black" stroke-dasharray=" 1, 2"/>
<path d="M510.736,322.874h -453.543" fill="none" stroke="black" stroke-dasharray=" 1, 2"/>
<path d="M510.736,274.014h -453.543" fill="none" stroke="black" stroke-dasharray=" 1, 2"/>
<g stroke="black" stroke-width="1" fill="black">
<rect x="282.222" y="296.815" width="3.25821" height="3.25821"/>
</g>
<path d="M57.1929,327.76h 453.543" fill="none" stroke="black"/>
<text x="497.378" y="361.662" fill="black" font-size="9.3181" font-family="Helvetica">
T,x
</text>
<text x="365.42" y="353.516" fill="black" font-size="13.7271" font-family="Helvetica">
Level-1 Trigger Jet iH
</text>
<path d="M113.885,325.453v 2.30681" fill="none" stroke="black"/>
<path d="M125.224,326.607v 1.15341" fill="none" stroke="black"/>
<path d="M136.562,326.607v 1.15341" fill="none" stroke="black"/>
<path d="M147.901,326.607v 1.15341" fill="none" stroke="black"/>
<path d="M159.24,326.607v 1.15341" fill="none" stroke="black"/>
<path d="M170.578,325.453v 2.30681" fill="none" stroke="black"/>
<path d="M181.917,326.607v 1.15341" fill="none" stroke="black"/>
<path d="M193.255,326.607v 1.15341" fill="none" stroke="black"/>
<path d="M204.594,326.607v 1.15341" fill="none" stroke="black"/>
<path d="M215.933,326.607v 1.15341" fill="none" stroke="black"/>
<path d="M227.271,325.453v 2.30681" fill="none" stroke="black"/>
<path d="M238.61,326.607v 1.15341" fill="none" stroke="black"/>
<path d="M249.948,326.607v 1.15341" fill="none" stroke="black"/>
<path d="M261.287,326.607v 1.15341" fill="none" stroke="black"/>
<path d="M272.625,326.607v 1.15341" fill="none" stroke="black"/>
<path d="M283.964,325.453v 2.30681" fill="none" stroke="black"/>
<path d="M295.303,326.607v 1.15341" fill="none" stroke="black"/>
<path d="M306.641,326.607v 1.15341" fill="none" stroke="black"/>
<path d="M317.98,326.607v 1.15341" fill="none" stroke="black"/>
<path d="M329.318,326.607v 1.15341" fill="none" stroke="black"/>
<path d="M340.657,325.453v 2.30681" fill="none" stroke="black"/>
<path d="M351.995,326.607v 1.15341" fill="none" stroke="black"/>
<path d="M363.334,326.607v 1.15341" fill="none" stroke="black"/>
<path d="M374.673,326.607v 1.15341" fill="none" stroke="black"/>
<path d="M386.011,326.607v 1.15341" fill="none" stroke="black"/>
<path d="M397.35,325.453v 2.30681" fill="none" stroke="black"/>
<path d="M408.688,326.607v 1.15341" fill="none" stroke="black"/>
<path d="M420.027,326.607v 1.15341" fill="none" stroke="black"/>
<path d="M431.366,326.607v 1.15341" fill="none" stroke="black"/>
<path d="M442.704,326.607v 1.15341" fill="none" stroke="black"/>
<path d="M454.043,325.453v 2.30681" fill="none" stroke="black"/>
<path d="M465.381,326.607v 1.15341" fill="none" stroke="black"/>
<path d="M476.72,326.607v 1.15341" fill="none" stroke="black"/>
<path d="M488.058,326.607v 1.15341" fill="none" stroke="black"/>
<path d="M499.397,326.607v 1.15341" fill="none" stroke="black"/>
<path d="M510.736,325.453v 2.30681" fill="none" stroke="black"/>
<path d="M113.885,325.453v 2.30681" fill="none" stroke="black"/>
<path d="M102.547,326.607v 1.15341" fill="none" stroke="black"/>
<path d="M91.2081,326.607v 1.15341" fill="none" stroke="black"/>
<path d="M79.8695,326.607v 1.15341" fill="none" stroke="black"/>
<path d="M68.5309,326.607v 1.15341" fill="none" stroke="black"/>
<path d="M510.736,325.453v 2.30681" fill="none" stroke="black"/>
<text x="107.206" y="340.483" fill="black" font-size="11.0817" font-family="Helvetica">
150
</text>
<text x="101.505" y="340.483" fill="black" font-size="11.0817" font-family="Times">
&#8722;
</text>
<text x="163.411" y="340.483" fill="black" font-size="11.0817" font-family="Helvetica">
100
</text>
<text x="157.709" y="340.483" fill="black" font-size="11.0817" font-family="Times">
&#8722;
</text>
<text x="223.688" y="340.483" fill="black" font-size="11.0817" font-family="Helvetica">
50
</text>
<text x="217.986" y="340.483" fill="black" font-size="11.0817" font-family="Times">
&#8722;
</text>
<text x="279.892" y="340.483" fill="black" font-size="11.0817" font-family="Helvetica">
0
</text>
<text x="334.467" y="340.483" fill="black" font-size="11.0817" font-family="Helvetica">
50
</text>
<text x="388.227" y="340.483" fill="black" font-size="11.0817" font-family="Helvetica">
100
</text>
<text x="444.432" y="340.483" fill="black" font-size="11.0817" font-family="Helvetica">
150
</text>
<text x="501.45" y="340.483" fill="black" font-size="11.0817" font-family="Helvetica">
200
</text>
<text x="534.032" y="321.749" fill="black" font-size="7.55448" font-family="Helvetica">
3
</text>
<text x="522.629" y="327.45" fill="black" font-size="11.0817" font-family="Helvetica">
10
</text>
<text x="516.927" y="327.45" fill="black" font-size="11.0817" font-family="Times">
&#0215;
</text>
<path d="M57.1929,327.76v -58.6315" fill="none" stroke="black"/>
<g transform="rotate(-90,21.6784,321.749)">
<text x="21.6784" y="321.749" fill="black" font-size="13.7271" font-family="Helvetica">
HW/EM
</text>
</g>
<path d="M60.6512,322.874h -3.45827" fill="none" stroke="black"/>
<path d="M58.0575,319.82h -0.864567" fill="none" stroke="black"/>
<path d="M58.9221,316.767h -1.72913" fill="none" stroke="black"/>
<path d="M58.0575,313.713h -0.864567" fill="none" stroke="black"/>
<path d="M60.6512,310.659h -3.45827" fill="none" stroke="black"/>
<path d="M58.0575,307.605h -0.864567" fill="none" stroke="black"/>
<path d="M58.9221,304.552h -1.72913" fill="none" stroke="black"/>
<path d="M58.0575,301.498h -0.864567" fill="none" stroke="black"/>
<path d="M60.6512,298.444h -3.45827" fill="none" stroke="black"/>
<path d="M58.0575,295.39h -0.864567" fill="none" stroke="black"/>
<path d="M58.9221,292.337h -1.72913" fill="none" stroke="black"/>
<path d="M58.0575,289.283h -0.864567" fill="none" stroke="black"/>
<path d="M60.6512,286.229h -3.45827" fill="none" stroke="black"/>
<path d="M58.0575,283.176h -0.864567" fill="none" stroke="black"/>
<path d="M58.9221,280.122h -1.72913" fill="none" stroke="black"/>
<path d="M58.0575,277.068h -0.864567" fill="none" stroke="black"/>
<path d="M60.6512,274.014h -3.45827" fill="none" stroke="black"/>
<path d="M60.6512,322.874h -3.45827" fill="none" stroke="black"/>
<path d="M58.0575,325.928h -0.864567" fill="none" stroke="black"/>
<path d="M60.6512,274.014h -3.45827" fill="none" stroke="black"/>
<path d="M58.0575,270.961h -0.864567" fill="none" stroke="black"/>
<text x="38.784" y="326.636" fill="black" font-size="11.0817" font-family="Helvetica">
0.8
</text>
<text x="38.784" y="314.418" fill="black" font-size="11.0817" font-family="Helvetica">
0.9
</text>
<text x="49.3732" y="303.014" fill="black" font-size="11.0817" font-family="Helvetica">
1
</text>
<text x="40.4131" y="290.796" fill="black" font-size="11.0817" font-family="Helvetica">
1.1
</text>
<text x="38.784" y="278.577" fill="black" font-size="11.0817" font-family="Helvetica">
1.2
</text>
<path d="M57.1929,298.444h 453.543" fill="none" stroke="#0000ff"/></svg>
