<?xml version="1.0" standalone="no"?>
<svg width="567.429" height="384.969" viewBox="0 0 567.429 384.969" xmlns="http://www.w3.org/2000/svg">
<title>
compHwEmu_DemuxTaus_TauEta.svg
</title>
<desc>
Creator: ROOT Version 6.06/01
CreationDate: Mon Dec  5 11:09:30 2016</desc>
<defs>
</defs>
<rect x="0.5" y="0" width="566.929" height="384.469" fill="white"/>
<rect x="0.5" y="0" width="566.929" height="269.128" fill="white"/>
<rect x="57.1929" y="26.9128" width="453.543" height="236.833" fill="white"/>
<rect x="57.1929" y="26.9128" width="453.543" height="236.833" fill="none" stroke="black"/>
<path d="M57.1929,263.746h 453.543" fill="none" stroke="black"/>
<path d="M84.1658,26.9128v 236.833" fill="none" stroke="black" stroke-dasharray=" 1, 2"/>
<path d="M184.065,26.9128v 236.833" fill="none" stroke="black" stroke-dasharray=" 1, 2"/>
<path d="M283.965,26.9128v 236.833" fill="none" stroke="black" stroke-dasharray=" 1, 2"/>
<path d="M383.864,26.9128v 236.833" fill="none" stroke="black" stroke-dasharray=" 1, 2"/>
<path d="M483.763,26.9128v 236.833" fill="none" stroke="black" stroke-dasharray=" 1, 2"/>
<path d="M84.1658,26.9128v 236.833" fill="none" stroke="black" stroke-dasharray=" 1, 2"/>
<path d="M483.763,26.9128v 236.833" fill="none" stroke="black" stroke-dasharray=" 1, 2"/>
<path d="M57.1929,263.746v -236.833" fill="none" stroke="black"/>
<g stroke="black" stroke-width="1" fill="black">
<rect x="156.462" y="205.728" width="3.25821" height="3.25821"/>
<rect x="164.454" y="233.922" width="3.25821" height="3.25821"/>
<rect x="166.452" y="252.719" width="3.25821" height="3.25821"/>
<rect x="172.446" y="196.33" width="3.25821" height="3.25821"/>
<rect x="178.44" y="205.728" width="3.25821" height="3.25821"/>
<rect x="184.434" y="252.719" width="3.25821" height="3.25821"/>
<rect x="186.432" y="224.524" width="3.25821" height="3.25821"/>
<rect x="190.428" y="224.524" width="3.25821" height="3.25821"/>
<rect x="196.422" y="205.728" width="3.25821" height="3.25821"/>
<rect x="200.418" y="243.32" width="3.25821" height="3.25821"/>
<rect x="204.414" y="149.339" width="3.25821" height="3.25821"/>
<rect x="206.412" y="243.32" width="3.25821" height="3.25821"/>
<rect x="208.41" y="139.941" width="3.25821" height="3.25821"/>
<rect x="210.408" y="243.32" width="3.25821" height="3.25821"/>
<rect x="212.406" y="205.728" width="3.25821" height="3.25821"/>
<rect x="214.404" y="215.126" width="3.25821" height="3.25821"/>
<rect x="216.402" y="196.33" width="3.25821" height="3.25821"/>
<rect x="218.4" y="243.32" width="3.25821" height="3.25821"/>
<rect x="220.398" y="102.348" width="3.25821" height="3.25821"/>
<rect x="222.396" y="252.719" width="3.25821" height="3.25821"/>
<rect x="224.394" y="215.126" width="3.25821" height="3.25821"/>
<rect x="228.39" y="168.135" width="3.25821" height="3.25821"/>
<rect x="230.388" y="224.524" width="3.25821" height="3.25821"/>
<rect x="232.386" y="111.747" width="3.25821" height="3.25821"/>
<rect x="234.384" y="224.524" width="3.25821" height="3.25821"/>
<rect x="236.382" y="139.941" width="3.25821" height="3.25821"/>
<rect x="238.38" y="215.126" width="3.25821" height="3.25821"/>
<rect x="240.378" y="177.534" width="3.25821" height="3.25821"/>
<rect x="242.376" y="252.719" width="3.25821" height="3.25821"/>
<rect x="244.374" y="102.348" width="3.25821" height="3.25821"/>
<rect x="246.372" y="252.719" width="3.25821" height="3.25821"/>
<rect x="248.37" y="139.941" width="3.25821" height="3.25821"/>
<rect x="250.368" y="233.922" width="3.25821" height="3.25821"/>
<rect x="252.366" y="130.543" width="3.25821" height="3.25821"/>
<rect x="254.364" y="215.126" width="3.25821" height="3.25821"/>
<rect x="256.362" y="186.932" width="3.25821" height="3.25821"/>
<rect x="258.36" y="224.524" width="3.25821" height="3.25821"/>
<rect x="260.358" y="111.747" width="3.25821" height="3.25821"/>
<rect x="262.356" y="224.524" width="3.25821" height="3.25821"/>
<rect x="264.354" y="102.348" width="3.25821" height="3.25821"/>
<rect x="266.352" y="243.32" width="3.25821" height="3.25821"/>
<rect x="268.35" y="83.5522" width="3.25821" height="3.25821"/>
<rect x="270.348" y="215.126" width="3.25821" height="3.25821"/>
<rect x="272.346" y="121.145" width="3.25821" height="3.25821"/>
<rect x="274.344" y="186.932" width="3.25821" height="3.25821"/>
<rect x="276.341" y="102.348" width="3.25821" height="3.25821"/>
<rect x="278.339" y="205.728" width="3.25821" height="3.25821"/>
<rect x="280.337" y="36.5615" width="3.25821" height="3.25821"/>
<rect x="282.335" y="168.135" width="3.25821" height="3.25821"/>
<rect x="284.333" y="83.5522" width="3.25821" height="3.25821"/>
</g>
<g stroke="black" stroke-width="1" fill="black">
<rect x="284.333" y="83.5522" width="3.25821" height="3.25821"/>
<rect x="286.331" y="186.932" width="3.25821" height="3.25821"/>
<rect x="288.329" y="111.747" width="3.25821" height="3.25821"/>
<rect x="290.327" y="215.126" width="3.25821" height="3.25821"/>
<rect x="292.325" y="130.543" width="3.25821" height="3.25821"/>
<rect x="294.323" y="233.922" width="3.25821" height="3.25821"/>
<rect x="296.321" y="102.348" width="3.25821" height="3.25821"/>
<rect x="298.319" y="215.126" width="3.25821" height="3.25821"/>
<rect x="300.317" y="111.747" width="3.25821" height="3.25821"/>
<rect x="302.315" y="215.126" width="3.25821" height="3.25821"/>
<rect x="304.313" y="121.145" width="3.25821" height="3.25821"/>
<rect x="308.309" y="130.543" width="3.25821" height="3.25821"/>
<rect x="310.307" y="243.32" width="3.25821" height="3.25821"/>
<rect x="312.305" y="102.348" width="3.25821" height="3.25821"/>
<rect x="314.303" y="243.32" width="3.25821" height="3.25821"/>
<rect x="316.301" y="149.339" width="3.25821" height="3.25821"/>
<rect x="318.299" y="252.719" width="3.25821" height="3.25821"/>
<rect x="320.297" y="149.339" width="3.25821" height="3.25821"/>
<rect x="322.295" y="252.719" width="3.25821" height="3.25821"/>
<rect x="324.293" y="177.534" width="3.25821" height="3.25821"/>
<rect x="326.291" y="224.524" width="3.25821" height="3.25821"/>
<rect x="328.289" y="102.348" width="3.25821" height="3.25821"/>
<rect x="330.287" y="233.922" width="3.25821" height="3.25821"/>
<rect x="332.285" y="102.348" width="3.25821" height="3.25821"/>
<rect x="334.283" y="243.32" width="3.25821" height="3.25821"/>
<rect x="336.281" y="102.348" width="3.25821" height="3.25821"/>
<rect x="338.279" y="224.524" width="3.25821" height="3.25821"/>
<rect x="340.277" y="158.737" width="3.25821" height="3.25821"/>
<rect x="342.275" y="233.922" width="3.25821" height="3.25821"/>
<rect x="344.273" y="177.534" width="3.25821" height="3.25821"/>
<rect x="348.269" y="158.737" width="3.25821" height="3.25821"/>
<rect x="350.267" y="243.32" width="3.25821" height="3.25821"/>
<rect x="352.265" y="111.747" width="3.25821" height="3.25821"/>
<rect x="354.263" y="215.126" width="3.25821" height="3.25821"/>
<rect x="356.261" y="121.145" width="3.25821" height="3.25821"/>
<rect x="358.259" y="196.33" width="3.25821" height="3.25821"/>
<rect x="360.257" y="130.543" width="3.25821" height="3.25821"/>
<rect x="364.253" y="215.126" width="3.25821" height="3.25821"/>
<rect x="368.249" y="168.135" width="3.25821" height="3.25821"/>
<rect x="374.243" y="205.728" width="3.25821" height="3.25821"/>
<rect x="378.239" y="215.126" width="3.25821" height="3.25821"/>
<rect x="380.237" y="252.719" width="3.25821" height="3.25821"/>
<rect x="386.231" y="158.737" width="3.25821" height="3.25821"/>
<rect x="390.227" y="252.719" width="3.25821" height="3.25821"/>
<rect x="392.225" y="121.145" width="3.25821" height="3.25821"/>
<rect x="400.217" y="224.524" width="3.25821" height="3.25821"/>
<rect x="402.215" y="252.719" width="3.25821" height="3.25821"/>
<rect x="406.211" y="233.922" width="3.25821" height="3.25821"/>
<rect x="408.209" y="130.543" width="3.25821" height="3.25821"/>
</g>
<path d="M57.1929,263.746h 453.543" fill="none" stroke="black"/>
<path d="M84.1658,257.287v 6.45908" fill="none" stroke="black"/>
<path d="M104.146,260.516v 3.22954" fill="none" stroke="black"/>
<path d="M124.126,260.516v 3.22954" fill="none" stroke="black"/>
<path d="M144.105,260.516v 3.22954" fill="none" stroke="black"/>
<path d="M164.085,260.516v 3.22954" fill="none" stroke="black"/>
<path d="M184.065,257.287v 6.45908" fill="none" stroke="black"/>
<path d="M204.045,260.516v 3.22954" fill="none" stroke="black"/>
<path d="M224.025,260.516v 3.22954" fill="none" stroke="black"/>
<path d="M244.005,260.516v 3.22954" fill="none" stroke="black"/>
<path d="M263.985,260.516v 3.22954" fill="none" stroke="black"/>
<path d="M283.965,257.287v 6.45908" fill="none" stroke="black"/>
<path d="M303.944,260.516v 3.22954" fill="none" stroke="black"/>
<path d="M323.924,260.516v 3.22954" fill="none" stroke="black"/>
<path d="M343.904,260.516v 3.22954" fill="none" stroke="black"/>
<path d="M363.884,260.516v 3.22954" fill="none" stroke="black"/>
<path d="M383.864,257.287v 6.45908" fill="none" stroke="black"/>
<path d="M403.844,260.516v 3.22954" fill="none" stroke="black"/>
<path d="M423.824,260.516v 3.22954" fill="none" stroke="black"/>
<path d="M443.804,260.516v 3.22954" fill="none" stroke="black"/>
<path d="M463.784,260.516v 3.22954" fill="none" stroke="black"/>
<path d="M483.763,257.287v 6.45908" fill="none" stroke="black"/>
<path d="M84.1658,257.287v 6.45908" fill="none" stroke="black"/>
<path d="M64.1859,260.516v 3.22954" fill="none" stroke="black"/>
<path d="M483.763,257.287v 6.45908" fill="none" stroke="black"/>
<path d="M503.743,260.516v 3.22954" fill="none" stroke="black"/>
<text x="82.7699" y="264.73" fill="black" font-size="0.5" font-family="Helvetica">
100
</text>
<text x="82.7699" y="264.73" fill="black" font-size="0.5" font-family="Times">
&#8722;
</text>
<text x="182.145" y="264.73" fill="black" font-size="0.5" font-family="Helvetica">
50
</text>
<text x="182.145" y="264.73" fill="black" font-size="0.5" font-family="Times">
&#8722;
</text>
<text x="283.15" y="264.73" fill="black" font-size="0.5" font-family="Helvetica">
0
</text>
<text x="381.711" y="264.73" fill="black" font-size="0.5" font-family="Helvetica">
50
</text>
<text x="482.716" y="264.73" fill="black" font-size="0.5" font-family="Helvetica">
100
</text>
<path d="M57.1929,263.746v -236.833" fill="none" stroke="black"/>
<g transform="rotate(-90,17.6056,178.387)">
<text x="17.6056" y="178.387" fill="black" font-size="15.8082" font-family="Helvetica">
Number of candidates
</text>
</g>
<path d="M62.1819,263.746h -4.98898" fill="none" stroke="black"/>
<path d="M59.6874,254.348h -2.49449" fill="none" stroke="black"/>
<path d="M59.6874,244.95h -2.49449" fill="none" stroke="black"/>
<path d="M59.6874,235.551h -2.49449" fill="none" stroke="black"/>
<path d="M59.6874,226.153h -2.49449" fill="none" stroke="black"/>
<path d="M62.1819,216.755h -4.98898" fill="none" stroke="black"/>
<path d="M59.6874,207.357h -2.49449" fill="none" stroke="black"/>
<path d="M59.6874,197.959h -2.49449" fill="none" stroke="black"/>
<path d="M59.6874,188.561h -2.49449" fill="none" stroke="black"/>
<path d="M59.6874,179.163h -2.49449" fill="none" stroke="black"/>
<path d="M62.1819,169.764h -4.98898" fill="none" stroke="black"/>
<path d="M59.6874,160.366h -2.49449" fill="none" stroke="black"/>
<path d="M59.6874,150.968h -2.49449" fill="none" stroke="black"/>
<path d="M59.6874,141.57h -2.49449" fill="none" stroke="black"/>
<path d="M59.6874,132.172h -2.49449" fill="none" stroke="black"/>
<path d="M62.1819,122.774h -4.98898" fill="none" stroke="black"/>
<path d="M59.6874,113.376h -2.49449" fill="none" stroke="black"/>
<path d="M59.6874,103.978h -2.49449" fill="none" stroke="black"/>
<path d="M59.6874,94.5794h -2.49449" fill="none" stroke="black"/>
<path d="M59.6874,85.1813h -2.49449" fill="none" stroke="black"/>
<path d="M62.1819,75.7831h -4.98898" fill="none" stroke="black"/>
<path d="M59.6874,66.385h -2.49449" fill="none" stroke="black"/>
<path d="M59.6874,56.9869h -2.49449" fill="none" stroke="black"/>
<path d="M59.6874,47.5887h -2.49449" fill="none" stroke="black"/>
<path d="M59.6874,38.1906h -2.49449" fill="none" stroke="black"/>
<path d="M62.1819,28.7925h -4.98898" fill="none" stroke="black"/>
<path d="M62.1819,28.7925h -4.98898" fill="none" stroke="black"/>
<text x="47.7441" y="267.988" fill="black" font-size="11.6108" font-family="Helvetica">
0
</text>
<text x="47.7441" y="221.559" fill="black" font-size="11.6108" font-family="Helvetica">
5
</text>
<text x="41.2277" y="174.314" fill="black" font-size="11.6108" font-family="Helvetica">
10
</text>
<text x="41.2277" y="127.07" fill="black" font-size="11.6108" font-family="Helvetica">
15
</text>
<text x="41.2277" y="80.6408" fill="black" font-size="11.6108" font-family="Helvetica">
20
</text>
<text x="41.2277" y="33.3967" fill="black" font-size="11.6108" font-family="Helvetica">
25
</text>
<path d="M57.1929,263.746h 99.8994v -56.3888h 1.99799v 56.3888h 5.99396v -28.1944h 1.99799v 18.7963h 1.99799v 9.39814h 3.99598v -65.7869h 1.99799v 65.7869h 3.99598v -56.3888h 1.99799v 56.3888h 3.99598v -9.39814h 1.99799v -28.1944h 1.99799v 37.5925h
 1.99799v -37.5925h 1.99799v 37.5925h 3.99598v -56.3888h 1.99799v 56.3888h 1.99799v -18.7963h 1.99799v 18.7963h 1.99799v -112.778h 1.99799v 93.9814h 1.99799v -103.379h 1.99799v 103.379h 1.99799v -37.5925h 1.99799v 9.39814h 1.99799v -18.7963h 1.99799v
 46.9907h 1.99799v -140.972h 1.99799v 150.37h 1.99799v -37.5925h 1.99799v 46.9907h 1.99799v -93.9814h 1.99799v 56.3888h 1.99799v -112.778h 1.99799v 112.778h 1.99799v -84.5832h 1.99799v 75.1851h 1.99799v -37.5925h 1.99799v 75.1851h 1.99799v -150.37h
 1.99799v 150.37h 1.99799v -112.778h 1.99799v 93.9814h 1.99799v -103.379h 1.99799v 84.5832h 1.99799v -28.1944h 1.99799v 37.5925h 1.99799v -112.778h 1.99799v 112.778h 1.99799v -122.176h 1.99799v 140.972h 1.99799v -159.768h 1.99799v 131.574h 1.99799v
 -93.9814h 1.99799v 65.7869h 1.99799v -84.5832h 1.99799v 103.379h 1.99799v -169.166h 1.99799v 131.574h 1.99799v -84.5832h 1.99799v 103.379h 1.99799v -75.1851h 1.99799v 103.379h 1.99799v -84.5832h 1.99799v 103.379h 1.99799v -131.574h 1.99799v 112.778h
 1.99799v -103.379h 1.99799v 103.379h 1.99799v -93.9814h 1.99799v 140.972h 1.99799v -131.574h 1.99799v 112.778h 1.99799v -140.972h 1.99799v 140.972h 1.99799v -93.9814h 1.99799v 103.379h 1.99799v -103.379h 1.99799v 103.379h 1.99799v -75.1851h 1.99799v
 46.9907h 1.99799v -122.176h 1.99799v 131.574h 1.99799v -131.574h 1.99799v 140.972h 1.99799v -140.972h 1.99799v 122.176h 1.99799v -65.7869h 1.99799v 75.1851h 1.99799v -56.3888h 1.99799v 84.5832h 1.99799v -103.379h 1.99799v 84.5832h 1.99799v -131.574h
 1.99799v 103.379h 1.99799v -93.9814h 1.99799v 75.1851h 1.99799v -65.7869h 1.99799v 131.574h 1.99799v -46.9907h 1.99799v 46.9907h 1.99799v -93.9814h 1.99799v 93.9814h 3.99598v -56.3888h 1.99799v 56.3888h 1.99799v -46.9907h 1.99799v 37.5925h 1.99799v
 9.39814h 3.99598v -103.379h 1.99799v 103.379h 1.99799v -9.39814h 1.99799v -131.574h 1.99799v 140.972h 5.99396v -37.5925h 1.99799v 28.1944h 1.99799v 9.39814h 1.99799v -28.1944h 1.99799v -103.379h 1.99799v 131.574h 99.8994" fill="none"
 stroke="#ff0000"/>
<text x="387.413" y="23.622" fill="black" font-size="9.79954" font-family="Helvetica">
Hardware
</text>
<g stroke="black" stroke-width="1" fill="black">
<rect x="376.587" y="18.5555" width="3.25821" height="3.25821"/>
</g>
<text x="463.166" y="23.622" fill="black" font-size="9.79954" font-family="Helvetica">
Emulator
</text>
<path d="M447.68,20.1846h 12.8976" fill="none" stroke="#ff0000"/>
<text x="248.939" y="22.8075" fill="black" font-size="12.8453" font-family="Helvetica" font-style="oblique">
 = 13 TeV, SingleMu
</text>
<text x="242.422" y="22.8075" fill="black" font-size="12.8453" font-family="Helvetica" font-style="oblique">
s
</text>
<path d="M238.35,15.4765l 0.814553, 8.14553" fill="none" stroke="black"/>
<path d="M239.164,23.622l 1.62911, -12.2183" fill="none" stroke="black"/>
<path d="M240.793,11.4037h 8.14553" fill="none" stroke="black"/>
<text x="155.265" y="22.8075" fill="black" font-size="12.8453" font-family="Helvetica" font-style="oblique">
: Run 284113, 
</text>
<text x="56.7042" y="22.8075" fill="black" font-size="12.8453" font-family="Helvetica" font-weight="bold" font-style="oblique">
CMS Preliminary
</text>
<rect x="0.5" y="269.128" width="566.929" height="96.1173" fill="white"/>
<rect x="57.1929" y="269.128" width="453.543" height="58.6315" fill="white"/>
<rect x="57.1929" y="269.128" width="453.543" height="58.6315" fill="none" stroke="black"/>
<path d="M57.1929,327.76h 453.543" fill="none" stroke="black"/>
<path d="M84.1658,269.128v 58.6315" fill="none" stroke="black" stroke-dasharray=" 1, 2"/>
<path d="M184.065,269.128v 58.6315" fill="none" stroke="black" stroke-dasharray=" 1, 2"/>
<path d="M283.965,269.128v 58.6315" fill="none" stroke="black" stroke-dasharray=" 1, 2"/>
<path d="M383.864,269.128v 58.6315" fill="none" stroke="black" stroke-dasharray=" 1, 2"/>
<path d="M483.763,269.128v 58.6315" fill="none" stroke="black" stroke-dasharray=" 1, 2"/>
<path d="M84.1658,269.128v 58.6315" fill="none" stroke="black" stroke-dasharray=" 1, 2"/>
<path d="M483.763,269.128v 58.6315" fill="none" stroke="black" stroke-dasharray=" 1, 2"/>
<path d="M57.1929,327.76v -58.6315" fill="none" stroke="black"/>
<path d="M510.736,322.874h -453.543" fill="none" stroke="black" stroke-dasharray=" 1, 2"/>
<path d="M510.736,310.659h -453.543" fill="none" stroke="black" stroke-dasharray=" 1, 2"/>
<path d="M510.736,298.444h -453.543" fill="none" stroke="black" stroke-dasharray=" 1, 2"/>
<path d="M510.736,286.229h -453.543" fill="none" stroke="black" stroke-dasharray=" 1, 2"/>
<path d="M510.736,274.014h -453.543" fill="none" stroke="black" stroke-dasharray=" 1, 2"/>
<path d="M510.736,322.874h -453.543" fill="none" stroke="black" stroke-dasharray=" 1, 2"/>
<path d="M510.736,274.014h -453.543" fill="none" stroke="black" stroke-dasharray=" 1, 2"/>
<g stroke="black" stroke-width="1" fill="black">
<rect x="156.462" y="296.815" width="3.25821" height="3.25821"/>
<rect x="164.454" y="296.815" width="3.25821" height="3.25821"/>
<rect x="166.452" y="296.815" width="3.25821" height="3.25821"/>
<rect x="172.446" y="296.815" width="3.25821" height="3.25821"/>
<rect x="178.44" y="296.815" width="3.25821" height="3.25821"/>
<rect x="184.434" y="296.815" width="3.25821" height="3.25821"/>
<rect x="186.432" y="296.815" width="3.25821" height="3.25821"/>
<rect x="190.428" y="296.815" width="3.25821" height="3.25821"/>
<rect x="196.422" y="296.815" width="3.25821" height="3.25821"/>
<rect x="200.418" y="296.815" width="3.25821" height="3.25821"/>
<rect x="204.414" y="296.815" width="3.25821" height="3.25821"/>
<rect x="206.412" y="296.815" width="3.25821" height="3.25821"/>
<rect x="208.41" y="296.815" width="3.25821" height="3.25821"/>
<rect x="210.408" y="296.815" width="3.25821" height="3.25821"/>
<rect x="212.406" y="296.815" width="3.25821" height="3.25821"/>
<rect x="214.404" y="296.815" width="3.25821" height="3.25821"/>
<rect x="216.402" y="296.815" width="3.25821" height="3.25821"/>
<rect x="218.4" y="296.815" width="3.25821" height="3.25821"/>
<rect x="220.398" y="296.815" width="3.25821" height="3.25821"/>
<rect x="222.396" y="296.815" width="3.25821" height="3.25821"/>
<rect x="224.394" y="296.815" width="3.25821" height="3.25821"/>
<rect x="228.39" y="296.815" width="3.25821" height="3.25821"/>
<rect x="230.388" y="296.815" width="3.25821" height="3.25821"/>
<rect x="232.386" y="296.815" width="3.25821" height="3.25821"/>
<rect x="234.384" y="296.815" width="3.25821" height="3.25821"/>
<rect x="236.382" y="296.815" width="3.25821" height="3.25821"/>
<rect x="238.38" y="296.815" width="3.25821" height="3.25821"/>
<rect x="240.378" y="296.815" width="3.25821" height="3.25821"/>
<rect x="242.376" y="296.815" width="3.25821" height="3.25821"/>
<rect x="244.374" y="296.815" width="3.25821" height="3.25821"/>
<rect x="246.372" y="296.815" width="3.25821" height="3.25821"/>
<rect x="248.37" y="296.815" width="3.25821" height="3.25821"/>
<rect x="250.368" y="296.815" width="3.25821" height="3.25821"/>
<rect x="252.366" y="296.815" width="3.25821" height="3.25821"/>
<rect x="254.364" y="296.815" width="3.25821" height="3.25821"/>
<rect x="256.362" y="296.815" width="3.25821" height="3.25821"/>
<rect x="258.36" y="296.815" width="3.25821" height="3.25821"/>
<rect x="260.358" y="296.815" width="3.25821" height="3.25821"/>
<rect x="262.356" y="296.815" width="3.25821" height="3.25821"/>
<rect x="264.354" y="296.815" width="3.25821" height="3.25821"/>
<rect x="266.352" y="296.815" width="3.25821" height="3.25821"/>
<rect x="268.35" y="296.815" width="3.25821" height="3.25821"/>
<rect x="270.348" y="296.815" width="3.25821" height="3.25821"/>
<rect x="272.346" y="296.815" width="3.25821" height="3.25821"/>
<rect x="274.344" y="296.815" width="3.25821" height="3.25821"/>
<rect x="276.341" y="296.815" width="3.25821" height="3.25821"/>
<rect x="278.339" y="296.815" width="3.25821" height="3.25821"/>
<rect x="280.337" y="296.815" width="3.25821" height="3.25821"/>
<rect x="282.335" y="296.815" width="3.25821" height="3.25821"/>
<rect x="284.333" y="296.815" width="3.25821" height="3.25821"/>
</g>
<g stroke="black" stroke-width="1" fill="black">
<rect x="284.333" y="296.815" width="3.25821" height="3.25821"/>
<rect x="286.331" y="296.815" width="3.25821" height="3.25821"/>
<rect x="288.329" y="296.815" width="3.25821" height="3.25821"/>
<rect x="290.327" y="296.815" width="3.25821" height="3.25821"/>
<rect x="292.325" y="296.815" width="3.25821" height="3.25821"/>
<rect x="294.323" y="296.815" width="3.25821" height="3.25821"/>
<rect x="296.321" y="296.815" width="3.25821" height="3.25821"/>
<rect x="298.319" y="296.815" width="3.25821" height="3.25821"/>
<rect x="300.317" y="296.815" width="3.25821" height="3.25821"/>
<rect x="302.315" y="296.815" width="3.25821" height="3.25821"/>
<rect x="304.313" y="296.815" width="3.25821" height="3.25821"/>
<rect x="308.309" y="296.815" width="3.25821" height="3.25821"/>
<rect x="310.307" y="296.815" width="3.25821" height="3.25821"/>
<rect x="312.305" y="296.815" width="3.25821" height="3.25821"/>
<rect x="314.303" y="296.815" width="3.25821" height="3.25821"/>
<rect x="316.301" y="296.815" width="3.25821" height="3.25821"/>
<rect x="318.299" y="296.815" width="3.25821" height="3.25821"/>
<rect x="320.297" y="296.815" width="3.25821" height="3.25821"/>
<rect x="322.295" y="296.815" width="3.25821" height="3.25821"/>
<rect x="324.293" y="296.815" width="3.25821" height="3.25821"/>
<rect x="326.291" y="296.815" width="3.25821" height="3.25821"/>
<rect x="328.289" y="296.815" width="3.25821" height="3.25821"/>
<rect x="330.287" y="296.815" width="3.25821" height="3.25821"/>
<rect x="332.285" y="296.815" width="3.25821" height="3.25821"/>
<rect x="334.283" y="296.815" width="3.25821" height="3.25821"/>
<rect x="336.281" y="296.815" width="3.25821" height="3.25821"/>
<rect x="338.279" y="296.815" width="3.25821" height="3.25821"/>
<rect x="340.277" y="296.815" width="3.25821" height="3.25821"/>
<rect x="342.275" y="296.815" width="3.25821" height="3.25821"/>
<rect x="344.273" y="296.815" width="3.25821" height="3.25821"/>
<rect x="348.269" y="296.815" width="3.25821" height="3.25821"/>
<rect x="350.267" y="296.815" width="3.25821" height="3.25821"/>
<rect x="352.265" y="296.815" width="3.25821" height="3.25821"/>
<rect x="354.263" y="296.815" width="3.25821" height="3.25821"/>
<rect x="356.261" y="296.815" width="3.25821" height="3.25821"/>
<rect x="358.259" y="296.815" width="3.25821" height="3.25821"/>
<rect x="360.257" y="296.815" width="3.25821" height="3.25821"/>
<rect x="364.253" y="296.815" width="3.25821" height="3.25821"/>
<rect x="368.249" y="296.815" width="3.25821" height="3.25821"/>
<rect x="374.243" y="296.815" width="3.25821" height="3.25821"/>
<rect x="378.239" y="296.815" width="3.25821" height="3.25821"/>
<rect x="380.237" y="296.815" width="3.25821" height="3.25821"/>
<rect x="386.231" y="296.815" width="3.25821" height="3.25821"/>
<rect x="390.227" y="296.815" width="3.25821" height="3.25821"/>
<rect x="392.225" y="296.815" width="3.25821" height="3.25821"/>
<rect x="400.217" y="296.815" width="3.25821" height="3.25821"/>
<rect x="402.215" y="296.815" width="3.25821" height="3.25821"/>
<rect x="406.211" y="296.815" width="3.25821" height="3.25821"/>
<rect x="408.209" y="296.815" width="3.25821" height="3.25821"/>
</g>
<path d="M57.1929,327.76h 453.543" fill="none" stroke="black"/>
<text x="503.079" y="356.774" fill="black" font-size="13.7271" font-family="Times">
&#0951;
</text>
<text x="496.563" y="356.774" fill="black" font-size="13.7271" font-family="Helvetica">
 i
</text>
<text x="490.047" y="356.774" fill="black" font-size="13.7271" font-family="Times">
&#0964;
</text>
<text x="391.486" y="356.774" fill="black" font-size="13.7271" font-family="Helvetica">
Level-1 Trigger 
</text>
<path d="M84.1658,325.453v 2.30681" fill="none" stroke="black"/>
<path d="M104.146,326.607v 1.15341" fill="none" stroke="black"/>
<path d="M124.126,326.607v 1.15341" fill="none" stroke="black"/>
<path d="M144.105,326.607v 1.15341" fill="none" stroke="black"/>
<path d="M164.085,326.607v 1.15341" fill="none" stroke="black"/>
<path d="M184.065,325.453v 2.30681" fill="none" stroke="black"/>
<path d="M204.045,326.607v 1.15341" fill="none" stroke="black"/>
<path d="M224.025,326.607v 1.15341" fill="none" stroke="black"/>
<path d="M244.005,326.607v 1.15341" fill="none" stroke="black"/>
<path d="M263.985,326.607v 1.15341" fill="none" stroke="black"/>
<path d="M283.965,325.453v 2.30681" fill="none" stroke="black"/>
<path d="M303.944,326.607v 1.15341" fill="none" stroke="black"/>
<path d="M323.924,326.607v 1.15341" fill="none" stroke="black"/>
<path d="M343.904,326.607v 1.15341" fill="none" stroke="black"/>
<path d="M363.884,326.607v 1.15341" fill="none" stroke="black"/>
<path d="M383.864,325.453v 2.30681" fill="none" stroke="black"/>
<path d="M403.844,326.607v 1.15341" fill="none" stroke="black"/>
<path d="M423.824,326.607v 1.15341" fill="none" stroke="black"/>
<path d="M443.804,326.607v 1.15341" fill="none" stroke="black"/>
<path d="M463.784,326.607v 1.15341" fill="none" stroke="black"/>
<path d="M483.763,325.453v 2.30681" fill="none" stroke="black"/>
<path d="M84.1658,325.453v 2.30681" fill="none" stroke="black"/>
<path d="M64.1859,326.607v 1.15341" fill="none" stroke="black"/>
<path d="M483.763,325.453v 2.30681" fill="none" stroke="black"/>
<path d="M503.743,326.607v 1.15341" fill="none" stroke="black"/>
<text x="77.068" y="340.483" fill="black" font-size="11.0817" font-family="Helvetica">
100
</text>
<text x="71.3661" y="340.483" fill="black" font-size="11.0817" font-family="Times">
&#8722;
</text>
<text x="180.516" y="340.483" fill="black" font-size="11.0817" font-family="Helvetica">
50
</text>
<text x="174.814" y="340.483" fill="black" font-size="11.0817" font-family="Times">
&#8722;
</text>
<text x="280.706" y="340.483" fill="black" font-size="11.0817" font-family="Helvetica">
0
</text>
<text x="377.638" y="340.483" fill="black" font-size="11.0817" font-family="Helvetica">
50
</text>
<text x="474.57" y="340.483" fill="black" font-size="11.0817" font-family="Helvetica">
100
</text>
<path d="M57.1929,327.76v -58.6315" fill="none" stroke="black"/>
<g transform="rotate(-90,21.6784,321.749)">
<text x="21.6784" y="321.749" fill="black" font-size="13.7271" font-family="Helvetica">
HW/EM
</text>
</g>
<path d="M60.6512,322.874h -3.45827" fill="none" stroke="black"/>
<path d="M58.0575,319.82h -0.864567" fill="none" stroke="black"/>
<path d="M58.9221,316.767h -1.72913" fill="none" stroke="black"/>
<path d="M58.0575,313.713h -0.864567" fill="none" stroke="black"/>
<path d="M60.6512,310.659h -3.45827" fill="none" stroke="black"/>
<path d="M58.0575,307.605h -0.864567" fill="none" stroke="black"/>
<path d="M58.9221,304.552h -1.72913" fill="none" stroke="black"/>
<path d="M58.0575,301.498h -0.864567" fill="none" stroke="black"/>
<path d="M60.6512,298.444h -3.45827" fill="none" stroke="black"/>
<path d="M58.0575,295.39h -0.864567" fill="none" stroke="black"/>
<path d="M58.9221,292.337h -1.72913" fill="none" stroke="black"/>
<path d="M58.0575,289.283h -0.864567" fill="none" stroke="black"/>
<path d="M60.6512,286.229h -3.45827" fill="none" stroke="black"/>
<path d="M58.0575,283.176h -0.864567" fill="none" stroke="black"/>
<path d="M58.9221,280.122h -1.72913" fill="none" stroke="black"/>
<path d="M58.0575,277.068h -0.864567" fill="none" stroke="black"/>
<path d="M60.6512,274.014h -3.45827" fill="none" stroke="black"/>
<path d="M60.6512,322.874h -3.45827" fill="none" stroke="black"/>
<path d="M58.0575,325.928h -0.864567" fill="none" stroke="black"/>
<path d="M60.6512,274.014h -3.45827" fill="none" stroke="black"/>
<path d="M58.0575,270.961h -0.864567" fill="none" stroke="black"/>
<text x="38.784" y="326.636" fill="black" font-size="11.0817" font-family="Helvetica">
0.8
</text>
<text x="38.784" y="314.418" fill="black" font-size="11.0817" font-family="Helvetica">
0.9
</text>
<text x="49.3732" y="303.014" fill="black" font-size="11.0817" font-family="Helvetica">
1
</text>
<text x="40.4131" y="290.796" fill="black" font-size="11.0817" font-family="Helvetica">
1.1
</text>
<text x="38.784" y="278.577" fill="black" font-size="11.0817" font-family="Helvetica">
1.2
</text>
<path d="M57.1929,298.444h 453.543" fill="none" stroke="#0000ff"/></svg>
