<?xml version="1.0" standalone="no"?>
<svg width="567.429" height="384.969" viewBox="0 0 567.429 384.969" xmlns="http://www.w3.org/2000/svg">
<title>
compHwEmu_MPSums_MPSumEt.svg
</title>
<desc>
Creator: ROOT Version 6.06/01
CreationDate: Mon Dec  5 11:09:29 2016</desc>
<defs>
</defs>
<rect x="0.5" y="0" width="566.929" height="384.469" fill="white"/>
<rect x="0.5" y="0" width="566.929" height="269.128" fill="white"/>
<rect x="57.1929" y="26.9128" width="453.543" height="236.833" fill="white"/>
<rect x="57.1929" y="26.9128" width="453.543" height="236.833" fill="none" stroke="black"/>
<path d="M57.1929,263.746h 453.543" fill="none" stroke="black"/>
<path d="M57.2253,26.9128v 236.833" fill="none" stroke="black" stroke-dasharray=" 1, 2"/>
<path d="M122.017,26.9128v 236.833" fill="none" stroke="black" stroke-dasharray=" 1, 2"/>
<path d="M186.809,26.9128v 236.833" fill="none" stroke="black" stroke-dasharray=" 1, 2"/>
<path d="M251.601,26.9128v 236.833" fill="none" stroke="black" stroke-dasharray=" 1, 2"/>
<path d="M316.393,26.9128v 236.833" fill="none" stroke="black" stroke-dasharray=" 1, 2"/>
<path d="M381.185,26.9128v 236.833" fill="none" stroke="black" stroke-dasharray=" 1, 2"/>
<path d="M445.977,26.9128v 236.833" fill="none" stroke="black" stroke-dasharray=" 1, 2"/>
<path d="M57.2253,26.9128v 236.833" fill="none" stroke="black" stroke-dasharray=" 1, 2"/>
<path d="M445.977,26.9128v 236.833" fill="none" stroke="black" stroke-dasharray=" 1, 2"/>
<path d="M57.1929,263.746v -236.833" fill="none" stroke="black"/>
<g stroke="black" stroke-width="1" fill="black">
<rect x="58.8034" y="257.94" width="3.25821" height="3.25821"/>
<rect x="60.0992" y="220.347" width="3.25821" height="3.25821"/>
<rect x="61.3951" y="166.047" width="3.25821" height="3.25821"/>
<rect x="62.6909" y="36.5615" width="3.25821" height="3.25821"/>
<rect x="63.9868" y="69.9771" width="3.25821" height="3.25821"/>
<rect x="65.2826" y="115.924" width="3.25821" height="3.25821"/>
<rect x="66.5784" y="145.162" width="3.25821" height="3.25821"/>
<rect x="67.8743" y="216.17" width="3.25821" height="3.25821"/>
<rect x="69.1701" y="241.232" width="3.25821" height="3.25821"/>
<rect x="70.466" y="257.94" width="3.25821" height="3.25821"/>
</g>
<path d="M57.1929,263.746h 453.543" fill="none" stroke="black"/>
<path d="M57.2253,257.287v 6.45908" fill="none" stroke="black"/>
<path d="M70.1837,260.516v 3.22954" fill="none" stroke="black"/>
<path d="M83.1421,260.516v 3.22954" fill="none" stroke="black"/>
<path d="M96.1005,260.516v 3.22954" fill="none" stroke="black"/>
<path d="M109.059,260.516v 3.22954" fill="none" stroke="black"/>
<path d="M122.017,257.287v 6.45908" fill="none" stroke="black"/>
<path d="M134.976,260.516v 3.22954" fill="none" stroke="black"/>
<path d="M147.934,260.516v 3.22954" fill="none" stroke="black"/>
<path d="M160.892,260.516v 3.22954" fill="none" stroke="black"/>
<path d="M173.851,260.516v 3.22954" fill="none" stroke="black"/>
<path d="M186.809,257.287v 6.45908" fill="none" stroke="black"/>
<path d="M199.767,260.516v 3.22954" fill="none" stroke="black"/>
<path d="M212.726,260.516v 3.22954" fill="none" stroke="black"/>
<path d="M225.684,260.516v 3.22954" fill="none" stroke="black"/>
<path d="M238.643,260.516v 3.22954" fill="none" stroke="black"/>
<path d="M251.601,257.287v 6.45908" fill="none" stroke="black"/>
<path d="M264.559,260.516v 3.22954" fill="none" stroke="black"/>
<path d="M277.518,260.516v 3.22954" fill="none" stroke="black"/>
<path d="M290.476,260.516v 3.22954" fill="none" stroke="black"/>
<path d="M303.435,260.516v 3.22954" fill="none" stroke="black"/>
<path d="M316.393,257.287v 6.45908" fill="none" stroke="black"/>
<path d="M329.351,260.516v 3.22954" fill="none" stroke="black"/>
<path d="M342.31,260.516v 3.22954" fill="none" stroke="black"/>
<path d="M355.268,260.516v 3.22954" fill="none" stroke="black"/>
<path d="M368.226,260.516v 3.22954" fill="none" stroke="black"/>
<path d="M381.185,257.287v 6.45908" fill="none" stroke="black"/>
<path d="M394.143,260.516v 3.22954" fill="none" stroke="black"/>
<path d="M407.102,260.516v 3.22954" fill="none" stroke="black"/>
<path d="M420.06,260.516v 3.22954" fill="none" stroke="black"/>
<path d="M433.018,260.516v 3.22954" fill="none" stroke="black"/>
<path d="M445.977,257.287v 6.45908" fill="none" stroke="black"/>
<path d="M57.2253,257.287v 6.45908" fill="none" stroke="black"/>
<path d="M445.977,257.287v 6.45908" fill="none" stroke="black"/>
<path d="M458.935,260.516v 3.22954" fill="none" stroke="black"/>
<path d="M471.893,260.516v 3.22954" fill="none" stroke="black"/>
<path d="M484.852,260.516v 3.22954" fill="none" stroke="black"/>
<path d="M497.81,260.516v 3.22954" fill="none" stroke="black"/>
<text x="55.8896" y="264.73" fill="black" font-size="0.5" font-family="Helvetica">
0
</text>
<text x="120.239" y="264.73" fill="black" font-size="0.5" font-family="Helvetica">
1000
</text>
<text x="184.589" y="264.73" fill="black" font-size="0.5" font-family="Helvetica">
2000
</text>
<text x="249.753" y="264.73" fill="black" font-size="0.5" font-family="Helvetica">
3000
</text>
<text x="314.103" y="264.73" fill="black" font-size="0.5" font-family="Helvetica">
4000
</text>
<text x="379.267" y="264.73" fill="black" font-size="0.5" font-family="Helvetica">
5000
</text>
<text x="443.617" y="264.73" fill="black" font-size="0.5" font-family="Helvetica">
6000
</text>
<path d="M57.1929,263.746v -236.833" fill="none" stroke="black"/>
<g transform="rotate(-90,17.6056,178.387)">
<text x="17.6056" y="178.387" fill="black" font-size="15.8082" font-family="Helvetica">
Number of candidates
</text>
</g>
<path d="M62.1819,263.746h -4.98898" fill="none" stroke="black"/>
<path d="M59.6874,255.392h -2.49449" fill="none" stroke="black"/>
<path d="M59.6874,247.038h -2.49449" fill="none" stroke="black"/>
<path d="M59.6874,238.684h -2.49449" fill="none" stroke="black"/>
<path d="M59.6874,230.33h -2.49449" fill="none" stroke="black"/>
<path d="M62.1819,221.976h -4.98898" fill="none" stroke="black"/>
<path d="M59.6874,213.622h -2.49449" fill="none" stroke="black"/>
<path d="M59.6874,205.269h -2.49449" fill="none" stroke="black"/>
<path d="M59.6874,196.915h -2.49449" fill="none" stroke="black"/>
<path d="M59.6874,188.561h -2.49449" fill="none" stroke="black"/>
<path d="M62.1819,180.207h -4.98898" fill="none" stroke="black"/>
<path d="M59.6874,171.853h -2.49449" fill="none" stroke="black"/>
<path d="M59.6874,163.499h -2.49449" fill="none" stroke="black"/>
<path d="M59.6874,155.145h -2.49449" fill="none" stroke="black"/>
<path d="M59.6874,146.791h -2.49449" fill="none" stroke="black"/>
<path d="M62.1819,138.437h -4.98898" fill="none" stroke="black"/>
<path d="M59.6874,130.083h -2.49449" fill="none" stroke="black"/>
<path d="M59.6874,121.73h -2.49449" fill="none" stroke="black"/>
<path d="M59.6874,113.376h -2.49449" fill="none" stroke="black"/>
<path d="M59.6874,105.022h -2.49449" fill="none" stroke="black"/>
<path d="M62.1819,96.6679h -4.98898" fill="none" stroke="black"/>
<path d="M59.6874,88.314h -2.49449" fill="none" stroke="black"/>
<path d="M59.6874,79.9601h -2.49449" fill="none" stroke="black"/>
<path d="M59.6874,71.6062h -2.49449" fill="none" stroke="black"/>
<path d="M59.6874,63.2523h -2.49449" fill="none" stroke="black"/>
<path d="M62.1819,54.8984h -4.98898" fill="none" stroke="black"/>
<path d="M62.1819,54.8984h -4.98898" fill="none" stroke="black"/>
<path d="M59.6874,46.5445h -2.49449" fill="none" stroke="black"/>
<path d="M59.6874,38.1906h -2.49449" fill="none" stroke="black"/>
<path d="M59.6874,29.8367h -2.49449" fill="none" stroke="black"/>
<text x="47.7441" y="267.988" fill="black" font-size="11.6108" font-family="Helvetica">
0
</text>
<text x="41.2277" y="226.446" fill="black" font-size="11.6108" font-family="Helvetica">
10
</text>
<text x="41.2277" y="184.904" fill="black" font-size="11.6108" font-family="Helvetica">
20
</text>
<text x="41.2277" y="142.547" fill="black" font-size="11.6108" font-family="Helvetica">
30
</text>
<text x="41.2277" y="101.005" fill="black" font-size="11.6108" font-family="Helvetica">
40
</text>
<text x="41.2277" y="59.4624" fill="black" font-size="11.6108" font-family="Helvetica">
50
</text>
<path d="M57.1929,263.746h 2.59168v -4.17695h 1.29584v -37.5925h 1.29584v -54.3003h 1.29584v -129.485h 1.29584v 33.4156h 1.29584v 45.9464h 1.29584v 29.2386h 1.29584v 71.0081h 1.29584v 25.0617h 1.29584v 16.7078h 1.29584v 4.17695h 437.993" fill="none"
 stroke="#ff0000"/>
<text x="387.413" y="23.622" fill="black" font-size="9.79954" font-family="Helvetica">
Hardware
</text>
<g stroke="black" stroke-width="1" fill="black">
<rect x="376.587" y="18.5555" width="3.25821" height="3.25821"/>
</g>
<text x="463.166" y="23.622" fill="black" font-size="9.79954" font-family="Helvetica">
Emulator
</text>
<path d="M447.68,20.1846h 12.8976" fill="none" stroke="#ff0000"/>
<text x="248.939" y="22.8075" fill="black" font-size="12.8453" font-family="Helvetica" font-style="oblique">
 = 13 TeV, SingleMu
</text>
<text x="242.422" y="22.8075" fill="black" font-size="12.8453" font-family="Helvetica" font-style="oblique">
s
</text>
<path d="M238.35,15.4765l 0.814553, 8.14553" fill="none" stroke="black"/>
<path d="M239.164,23.622l 1.62911, -12.2183" fill="none" stroke="black"/>
<path d="M240.793,11.4037h 8.14553" fill="none" stroke="black"/>
<text x="155.265" y="22.8075" fill="black" font-size="12.8453" font-family="Helvetica" font-style="oblique">
: Run 284113, 
</text>
<text x="56.7042" y="22.8075" fill="black" font-size="12.8453" font-family="Helvetica" font-weight="bold" font-style="oblique">
CMS Preliminary
</text>
<rect x="0.5" y="269.128" width="566.929" height="96.1173" fill="white"/>
<rect x="57.1929" y="269.128" width="453.543" height="58.6315" fill="white"/>
<rect x="57.1929" y="269.128" width="453.543" height="58.6315" fill="none" stroke="black"/>
<path d="M57.1929,327.76h 453.543" fill="none" stroke="black"/>
<path d="M57.2253,269.128v 58.6315" fill="none" stroke="black" stroke-dasharray=" 1, 2"/>
<path d="M122.017,269.128v 58.6315" fill="none" stroke="black" stroke-dasharray=" 1, 2"/>
<path d="M186.809,269.128v 58.6315" fill="none" stroke="black" stroke-dasharray=" 1, 2"/>
<path d="M251.601,269.128v 58.6315" fill="none" stroke="black" stroke-dasharray=" 1, 2"/>
<path d="M316.393,269.128v 58.6315" fill="none" stroke="black" stroke-dasharray=" 1, 2"/>
<path d="M381.185,269.128v 58.6315" fill="none" stroke="black" stroke-dasharray=" 1, 2"/>
<path d="M445.977,269.128v 58.6315" fill="none" stroke="black" stroke-dasharray=" 1, 2"/>
<path d="M57.2253,269.128v 58.6315" fill="none" stroke="black" stroke-dasharray=" 1, 2"/>
<path d="M445.977,269.128v 58.6315" fill="none" stroke="black" stroke-dasharray=" 1, 2"/>
<path d="M57.1929,327.76v -58.6315" fill="none" stroke="black"/>
<path d="M510.736,322.874h -453.543" fill="none" stroke="black" stroke-dasharray=" 1, 2"/>
<path d="M510.736,310.659h -453.543" fill="none" stroke="black" stroke-dasharray=" 1, 2"/>
<path d="M510.736,298.444h -453.543" fill="none" stroke="black" stroke-dasharray=" 1, 2"/>
<path d="M510.736,286.229h -453.543" fill="none" stroke="black" stroke-dasharray=" 1, 2"/>
<path d="M510.736,274.014h -453.543" fill="none" stroke="black" stroke-dasharray=" 1, 2"/>
<path d="M510.736,322.874h -453.543" fill="none" stroke="black" stroke-dasharray=" 1, 2"/>
<path d="M510.736,274.014h -453.543" fill="none" stroke="black" stroke-dasharray=" 1, 2"/>
<g stroke="black" stroke-width="1" fill="black">
<rect x="58.8034" y="296.815" width="3.25821" height="3.25821"/>
<rect x="60.0992" y="296.815" width="3.25821" height="3.25821"/>
<rect x="61.3951" y="296.815" width="3.25821" height="3.25821"/>
<rect x="62.6909" y="296.815" width="3.25821" height="3.25821"/>
<rect x="63.9868" y="296.815" width="3.25821" height="3.25821"/>
<rect x="65.2826" y="296.815" width="3.25821" height="3.25821"/>
<rect x="66.5784" y="296.815" width="3.25821" height="3.25821"/>
<rect x="67.8743" y="296.815" width="3.25821" height="3.25821"/>
<rect x="69.1701" y="296.815" width="3.25821" height="3.25821"/>
<rect x="70.466" y="296.815" width="3.25821" height="3.25821"/>
</g>
<path d="M57.1929,327.76h 453.543" fill="none" stroke="black"/>
<text x="504.709" y="362.476" fill="black" font-size="9.3181" font-family="Helvetica">
T
</text>
<text x="373.565" y="354.331" fill="black" font-size="13.7271" font-family="Helvetica">
Level-1 Trigger Jet iE
</text>
<path d="M57.2253,325.453v 2.30681" fill="none" stroke="black"/>
<path d="M70.1837,326.607v 1.15341" fill="none" stroke="black"/>
<path d="M83.1421,326.607v 1.15341" fill="none" stroke="black"/>
<path d="M96.1005,326.607v 1.15341" fill="none" stroke="black"/>
<path d="M109.059,326.607v 1.15341" fill="none" stroke="black"/>
<path d="M122.017,325.453v 2.30681" fill="none" stroke="black"/>
<path d="M134.976,326.607v 1.15341" fill="none" stroke="black"/>
<path d="M147.934,326.607v 1.15341" fill="none" stroke="black"/>
<path d="M160.892,326.607v 1.15341" fill="none" stroke="black"/>
<path d="M173.851,326.607v 1.15341" fill="none" stroke="black"/>
<path d="M186.809,325.453v 2.30681" fill="none" stroke="black"/>
<path d="M199.767,326.607v 1.15341" fill="none" stroke="black"/>
<path d="M212.726,326.607v 1.15341" fill="none" stroke="black"/>
<path d="M225.684,326.607v 1.15341" fill="none" stroke="black"/>
<path d="M238.643,326.607v 1.15341" fill="none" stroke="black"/>
<path d="M251.601,325.453v 2.30681" fill="none" stroke="black"/>
<path d="M264.559,326.607v 1.15341" fill="none" stroke="black"/>
<path d="M277.518,326.607v 1.15341" fill="none" stroke="black"/>
<path d="M290.476,326.607v 1.15341" fill="none" stroke="black"/>
<path d="M303.435,326.607v 1.15341" fill="none" stroke="black"/>
<path d="M316.393,325.453v 2.30681" fill="none" stroke="black"/>
<path d="M329.351,326.607v 1.15341" fill="none" stroke="black"/>
<path d="M342.31,326.607v 1.15341" fill="none" stroke="black"/>
<path d="M355.268,326.607v 1.15341" fill="none" stroke="black"/>
<path d="M368.226,326.607v 1.15341" fill="none" stroke="black"/>
<path d="M381.185,325.453v 2.30681" fill="none" stroke="black"/>
<path d="M394.143,326.607v 1.15341" fill="none" stroke="black"/>
<path d="M407.102,326.607v 1.15341" fill="none" stroke="black"/>
<path d="M420.06,326.607v 1.15341" fill="none" stroke="black"/>
<path d="M433.018,326.607v 1.15341" fill="none" stroke="black"/>
<path d="M445.977,325.453v 2.30681" fill="none" stroke="black"/>
<path d="M57.2253,325.453v 2.30681" fill="none" stroke="black"/>
<path d="M445.977,325.453v 2.30681" fill="none" stroke="black"/>
<path d="M458.935,326.607v 1.15341" fill="none" stroke="black"/>
<path d="M471.893,326.607v 1.15341" fill="none" stroke="black"/>
<path d="M484.852,326.607v 1.15341" fill="none" stroke="black"/>
<path d="M497.81,326.607v 1.15341" fill="none" stroke="black"/>
<text x="53.446" y="340.483" fill="black" font-size="11.0817" font-family="Helvetica">
0
</text>
<text x="109.65" y="340.483" fill="black" font-size="11.0817" font-family="Helvetica">
1000
</text>
<text x="174" y="340.483" fill="black" font-size="11.0817" font-family="Helvetica">
2000
</text>
<text x="239.164" y="340.483" fill="black" font-size="11.0817" font-family="Helvetica">
3000
</text>
<text x="303.514" y="340.483" fill="black" font-size="11.0817" font-family="Helvetica">
4000
</text>
<text x="368.678" y="340.483" fill="black" font-size="11.0817" font-family="Helvetica">
5000
</text>
<text x="433.028" y="340.483" fill="black" font-size="11.0817" font-family="Helvetica">
6000
</text>
<path d="M57.1929,327.76v -58.6315" fill="none" stroke="black"/>
<g transform="rotate(-90,21.6784,321.749)">
<text x="21.6784" y="321.749" fill="black" font-size="13.7271" font-family="Helvetica">
HW/EM
</text>
</g>
<path d="M60.6512,322.874h -3.45827" fill="none" stroke="black"/>
<path d="M58.0575,319.82h -0.864567" fill="none" stroke="black"/>
<path d="M58.9221,316.767h -1.72913" fill="none" stroke="black"/>
<path d="M58.0575,313.713h -0.864567" fill="none" stroke="black"/>
<path d="M60.6512,310.659h -3.45827" fill="none" stroke="black"/>
<path d="M58.0575,307.605h -0.864567" fill="none" stroke="black"/>
<path d="M58.9221,304.552h -1.72913" fill="none" stroke="black"/>
<path d="M58.0575,301.498h -0.864567" fill="none" stroke="black"/>
<path d="M60.6512,298.444h -3.45827" fill="none" stroke="black"/>
<path d="M58.0575,295.39h -0.864567" fill="none" stroke="black"/>
<path d="M58.9221,292.337h -1.72913" fill="none" stroke="black"/>
<path d="M58.0575,289.283h -0.864567" fill="none" stroke="black"/>
<path d="M60.6512,286.229h -3.45827" fill="none" stroke="black"/>
<path d="M58.0575,283.176h -0.864567" fill="none" stroke="black"/>
<path d="M58.9221,280.122h -1.72913" fill="none" stroke="black"/>
<path d="M58.0575,277.068h -0.864567" fill="none" stroke="black"/>
<path d="M60.6512,274.014h -3.45827" fill="none" stroke="black"/>
<path d="M60.6512,322.874h -3.45827" fill="none" stroke="black"/>
<path d="M58.0575,325.928h -0.864567" fill="none" stroke="black"/>
<path d="M60.6512,274.014h -3.45827" fill="none" stroke="black"/>
<path d="M58.0575,270.961h -0.864567" fill="none" stroke="black"/>
<text x="38.784" y="326.636" fill="black" font-size="11.0817" font-family="Helvetica">
0.8
</text>
<text x="38.784" y="314.418" fill="black" font-size="11.0817" font-family="Helvetica">
0.9
</text>
<text x="49.3732" y="303.014" fill="black" font-size="11.0817" font-family="Helvetica">
1
</text>
<text x="40.4131" y="290.796" fill="black" font-size="11.0817" font-family="Helvetica">
1.1
</text>
<text x="38.784" y="278.577" fill="black" font-size="11.0817" font-family="Helvetica">
1.2
</text>
<path d="M57.1929,298.444h 453.543" fill="none" stroke="#0000ff"/></svg>
