<?xml version="1.0" standalone="no"?>
<svg width="567.429" height="384.969" viewBox="0 0 567.429 384.969" xmlns="http://www.w3.org/2000/svg">
<title>
compHwEmu_DemuxEgs_EgPhi.svg
</title>
<desc>
Creator: ROOT Version 6.06/01
CreationDate: Mon Dec  5 11:09:29 2016</desc>
<defs>
</defs>
<rect x="0.5" y="0" width="566.929" height="384.469" fill="white"/>
<rect x="0.5" y="0" width="566.929" height="269.128" fill="white"/>
<rect x="57.1929" y="26.9128" width="453.543" height="236.833" fill="white"/>
<rect x="57.1929" y="26.9128" width="453.543" height="236.833" fill="none" stroke="black"/>
<path d="M57.1929,263.746h 453.543" fill="none" stroke="black"/>
<path d="M58.7677,26.9128v 236.833" fill="none" stroke="black" stroke-dasharray=" 1, 2"/>
<path d="M121.76,26.9128v 236.833" fill="none" stroke="black" stroke-dasharray=" 1, 2"/>
<path d="M184.752,26.9128v 236.833" fill="none" stroke="black" stroke-dasharray=" 1, 2"/>
<path d="M247.744,26.9128v 236.833" fill="none" stroke="black" stroke-dasharray=" 1, 2"/>
<path d="M310.736,26.9128v 236.833" fill="none" stroke="black" stroke-dasharray=" 1, 2"/>
<path d="M373.728,26.9128v 236.833" fill="none" stroke="black" stroke-dasharray=" 1, 2"/>
<path d="M436.72,26.9128v 236.833" fill="none" stroke="black" stroke-dasharray=" 1, 2"/>
<path d="M499.713,26.9128v 236.833" fill="none" stroke="black" stroke-dasharray=" 1, 2"/>
<path d="M58.7677,26.9128v 236.833" fill="none" stroke="black" stroke-dasharray=" 1, 2"/>
<path d="M499.713,26.9128v 236.833" fill="none" stroke="black" stroke-dasharray=" 1, 2"/>
<path d="M57.1929,263.746v -236.833" fill="none" stroke="black"/>
<g stroke="black" stroke-width="1" fill="black">
<rect x="60.2882" y="136.808" width="3.25821" height="3.25821"/>
<rect x="66.5874" y="161.87" width="3.25821" height="3.25821"/>
<rect x="69.737" y="237.055" width="3.25821" height="3.25821"/>
<rect x="72.8866" y="136.808" width="3.25821" height="3.25821"/>
<rect x="79.1859" y="211.993" width="3.25821" height="3.25821"/>
<rect x="85.4851" y="186.932" width="3.25821" height="3.25821"/>
<rect x="91.7843" y="111.747" width="3.25821" height="3.25821"/>
<rect x="98.0835" y="186.932" width="3.25821" height="3.25821"/>
<rect x="104.383" y="86.6849" width="3.25821" height="3.25821"/>
<rect x="110.682" y="161.87" width="3.25821" height="3.25821"/>
<rect x="116.981" y="211.993" width="3.25821" height="3.25821"/>
<rect x="123.28" y="211.993" width="3.25821" height="3.25821"/>
<rect x="129.58" y="161.87" width="3.25821" height="3.25821"/>
<rect x="132.729" y="237.055" width="3.25821" height="3.25821"/>
<rect x="135.879" y="161.87" width="3.25821" height="3.25821"/>
<rect x="142.178" y="61.6232" width="3.25821" height="3.25821"/>
<rect x="145.328" y="237.055" width="3.25821" height="3.25821"/>
<rect x="148.477" y="161.87" width="3.25821" height="3.25821"/>
<rect x="154.776" y="237.055" width="3.25821" height="3.25821"/>
<rect x="161.076" y="136.808" width="3.25821" height="3.25821"/>
<rect x="164.225" y="237.055" width="3.25821" height="3.25821"/>
<rect x="167.375" y="36.5615" width="3.25821" height="3.25821"/>
<rect x="173.674" y="161.87" width="3.25821" height="3.25821"/>
<rect x="176.824" y="237.055" width="3.25821" height="3.25821"/>
<rect x="179.973" y="186.932" width="3.25821" height="3.25821"/>
<rect x="186.272" y="161.87" width="3.25821" height="3.25821"/>
<rect x="192.572" y="111.747" width="3.25821" height="3.25821"/>
<rect x="198.871" y="186.932" width="3.25821" height="3.25821"/>
<rect x="202.021" y="237.055" width="3.25821" height="3.25821"/>
<rect x="205.17" y="136.808" width="3.25821" height="3.25821"/>
<rect x="211.469" y="186.932" width="3.25821" height="3.25821"/>
<rect x="217.769" y="161.87" width="3.25821" height="3.25821"/>
<rect x="224.068" y="111.747" width="3.25821" height="3.25821"/>
<rect x="230.367" y="211.993" width="3.25821" height="3.25821"/>
<rect x="236.666" y="136.808" width="3.25821" height="3.25821"/>
<rect x="242.965" y="186.932" width="3.25821" height="3.25821"/>
<rect x="246.115" y="237.055" width="3.25821" height="3.25821"/>
<rect x="249.265" y="211.993" width="3.25821" height="3.25821"/>
<rect x="252.414" y="186.932" width="3.25821" height="3.25821"/>
<rect x="255.564" y="161.87" width="3.25821" height="3.25821"/>
<rect x="261.863" y="211.993" width="3.25821" height="3.25821"/>
<rect x="268.162" y="237.055" width="3.25821" height="3.25821"/>
<rect x="274.461" y="136.808" width="3.25821" height="3.25821"/>
<rect x="280.761" y="186.932" width="3.25821" height="3.25821"/>
<rect x="287.06" y="161.87" width="3.25821" height="3.25821"/>
<rect x="293.359" y="136.808" width="3.25821" height="3.25821"/>
<rect x="296.509" y="237.055" width="3.25821" height="3.25821"/>
<rect x="299.658" y="237.055" width="3.25821" height="3.25821"/>
<rect x="302.808" y="237.055" width="3.25821" height="3.25821"/>
<rect x="305.958" y="237.055" width="3.25821" height="3.25821"/>
</g>
<g stroke="black" stroke-width="1" fill="black">
<rect x="305.958" y="237.055" width="3.25821" height="3.25821"/>
<rect x="312.257" y="211.993" width="3.25821" height="3.25821"/>
<rect x="318.556" y="161.87" width="3.25821" height="3.25821"/>
<rect x="324.855" y="86.6849" width="3.25821" height="3.25821"/>
<rect x="331.154" y="186.932" width="3.25821" height="3.25821"/>
<rect x="334.304" y="237.055" width="3.25821" height="3.25821"/>
<rect x="337.454" y="161.87" width="3.25821" height="3.25821"/>
<rect x="340.603" y="237.055" width="3.25821" height="3.25821"/>
<rect x="343.753" y="86.6849" width="3.25821" height="3.25821"/>
<rect x="350.052" y="186.932" width="3.25821" height="3.25821"/>
<rect x="356.351" y="136.808" width="3.25821" height="3.25821"/>
<rect x="362.65" y="186.932" width="3.25821" height="3.25821"/>
<rect x="365.8" y="237.055" width="3.25821" height="3.25821"/>
<rect x="368.95" y="186.932" width="3.25821" height="3.25821"/>
<rect x="375.249" y="186.932" width="3.25821" height="3.25821"/>
<rect x="381.548" y="237.055" width="3.25821" height="3.25821"/>
<rect x="384.698" y="237.055" width="3.25821" height="3.25821"/>
<rect x="387.847" y="161.87" width="3.25821" height="3.25821"/>
<rect x="394.146" y="136.808" width="3.25821" height="3.25821"/>
<rect x="397.296" y="237.055" width="3.25821" height="3.25821"/>
<rect x="400.446" y="211.993" width="3.25821" height="3.25821"/>
<rect x="406.745" y="136.808" width="3.25821" height="3.25821"/>
<rect x="413.044" y="211.993" width="3.25821" height="3.25821"/>
<rect x="419.343" y="136.808" width="3.25821" height="3.25821"/>
<rect x="425.643" y="186.932" width="3.25821" height="3.25821"/>
<rect x="428.792" y="237.055" width="3.25821" height="3.25821"/>
<rect x="431.942" y="211.993" width="3.25821" height="3.25821"/>
<rect x="438.241" y="237.055" width="3.25821" height="3.25821"/>
<rect x="444.54" y="161.87" width="3.25821" height="3.25821"/>
<rect x="447.69" y="237.055" width="3.25821" height="3.25821"/>
<rect x="450.839" y="136.808" width="3.25821" height="3.25821"/>
<rect x="453.989" y="237.055" width="3.25821" height="3.25821"/>
<rect x="457.139" y="186.932" width="3.25821" height="3.25821"/>
<rect x="460.288" y="237.055" width="3.25821" height="3.25821"/>
<rect x="463.438" y="161.87" width="3.25821" height="3.25821"/>
<rect x="466.587" y="237.055" width="3.25821" height="3.25821"/>
<rect x="476.036" y="237.055" width="3.25821" height="3.25821"/>
<rect x="479.186" y="237.055" width="3.25821" height="3.25821"/>
<rect x="482.335" y="161.87" width="3.25821" height="3.25821"/>
<rect x="485.485" y="237.055" width="3.25821" height="3.25821"/>
<rect x="488.635" y="161.87" width="3.25821" height="3.25821"/>
<rect x="491.784" y="237.055" width="3.25821" height="3.25821"/>
<rect x="494.934" y="111.747" width="3.25821" height="3.25821"/>
<rect x="501.233" y="186.932" width="3.25821" height="3.25821"/>
<rect x="507.532" y="36.5615" width="3.25821" height="3.25821"/>
</g>
<path d="M57.1929,263.746h 453.543" fill="none" stroke="black"/>
<path d="M58.7677,257.287v 6.45908" fill="none" stroke="black"/>
<path d="M74.5158,260.516v 3.22954" fill="none" stroke="black"/>
<path d="M90.2638,260.516v 3.22954" fill="none" stroke="black"/>
<path d="M106.012,260.516v 3.22954" fill="none" stroke="black"/>
<path d="M121.76,257.287v 6.45908" fill="none" stroke="black"/>
<path d="M137.508,260.516v 3.22954" fill="none" stroke="black"/>
<path d="M153.256,260.516v 3.22954" fill="none" stroke="black"/>
<path d="M169.004,260.516v 3.22954" fill="none" stroke="black"/>
<path d="M184.752,257.287v 6.45908" fill="none" stroke="black"/>
<path d="M200.5,260.516v 3.22954" fill="none" stroke="black"/>
<path d="M216.248,260.516v 3.22954" fill="none" stroke="black"/>
<path d="M231.996,260.516v 3.22954" fill="none" stroke="black"/>
<path d="M247.744,257.287v 6.45908" fill="none" stroke="black"/>
<path d="M263.492,260.516v 3.22954" fill="none" stroke="black"/>
<path d="M279.24,260.516v 3.22954" fill="none" stroke="black"/>
<path d="M294.988,260.516v 3.22954" fill="none" stroke="black"/>
<path d="M310.736,257.287v 6.45908" fill="none" stroke="black"/>
<path d="M326.484,260.516v 3.22954" fill="none" stroke="black"/>
<path d="M342.232,260.516v 3.22954" fill="none" stroke="black"/>
<path d="M357.98,260.516v 3.22954" fill="none" stroke="black"/>
<path d="M373.728,257.287v 6.45908" fill="none" stroke="black"/>
<path d="M389.476,260.516v 3.22954" fill="none" stroke="black"/>
<path d="M405.224,260.516v 3.22954" fill="none" stroke="black"/>
<path d="M420.972,260.516v 3.22954" fill="none" stroke="black"/>
<path d="M436.72,257.287v 6.45908" fill="none" stroke="black"/>
<path d="M452.469,260.516v 3.22954" fill="none" stroke="black"/>
<path d="M468.217,260.516v 3.22954" fill="none" stroke="black"/>
<path d="M483.965,260.516v 3.22954" fill="none" stroke="black"/>
<path d="M499.713,257.287v 6.45908" fill="none" stroke="black"/>
<path d="M58.7677,257.287v 6.45908" fill="none" stroke="black"/>
<path d="M499.713,257.287v 6.45908" fill="none" stroke="black"/>
<text x="57.5187" y="264.73" fill="black" font-size="0.5" font-family="Helvetica">
0
</text>
<text x="119.425" y="264.73" fill="black" font-size="0.5" font-family="Helvetica">
20
</text>
<text x="182.96" y="264.73" fill="black" font-size="0.5" font-family="Helvetica">
40
</text>
<text x="246.495" y="264.73" fill="black" font-size="0.5" font-family="Helvetica">
60
</text>
<text x="308.401" y="264.73" fill="black" font-size="0.5" font-family="Helvetica">
80
</text>
<text x="372.751" y="264.73" fill="black" font-size="0.5" font-family="Helvetica">
100
</text>
<text x="435.471" y="264.73" fill="black" font-size="0.5" font-family="Helvetica">
120
</text>
<text x="498.192" y="264.73" fill="black" font-size="0.5" font-family="Helvetica">
140
</text>
<path d="M57.1929,263.746v -236.833" fill="none" stroke="black"/>
<g transform="rotate(-90,17.6056,178.387)">
<text x="17.6056" y="178.387" fill="black" font-size="15.8082" font-family="Helvetica">
Number of candidates
</text>
</g>
<path d="M62.1819,263.746h -4.98898" fill="none" stroke="black"/>
<path d="M59.6874,258.734h -2.49449" fill="none" stroke="black"/>
<path d="M59.6874,253.721h -2.49449" fill="none" stroke="black"/>
<path d="M59.6874,248.709h -2.49449" fill="none" stroke="black"/>
<path d="M59.6874,243.697h -2.49449" fill="none" stroke="black"/>
<path d="M62.1819,238.684h -4.98898" fill="none" stroke="black"/>
<path d="M59.6874,233.672h -2.49449" fill="none" stroke="black"/>
<path d="M59.6874,228.659h -2.49449" fill="none" stroke="black"/>
<path d="M59.6874,223.647h -2.49449" fill="none" stroke="black"/>
<path d="M59.6874,218.635h -2.49449" fill="none" stroke="black"/>
<path d="M62.1819,213.622h -4.98898" fill="none" stroke="black"/>
<path d="M59.6874,208.61h -2.49449" fill="none" stroke="black"/>
<path d="M59.6874,203.598h -2.49449" fill="none" stroke="black"/>
<path d="M59.6874,198.585h -2.49449" fill="none" stroke="black"/>
<path d="M59.6874,193.573h -2.49449" fill="none" stroke="black"/>
<path d="M62.1819,188.561h -4.98898" fill="none" stroke="black"/>
<path d="M59.6874,183.548h -2.49449" fill="none" stroke="black"/>
<path d="M59.6874,178.536h -2.49449" fill="none" stroke="black"/>
<path d="M59.6874,173.524h -2.49449" fill="none" stroke="black"/>
<path d="M59.6874,168.511h -2.49449" fill="none" stroke="black"/>
<path d="M62.1819,163.499h -4.98898" fill="none" stroke="black"/>
<path d="M59.6874,158.487h -2.49449" fill="none" stroke="black"/>
<path d="M59.6874,153.474h -2.49449" fill="none" stroke="black"/>
<path d="M59.6874,148.462h -2.49449" fill="none" stroke="black"/>
<path d="M59.6874,143.45h -2.49449" fill="none" stroke="black"/>
<path d="M62.1819,138.437h -4.98898" fill="none" stroke="black"/>
<path d="M59.6874,133.425h -2.49449" fill="none" stroke="black"/>
<path d="M59.6874,128.413h -2.49449" fill="none" stroke="black"/>
<path d="M59.6874,123.4h -2.49449" fill="none" stroke="black"/>
<path d="M59.6874,118.388h -2.49449" fill="none" stroke="black"/>
<path d="M62.1819,113.376h -4.98898" fill="none" stroke="black"/>
<path d="M59.6874,108.363h -2.49449" fill="none" stroke="black"/>
<path d="M59.6874,103.351h -2.49449" fill="none" stroke="black"/>
<path d="M59.6874,98.3387h -2.49449" fill="none" stroke="black"/>
<path d="M59.6874,93.3263h -2.49449" fill="none" stroke="black"/>
<path d="M62.1819,88.314h -4.98898" fill="none" stroke="black"/>
<path d="M59.6874,83.3017h -2.49449" fill="none" stroke="black"/>
<path d="M59.6874,78.2893h -2.49449" fill="none" stroke="black"/>
<path d="M59.6874,73.277h -2.49449" fill="none" stroke="black"/>
<path d="M59.6874,68.2646h -2.49449" fill="none" stroke="black"/>
<path d="M62.1819,63.2523h -4.98898" fill="none" stroke="black"/>
<path d="M59.6874,58.24h -2.49449" fill="none" stroke="black"/>
<path d="M59.6874,53.2276h -2.49449" fill="none" stroke="black"/>
<path d="M59.6874,48.2153h -2.49449" fill="none" stroke="black"/>
<path d="M59.6874,43.2029h -2.49449" fill="none" stroke="black"/>
<path d="M62.1819,38.1906h -4.98898" fill="none" stroke="black"/>
<path d="M62.1819,38.1906h -4.98898" fill="none" stroke="black"/>
<path d="M59.6874,33.1783h -2.49449" fill="none" stroke="black"/>
<path d="M59.6874,28.1659h -2.49449" fill="none" stroke="black"/>
<text x="47.7441" y="267.988" fill="black" font-size="11.6108" font-family="Helvetica">
0
</text>
<text x="50.1878" y="243.551" fill="black" font-size="11.6108" font-family="Helvetica">
1
</text>
<text x="47.7441" y="218.3" fill="black" font-size="11.6108" font-family="Helvetica">
2
</text>
<text x="47.7441" y="193.049" fill="black" font-size="11.6108" font-family="Helvetica">
3
</text>
<text x="47.7441" y="167.798" fill="black" font-size="11.6108" font-family="Helvetica">
4
</text>
<text x="47.7441" y="142.547" fill="black" font-size="11.6108" font-family="Helvetica">
5
</text>
<text x="47.7441" y="118.11" fill="black" font-size="11.6108" font-family="Helvetica">
6
</text>
<text x="47.7441" y="92.8591" fill="black" font-size="11.6108" font-family="Helvetica">
7
</text>
<text x="47.7441" y="67.6079" fill="black" font-size="11.6108" font-family="Helvetica">
8
</text>
<text x="47.7441" y="42.3568" fill="black" font-size="11.6108" font-family="Helvetica">
9
</text>
<path d="M57.1929,263.746h 3.14961v -125.308h 3.14961v 125.308h 3.14961v -100.247h 3.14961v 75.1851h 3.14961v -100.247h 3.14961v 125.308h 3.14961v -50.1234h 3.14961v 50.1234h 3.14961v -75.1851h 3.14961v 75.1851h 3.14961v -150.37h 3.14961v 125.308h
 3.14961v -50.1234h 3.14961v 75.1851h 3.14961v -175.432h 3.14961v 175.432h 3.14961v -100.247h 3.14961v 75.1851h 3.14961v -25.0617h 3.14961v 50.1234h 3.14961v -100.247h 3.14961v 100.247h 3.14961v -100.247h 3.14961v 75.1851h 3.14961v -75.1851h 3.14961v
 100.247h 3.14961v -200.494h 3.14961v 175.432h 3.14961v -75.1851h 3.14961v 100.247h 3.14961v -25.0617h 3.14961v 25.0617h 3.14961v -125.308h 3.14961v 100.247h 3.14961v -200.494h 3.14961v 225.555h 3.14961v -100.247h 3.14961v 75.1851h 3.14961v -75.1851h
 3.14961v 100.247h 3.14961v -100.247h 3.14961v 100.247h 3.14961v -150.37h 3.14961v 150.37h 3.14961v -100.247h 3.14961v 75.1851h 3.14961v -100.247h 3.14961v 125.308h 3.14961v -75.1851h 3.14961v 75.1851h 3.14961v -100.247h 3.14961v 100.247h 3.14961v
 -150.37h 3.14961v 150.37h 3.14961v -75.1851h 3.14961v 75.1851h 3.14961v -150.37h 3.14961v 150.37h 3.14961v -75.1851h 3.14961v 50.1234h 3.14961v -50.1234h 6.29921v -25.0617h 3.14961v 100.247h 3.14961v -50.1234h 3.14961v 50.1234h 3.14961v -25.0617h
 3.14961v 25.0617h 3.14961v -125.308h 3.14961v 125.308h 3.14961v -75.1851h 3.14961v 75.1851h 3.14961v -100.247h 3.14961v 100.247h 3.14961v -125.308h 3.14961v 100.247h 12.5984v 25.0617h 3.14961v -50.1234h 3.14961v 25.0617h 3.14961v -75.1851h 3.14961v
 100.247h 3.14961v -175.432h 3.14961v 175.432h 3.14961v -75.1851h 3.14961v 50.1234h 3.14961v -100.247h 3.14961v 100.247h 3.14961v -150.37h 3.14961v 175.432h 3.14961v -75.1851h 3.14961v 75.1851h 3.14961v -125.308h 3.14961v 125.308h 3.14961v -75.1851h
 3.14961v 50.1234h 3.14961v -50.1234h 3.14961v 75.1851h 3.14961v -100.247h 3.14961v 100.247h 3.14961v -25.0617h 6.29921v -75.1851h 3.14961v 100.247h 3.14961v -125.308h 3.14961v 100.247h 3.14961v -25.0617h 3.14961v 25.0617h 3.14961v -125.308h 3.14961v
 150.37h 3.14961v -50.1234h 3.14961v 50.1234h 3.14961v -125.308h 3.14961v 125.308h 3.14961v -75.1851h 3.14961v 50.1234h 3.14961v -25.0617h 3.14961v 50.1234h 3.14961v -25.0617h 3.14961v 25.0617h 3.14961v -125.308h 3.14961v 100.247h 3.14961v -100.247h
 3.14961v 100.247h 3.14961v -50.1234h 3.14961v 50.1234h 3.14961v -75.1851h 3.14961v 75.1851h 3.14961v 25.0617h 6.29921v -25.0617h 6.29921v -75.1851h 3.14961v 75.1851h 3.14961v -75.1851h 3.14961v 75.1851h 3.14961v -150.37h 3.14961v 175.432h 3.14961v
 -100.247h 3.14961v 100.247h 3.14961v -225.555h 3.14961" fill="none" stroke="#ff0000"/>
<text x="387.413" y="23.622" fill="black" font-size="9.79954" font-family="Helvetica">
Hardware
</text>
<g stroke="black" stroke-width="1" fill="black">
<rect x="376.587" y="18.5555" width="3.25821" height="3.25821"/>
</g>
<text x="463.166" y="23.622" fill="black" font-size="9.79954" font-family="Helvetica">
Emulator
</text>
<path d="M447.68,20.1846h 12.8976" fill="none" stroke="#ff0000"/>
<text x="248.939" y="22.8075" fill="black" font-size="12.8453" font-family="Helvetica" font-style="oblique">
 = 13 TeV, SingleMu
</text>
<text x="242.422" y="22.8075" fill="black" font-size="12.8453" font-family="Helvetica" font-style="oblique">
s
</text>
<path d="M238.35,15.4765l 0.814553, 8.14553" fill="none" stroke="black"/>
<path d="M239.164,23.622l 1.62911, -12.2183" fill="none" stroke="black"/>
<path d="M240.793,11.4037h 8.14553" fill="none" stroke="black"/>
<text x="155.265" y="22.8075" fill="black" font-size="12.8453" font-family="Helvetica" font-style="oblique">
: Run 284113, 
</text>
<text x="56.7042" y="22.8075" fill="black" font-size="12.8453" font-family="Helvetica" font-weight="bold" font-style="oblique">
CMS Preliminary
</text>
<rect x="0.5" y="269.128" width="566.929" height="96.1173" fill="white"/>
<rect x="57.1929" y="269.128" width="453.543" height="58.6315" fill="white"/>
<rect x="57.1929" y="269.128" width="453.543" height="58.6315" fill="none" stroke="black"/>
<path d="M57.1929,327.76h 453.543" fill="none" stroke="black"/>
<path d="M58.7677,269.128v 58.6315" fill="none" stroke="black" stroke-dasharray=" 1, 2"/>
<path d="M121.76,269.128v 58.6315" fill="none" stroke="black" stroke-dasharray=" 1, 2"/>
<path d="M184.752,269.128v 58.6315" fill="none" stroke="black" stroke-dasharray=" 1, 2"/>
<path d="M247.744,269.128v 58.6315" fill="none" stroke="black" stroke-dasharray=" 1, 2"/>
<path d="M310.736,269.128v 58.6315" fill="none" stroke="black" stroke-dasharray=" 1, 2"/>
<path d="M373.728,269.128v 58.6315" fill="none" stroke="black" stroke-dasharray=" 1, 2"/>
<path d="M436.72,269.128v 58.6315" fill="none" stroke="black" stroke-dasharray=" 1, 2"/>
<path d="M499.713,269.128v 58.6315" fill="none" stroke="black" stroke-dasharray=" 1, 2"/>
<path d="M58.7677,269.128v 58.6315" fill="none" stroke="black" stroke-dasharray=" 1, 2"/>
<path d="M499.713,269.128v 58.6315" fill="none" stroke="black" stroke-dasharray=" 1, 2"/>
<path d="M57.1929,327.76v -58.6315" fill="none" stroke="black"/>
<path d="M510.736,322.874h -453.543" fill="none" stroke="black" stroke-dasharray=" 1, 2"/>
<path d="M510.736,310.659h -453.543" fill="none" stroke="black" stroke-dasharray=" 1, 2"/>
<path d="M510.736,298.444h -453.543" fill="none" stroke="black" stroke-dasharray=" 1, 2"/>
<path d="M510.736,286.229h -453.543" fill="none" stroke="black" stroke-dasharray=" 1, 2"/>
<path d="M510.736,274.014h -453.543" fill="none" stroke="black" stroke-dasharray=" 1, 2"/>
<path d="M510.736,322.874h -453.543" fill="none" stroke="black" stroke-dasharray=" 1, 2"/>
<path d="M510.736,274.014h -453.543" fill="none" stroke="black" stroke-dasharray=" 1, 2"/>
<g stroke="black" stroke-width="1" fill="black">
<rect x="60.2882" y="296.815" width="3.25821" height="3.25821"/>
<rect x="66.5874" y="296.815" width="3.25821" height="3.25821"/>
<rect x="69.737" y="296.815" width="3.25821" height="3.25821"/>
<rect x="72.8866" y="296.815" width="3.25821" height="3.25821"/>
<rect x="79.1859" y="296.815" width="3.25821" height="3.25821"/>
<rect x="85.4851" y="296.815" width="3.25821" height="3.25821"/>
<rect x="91.7843" y="296.815" width="3.25821" height="3.25821"/>
<rect x="98.0835" y="296.815" width="3.25821" height="3.25821"/>
<rect x="104.383" y="296.815" width="3.25821" height="3.25821"/>
<rect x="110.682" y="296.815" width="3.25821" height="3.25821"/>
<rect x="116.981" y="296.815" width="3.25821" height="3.25821"/>
<rect x="129.58" y="296.815" width="3.25821" height="3.25821"/>
<rect x="132.729" y="296.815" width="3.25821" height="3.25821"/>
<rect x="135.879" y="296.815" width="3.25821" height="3.25821"/>
<rect x="142.178" y="296.815" width="3.25821" height="3.25821"/>
<rect x="145.328" y="296.815" width="3.25821" height="3.25821"/>
<rect x="148.477" y="296.815" width="3.25821" height="3.25821"/>
<rect x="154.776" y="296.815" width="3.25821" height="3.25821"/>
<rect x="161.076" y="296.815" width="3.25821" height="3.25821"/>
<rect x="164.225" y="296.815" width="3.25821" height="3.25821"/>
<rect x="167.375" y="296.815" width="3.25821" height="3.25821"/>
<rect x="173.674" y="296.815" width="3.25821" height="3.25821"/>
<rect x="176.824" y="296.815" width="3.25821" height="3.25821"/>
<rect x="186.272" y="296.815" width="3.25821" height="3.25821"/>
<rect x="192.572" y="296.815" width="3.25821" height="3.25821"/>
<rect x="202.021" y="296.815" width="3.25821" height="3.25821"/>
<rect x="205.17" y="296.815" width="3.25821" height="3.25821"/>
<rect x="211.469" y="296.815" width="3.25821" height="3.25821"/>
<rect x="217.769" y="296.815" width="3.25821" height="3.25821"/>
<rect x="224.068" y="296.815" width="3.25821" height="3.25821"/>
<rect x="236.666" y="317.173" width="3.25821" height="3.25821"/>
<rect x="242.965" y="296.815" width="3.25821" height="3.25821"/>
<rect x="246.115" y="296.815" width="3.25821" height="3.25821"/>
<rect x="252.414" y="296.815" width="3.25821" height="3.25821"/>
<rect x="255.564" y="296.815" width="3.25821" height="3.25821"/>
<rect x="261.863" y="296.815" width="3.25821" height="3.25821"/>
<rect x="268.162" y="296.815" width="3.25821" height="3.25821"/>
<rect x="274.461" y="296.815" width="3.25821" height="3.25821"/>
<rect x="280.761" y="296.815" width="3.25821" height="3.25821"/>
<rect x="287.06" y="296.815" width="3.25821" height="3.25821"/>
<rect x="293.359" y="296.815" width="3.25821" height="3.25821"/>
<rect x="296.509" y="296.815" width="3.25821" height="3.25821"/>
<rect x="299.658" y="296.815" width="3.25821" height="3.25821"/>
<rect x="302.808" y="296.815" width="3.25821" height="3.25821"/>
<rect x="305.958" y="296.815" width="3.25821" height="3.25821"/>
<rect x="312.257" y="296.815" width="3.25821" height="3.25821"/>
<rect x="318.556" y="296.815" width="3.25821" height="3.25821"/>
<rect x="324.855" y="296.815" width="3.25821" height="3.25821"/>
<rect x="331.154" y="296.815" width="3.25821" height="3.25821"/>
<rect x="334.304" y="296.815" width="3.25821" height="3.25821"/>
</g>
<g stroke="black" stroke-width="1" fill="black">
<rect x="334.304" y="296.815" width="3.25821" height="3.25821"/>
<rect x="337.454" y="321.245" width="3.25821" height="3.25821"/>
<rect x="340.603" y="296.815" width="3.25821" height="3.25821"/>
<rect x="343.753" y="296.815" width="3.25821" height="3.25821"/>
<rect x="350.052" y="296.815" width="3.25821" height="3.25821"/>
<rect x="356.351" y="296.815" width="3.25821" height="3.25821"/>
<rect x="362.65" y="296.815" width="3.25821" height="3.25821"/>
<rect x="365.8" y="296.815" width="3.25821" height="3.25821"/>
<rect x="368.95" y="296.815" width="3.25821" height="3.25821"/>
<rect x="381.548" y="296.815" width="3.25821" height="3.25821"/>
<rect x="384.698" y="296.815" width="3.25821" height="3.25821"/>
<rect x="387.847" y="296.815" width="3.25821" height="3.25821"/>
<rect x="394.146" y="296.815" width="3.25821" height="3.25821"/>
<rect x="397.296" y="296.815" width="3.25821" height="3.25821"/>
<rect x="400.446" y="296.815" width="3.25821" height="3.25821"/>
<rect x="406.745" y="317.173" width="3.25821" height="3.25821"/>
<rect x="413.044" y="296.815" width="3.25821" height="3.25821"/>
<rect x="419.343" y="296.815" width="3.25821" height="3.25821"/>
<rect x="425.643" y="296.815" width="3.25821" height="3.25821"/>
<rect x="428.792" y="296.815" width="3.25821" height="3.25821"/>
<rect x="431.942" y="296.815" width="3.25821" height="3.25821"/>
<rect x="438.241" y="296.815" width="3.25821" height="3.25821"/>
<rect x="444.54" y="321.245" width="3.25821" height="3.25821"/>
<rect x="447.69" y="296.815" width="3.25821" height="3.25821"/>
<rect x="450.839" y="296.815" width="3.25821" height="3.25821"/>
<rect x="453.989" y="296.815" width="3.25821" height="3.25821"/>
<rect x="457.139" y="296.815" width="3.25821" height="3.25821"/>
<rect x="460.288" y="296.815" width="3.25821" height="3.25821"/>
<rect x="463.438" y="296.815" width="3.25821" height="3.25821"/>
<rect x="466.587" y="296.815" width="3.25821" height="3.25821"/>
<rect x="476.036" y="296.815" width="3.25821" height="3.25821"/>
<rect x="479.186" y="296.815" width="3.25821" height="3.25821"/>
<rect x="482.335" y="296.815" width="3.25821" height="3.25821"/>
<rect x="485.485" y="296.815" width="3.25821" height="3.25821"/>
<rect x="488.635" y="296.815" width="3.25821" height="3.25821"/>
<rect x="491.784" y="296.815" width="3.25821" height="3.25821"/>
<rect x="494.934" y="314.265" width="3.25821" height="3.25821"/>
<rect x="507.532" y="296.815" width="3.25821" height="3.25821"/>
</g>
<path d="M57.1929,327.76h 453.543" fill="none" stroke="black"/>
<text x="503.079" y="356.774" fill="black" font-size="13.7271" font-family="Times">
&#0966;
</text>
<text x="496.563" y="356.774" fill="black" font-size="13.7271" font-family="Helvetica">
 i
</text>
<text x="489.232" y="356.774" fill="black" font-size="13.7271" font-family="Times">
&#0947;
</text>
<text x="380.082" y="356.774" fill="black" font-size="13.7271" font-family="Helvetica">
Level-1 Trigger e/
</text>
<path d="M58.7677,325.453v 2.30681" fill="none" stroke="black"/>
<path d="M74.5158,326.607v 1.15341" fill="none" stroke="black"/>
<path d="M90.2638,326.607v 1.15341" fill="none" stroke="black"/>
<path d="M106.012,326.607v 1.15341" fill="none" stroke="black"/>
<path d="M121.76,325.453v 2.30681" fill="none" stroke="black"/>
<path d="M137.508,326.607v 1.15341" fill="none" stroke="black"/>
<path d="M153.256,326.607v 1.15341" fill="none" stroke="black"/>
<path d="M169.004,326.607v 1.15341" fill="none" stroke="black"/>
<path d="M184.752,325.453v 2.30681" fill="none" stroke="black"/>
<path d="M200.5,326.607v 1.15341" fill="none" stroke="black"/>
<path d="M216.248,326.607v 1.15341" fill="none" stroke="black"/>
<path d="M231.996,326.607v 1.15341" fill="none" stroke="black"/>
<path d="M247.744,325.453v 2.30681" fill="none" stroke="black"/>
<path d="M263.492,326.607v 1.15341" fill="none" stroke="black"/>
<path d="M279.24,326.607v 1.15341" fill="none" stroke="black"/>
<path d="M294.988,326.607v 1.15341" fill="none" stroke="black"/>
<path d="M310.736,325.453v 2.30681" fill="none" stroke="black"/>
<path d="M326.484,326.607v 1.15341" fill="none" stroke="black"/>
<path d="M342.232,326.607v 1.15341" fill="none" stroke="black"/>
<path d="M357.98,326.607v 1.15341" fill="none" stroke="black"/>
<path d="M373.728,325.453v 2.30681" fill="none" stroke="black"/>
<path d="M389.476,326.607v 1.15341" fill="none" stroke="black"/>
<path d="M405.224,326.607v 1.15341" fill="none" stroke="black"/>
<path d="M420.972,326.607v 1.15341" fill="none" stroke="black"/>
<path d="M436.72,325.453v 2.30681" fill="none" stroke="black"/>
<path d="M452.469,326.607v 1.15341" fill="none" stroke="black"/>
<path d="M468.217,326.607v 1.15341" fill="none" stroke="black"/>
<path d="M483.965,326.607v 1.15341" fill="none" stroke="black"/>
<path d="M499.713,325.453v 2.30681" fill="none" stroke="black"/>
<path d="M58.7677,325.453v 2.30681" fill="none" stroke="black"/>
<path d="M499.713,325.453v 2.30681" fill="none" stroke="black"/>
<text x="55.0751" y="340.483" fill="black" font-size="11.0817" font-family="Helvetica">
0
</text>
<text x="115.352" y="340.483" fill="black" font-size="11.0817" font-family="Helvetica">
20
</text>
<text x="178.887" y="340.483" fill="black" font-size="11.0817" font-family="Helvetica">
40
</text>
<text x="241.608" y="340.483" fill="black" font-size="11.0817" font-family="Helvetica">
60
</text>
<text x="304.328" y="340.483" fill="black" font-size="11.0817" font-family="Helvetica">
80
</text>
<text x="364.605" y="340.483" fill="black" font-size="11.0817" font-family="Helvetica">
100
</text>
<text x="427.326" y="340.483" fill="black" font-size="11.0817" font-family="Helvetica">
120
</text>
<text x="490.047" y="340.483" fill="black" font-size="11.0817" font-family="Helvetica">
140
</text>
<path d="M57.1929,327.76v -58.6315" fill="none" stroke="black"/>
<g transform="rotate(-90,21.6784,321.749)">
<text x="21.6784" y="321.749" fill="black" font-size="13.7271" font-family="Helvetica">
HW/EM
</text>
</g>
<path d="M60.6512,322.874h -3.45827" fill="none" stroke="black"/>
<path d="M58.0575,319.82h -0.864567" fill="none" stroke="black"/>
<path d="M58.9221,316.767h -1.72913" fill="none" stroke="black"/>
<path d="M58.0575,313.713h -0.864567" fill="none" stroke="black"/>
<path d="M60.6512,310.659h -3.45827" fill="none" stroke="black"/>
<path d="M58.0575,307.605h -0.864567" fill="none" stroke="black"/>
<path d="M58.9221,304.552h -1.72913" fill="none" stroke="black"/>
<path d="M58.0575,301.498h -0.864567" fill="none" stroke="black"/>
<path d="M60.6512,298.444h -3.45827" fill="none" stroke="black"/>
<path d="M58.0575,295.39h -0.864567" fill="none" stroke="black"/>
<path d="M58.9221,292.337h -1.72913" fill="none" stroke="black"/>
<path d="M58.0575,289.283h -0.864567" fill="none" stroke="black"/>
<path d="M60.6512,286.229h -3.45827" fill="none" stroke="black"/>
<path d="M58.0575,283.176h -0.864567" fill="none" stroke="black"/>
<path d="M58.9221,280.122h -1.72913" fill="none" stroke="black"/>
<path d="M58.0575,277.068h -0.864567" fill="none" stroke="black"/>
<path d="M60.6512,274.014h -3.45827" fill="none" stroke="black"/>
<path d="M60.6512,322.874h -3.45827" fill="none" stroke="black"/>
<path d="M58.0575,325.928h -0.864567" fill="none" stroke="black"/>
<path d="M60.6512,274.014h -3.45827" fill="none" stroke="black"/>
<path d="M58.0575,270.961h -0.864567" fill="none" stroke="black"/>
<text x="38.784" y="326.636" fill="black" font-size="11.0817" font-family="Helvetica">
0.8
</text>
<text x="38.784" y="314.418" fill="black" font-size="11.0817" font-family="Helvetica">
0.9
</text>
<text x="49.3732" y="303.014" fill="black" font-size="11.0817" font-family="Helvetica">
1
</text>
<text x="40.4131" y="290.796" fill="black" font-size="11.0817" font-family="Helvetica">
1.1
</text>
<text x="38.784" y="278.577" fill="black" font-size="11.0817" font-family="Helvetica">
1.2
</text>
<path d="M57.1929,298.444h 453.543" fill="none" stroke="#0000ff"/></svg>
