<?xml version="1.0" standalone="no"?>
<svg width="567.429" height="384.969" viewBox="0 0 567.429 384.969" xmlns="http://www.w3.org/2000/svg">
<title>
compHwEmu_Jets_JetEt.svg
</title>
<desc>
Creator: ROOT Version 6.06/01
CreationDate: Mon Dec  5 11:09:29 2016</desc>
<defs>
</defs>
<rect x="0.5" y="0" width="566.929" height="384.469" fill="white"/>
<rect x="0.5" y="0" width="566.929" height="269.128" fill="white"/>
<rect x="57.1929" y="26.9128" width="453.543" height="236.833" fill="white"/>
<rect x="57.1929" y="26.9128" width="453.543" height="236.833" fill="none" stroke="black"/>
<path d="M57.1929,263.746h 453.543" fill="none" stroke="black"/>
<path d="M57.344,26.9128v 236.833" fill="none" stroke="black" stroke-dasharray=" 1, 2"/>
<path d="M117.776,26.9128v 236.833" fill="none" stroke="black" stroke-dasharray=" 1, 2"/>
<path d="M178.208,26.9128v 236.833" fill="none" stroke="black" stroke-dasharray=" 1, 2"/>
<path d="M238.64,26.9128v 236.833" fill="none" stroke="black" stroke-dasharray=" 1, 2"/>
<path d="M299.073,26.9128v 236.833" fill="none" stroke="black" stroke-dasharray=" 1, 2"/>
<path d="M359.505,26.9128v 236.833" fill="none" stroke="black" stroke-dasharray=" 1, 2"/>
<path d="M419.937,26.9128v 236.833" fill="none" stroke="black" stroke-dasharray=" 1, 2"/>
<path d="M480.369,26.9128v 236.833" fill="none" stroke="black" stroke-dasharray=" 1, 2"/>
<path d="M57.344,26.9128v 236.833" fill="none" stroke="black" stroke-dasharray=" 1, 2"/>
<path d="M480.369,26.9128v 236.833" fill="none" stroke="black" stroke-dasharray=" 1, 2"/>
<path d="M57.1929,263.746v -236.833" fill="none" stroke="black"/>
<g stroke="black" stroke-width="1" fill="black">
<rect x="56.9235" y="226.672" width="3.25821" height="3.25821"/>
<rect x="57.2257" y="188.006" width="3.25821" height="3.25821"/>
<rect x="57.5279" y="130.006" width="3.25821" height="3.25821"/>
<rect x="57.83" y="91.3392" width="3.25821" height="3.25821"/>
<rect x="58.1322" y="52.6726" width="3.25821" height="3.25821"/>
<rect x="58.4343" y="113.895" width="3.25821" height="3.25821"/>
<rect x="58.7365" y="91.3392" width="3.25821" height="3.25821"/>
<rect x="59.0387" y="36.5615" width="3.25821" height="3.25821"/>
<rect x="59.3408" y="107.45" width="3.25821" height="3.25821"/>
<rect x="59.643" y="81.6725" width="3.25821" height="3.25821"/>
<rect x="59.9451" y="101.006" width="3.25821" height="3.25821"/>
<rect x="60.2473" y="155.784" width="3.25821" height="3.25821"/>
<rect x="60.5495" y="130.006" width="3.25821" height="3.25821"/>
<rect x="60.8516" y="159.006" width="3.25821" height="3.25821"/>
<rect x="61.1538" y="171.895" width="3.25821" height="3.25821"/>
<rect x="61.4559" y="197.672" width="3.25821" height="3.25821"/>
<rect x="61.7581" y="194.45" width="3.25821" height="3.25821"/>
<rect x="62.0603" y="204.117" width="3.25821" height="3.25821"/>
<rect x="62.3624" y="217.006" width="3.25821" height="3.25821"/>
<rect x="62.6646" y="223.45" width="3.25821" height="3.25821"/>
<rect x="62.9667" y="233.117" width="3.25821" height="3.25821"/>
<rect x="63.2689" y="255.672" width="3.25821" height="3.25821"/>
<rect x="63.5711" y="242.783" width="3.25821" height="3.25821"/>
<rect x="63.8732" y="252.45" width="3.25821" height="3.25821"/>
<rect x="64.1754" y="246.006" width="3.25821" height="3.25821"/>
<rect x="64.4776" y="255.672" width="3.25821" height="3.25821"/>
<rect x="64.7797" y="252.45" width="3.25821" height="3.25821"/>
<rect x="65.0819" y="246.006" width="3.25821" height="3.25821"/>
<rect x="65.6862" y="252.45" width="3.25821" height="3.25821"/>
<rect x="65.9884" y="252.45" width="3.25821" height="3.25821"/>
<rect x="66.2905" y="258.895" width="3.25821" height="3.25821"/>
<rect x="66.5927" y="258.895" width="3.25821" height="3.25821"/>
<rect x="67.197" y="252.45" width="3.25821" height="3.25821"/>
<rect x="67.8013" y="258.895" width="3.25821" height="3.25821"/>
<rect x="69.3121" y="258.895" width="3.25821" height="3.25821"/>
<rect x="70.2186" y="258.895" width="3.25821" height="3.25821"/>
<rect x="71.7294" y="258.895" width="3.25821" height="3.25821"/>
</g>
<path d="M57.1929,263.746h 453.543" fill="none" stroke="black"/>
<path d="M57.344,257.287v 6.45908" fill="none" stroke="black"/>
<path d="M72.452,260.516v 3.22954" fill="none" stroke="black"/>
<path d="M87.5601,260.516v 3.22954" fill="none" stroke="black"/>
<path d="M102.668,260.516v 3.22954" fill="none" stroke="black"/>
<path d="M117.776,257.287v 6.45908" fill="none" stroke="black"/>
<path d="M132.884,260.516v 3.22954" fill="none" stroke="black"/>
<path d="M147.992,260.516v 3.22954" fill="none" stroke="black"/>
<path d="M163.1,260.516v 3.22954" fill="none" stroke="black"/>
<path d="M178.208,257.287v 6.45908" fill="none" stroke="black"/>
<path d="M193.316,260.516v 3.22954" fill="none" stroke="black"/>
<path d="M208.424,260.516v 3.22954" fill="none" stroke="black"/>
<path d="M223.532,260.516v 3.22954" fill="none" stroke="black"/>
<path d="M238.64,257.287v 6.45908" fill="none" stroke="black"/>
<path d="M253.748,260.516v 3.22954" fill="none" stroke="black"/>
<path d="M268.857,260.516v 3.22954" fill="none" stroke="black"/>
<path d="M283.965,260.516v 3.22954" fill="none" stroke="black"/>
<path d="M299.073,257.287v 6.45908" fill="none" stroke="black"/>
<path d="M314.181,260.516v 3.22954" fill="none" stroke="black"/>
<path d="M329.289,260.516v 3.22954" fill="none" stroke="black"/>
<path d="M344.397,260.516v 3.22954" fill="none" stroke="black"/>
<path d="M359.505,257.287v 6.45908" fill="none" stroke="black"/>
<path d="M374.613,260.516v 3.22954" fill="none" stroke="black"/>
<path d="M389.721,260.516v 3.22954" fill="none" stroke="black"/>
<path d="M404.829,260.516v 3.22954" fill="none" stroke="black"/>
<path d="M419.937,257.287v 6.45908" fill="none" stroke="black"/>
<path d="M435.045,260.516v 3.22954" fill="none" stroke="black"/>
<path d="M450.153,260.516v 3.22954" fill="none" stroke="black"/>
<path d="M465.261,260.516v 3.22954" fill="none" stroke="black"/>
<path d="M480.369,257.287v 6.45908" fill="none" stroke="black"/>
<path d="M57.344,257.287v 6.45908" fill="none" stroke="black"/>
<path d="M480.369,257.287v 6.45908" fill="none" stroke="black"/>
<path d="M495.477,260.516v 3.22954" fill="none" stroke="black"/>
<path d="M510.585,260.516v 3.22954" fill="none" stroke="black"/>
<text x="55.8896" y="264.73" fill="black" font-size="0.5" font-family="Helvetica">
0
</text>
<text x="115.352" y="264.73" fill="black" font-size="0.5" font-family="Helvetica">
200
</text>
<text x="176.444" y="264.73" fill="black" font-size="0.5" font-family="Helvetica">
400
</text>
<text x="237.535" y="264.73" fill="black" font-size="0.5" font-family="Helvetica">
600
</text>
<text x="296.997" y="264.73" fill="black" font-size="0.5" font-family="Helvetica">
800
</text>
<text x="357.274" y="264.73" fill="black" font-size="0.5" font-family="Helvetica">
1000
</text>
<text x="417.551" y="264.73" fill="black" font-size="0.5" font-family="Helvetica">
1200
</text>
<text x="478.643" y="264.73" fill="black" font-size="0.5" font-family="Helvetica">
1400
</text>
<path d="M57.1929,263.746v -236.833" fill="none" stroke="black"/>
<g transform="rotate(-90,17.6056,178.387)">
<text x="17.6056" y="178.387" fill="black" font-size="15.8082" font-family="Helvetica">
Number of candidates
</text>
</g>
<path d="M62.1819,263.746h -4.98898" fill="none" stroke="black"/>
<path d="M59.6874,257.301h -2.49449" fill="none" stroke="black"/>
<path d="M59.6874,250.857h -2.49449" fill="none" stroke="black"/>
<path d="M59.6874,244.413h -2.49449" fill="none" stroke="black"/>
<path d="M59.6874,237.968h -2.49449" fill="none" stroke="black"/>
<path d="M62.1819,231.524h -4.98898" fill="none" stroke="black"/>
<path d="M59.6874,225.079h -2.49449" fill="none" stroke="black"/>
<path d="M59.6874,218.635h -2.49449" fill="none" stroke="black"/>
<path d="M59.6874,212.19h -2.49449" fill="none" stroke="black"/>
<path d="M59.6874,205.746h -2.49449" fill="none" stroke="black"/>
<path d="M62.1819,199.301h -4.98898" fill="none" stroke="black"/>
<path d="M59.6874,192.857h -2.49449" fill="none" stroke="black"/>
<path d="M59.6874,186.413h -2.49449" fill="none" stroke="black"/>
<path d="M59.6874,179.968h -2.49449" fill="none" stroke="black"/>
<path d="M59.6874,173.524h -2.49449" fill="none" stroke="black"/>
<path d="M62.1819,167.079h -4.98898" fill="none" stroke="black"/>
<path d="M59.6874,160.635h -2.49449" fill="none" stroke="black"/>
<path d="M59.6874,154.19h -2.49449" fill="none" stroke="black"/>
<path d="M59.6874,147.746h -2.49449" fill="none" stroke="black"/>
<path d="M59.6874,141.302h -2.49449" fill="none" stroke="black"/>
<path d="M62.1819,134.857h -4.98898" fill="none" stroke="black"/>
<path d="M59.6874,128.413h -2.49449" fill="none" stroke="black"/>
<path d="M59.6874,121.968h -2.49449" fill="none" stroke="black"/>
<path d="M59.6874,115.524h -2.49449" fill="none" stroke="black"/>
<path d="M59.6874,109.079h -2.49449" fill="none" stroke="black"/>
<path d="M62.1819,102.635h -4.98898" fill="none" stroke="black"/>
<path d="M59.6874,96.1905h -2.49449" fill="none" stroke="black"/>
<path d="M59.6874,89.7461h -2.49449" fill="none" stroke="black"/>
<path d="M59.6874,83.3017h -2.49449" fill="none" stroke="black"/>
<path d="M59.6874,76.8572h -2.49449" fill="none" stroke="black"/>
<path d="M62.1819,70.4128h -4.98898" fill="none" stroke="black"/>
<path d="M59.6874,63.9683h -2.49449" fill="none" stroke="black"/>
<path d="M59.6874,57.5239h -2.49449" fill="none" stroke="black"/>
<path d="M59.6874,51.0795h -2.49449" fill="none" stroke="black"/>
<path d="M59.6874,44.635h -2.49449" fill="none" stroke="black"/>
<path d="M62.1819,38.1906h -4.98898" fill="none" stroke="black"/>
<path d="M62.1819,38.1906h -4.98898" fill="none" stroke="black"/>
<path d="M59.6874,31.7462h -2.49449" fill="none" stroke="black"/>
<text x="47.7441" y="267.988" fill="black" font-size="11.6108" font-family="Helvetica">
0
</text>
<text x="41.2277" y="236.22" fill="black" font-size="11.6108" font-family="Helvetica">
10
</text>
<text x="41.2277" y="203.638" fill="black" font-size="11.6108" font-family="Helvetica">
20
</text>
<text x="41.2277" y="171.871" fill="black" font-size="11.6108" font-family="Helvetica">
30
</text>
<text x="41.2277" y="139.289" fill="black" font-size="11.6108" font-family="Helvetica">
40
</text>
<text x="41.2277" y="107.521" fill="black" font-size="11.6108" font-family="Helvetica">
50
</text>
<text x="41.2277" y="74.9389" fill="black" font-size="11.6108" font-family="Helvetica">
60
</text>
<text x="41.2277" y="42.3568" fill="black" font-size="11.6108" font-family="Helvetica">
70
</text>
<path d="M57.1929,263.746h 1.20864v -35.4444h 0.302161v -38.6666h 0.302161v -57.9999h 0.302161v -38.6666h 0.302161v -38.6666h 0.302161v 61.2221h 0.302161v -22.5555h 0.302161v -54.7777h 0.302161v 70.8888h 0.302161v -25.7777h 0.302161v 19.3333h
 0.302161v 54.7777h 0.302161v -25.7777h 0.302161v 29h 0.302161v 12.8889h 0.302161v 25.7777h 0.302161v -3.22222h 0.302161v 9.66665h 0.302161v 12.8889h 0.302161v 6.44444h 0.302161v 9.66665h 0.302161v 22.5555h 0.302161v -12.8889h 0.302161v 9.66665h
 0.302161v -6.44444h 0.302161v 9.66665h 0.302161v -3.22222h 0.302161v -6.44444h 0.302161v 16.1111h 0.302161v -9.66665h 0.604322v 6.44444h 0.604322v 3.22222h 0.302161v -9.66665h 0.302161v 9.66665h 0.302161v -3.22222h 0.302161v 3.22222h 1.20864v
 -3.22222h 0.302161v 3.22222h 0.604322v -3.22222h 0.302161v 3.22222h 1.20864v -3.22222h 0.302161v 3.22222h 437.227" fill="none" stroke="#ff0000"/>
<text x="387.413" y="23.622" fill="black" font-size="9.79954" font-family="Helvetica">
Hardware
</text>
<g stroke="black" stroke-width="1" fill="black">
<rect x="376.587" y="18.5555" width="3.25821" height="3.25821"/>
</g>
<text x="463.166" y="23.622" fill="black" font-size="9.79954" font-family="Helvetica">
Emulator
</text>
<path d="M447.68,20.1846h 12.8976" fill="none" stroke="#ff0000"/>
<text x="248.939" y="22.8075" fill="black" font-size="12.8453" font-family="Helvetica" font-style="oblique">
 = 13 TeV, SingleMu
</text>
<text x="242.422" y="22.8075" fill="black" font-size="12.8453" font-family="Helvetica" font-style="oblique">
s
</text>
<path d="M238.35,15.4765l 0.814553, 8.14553" fill="none" stroke="black"/>
<path d="M239.164,23.622l 1.62911, -12.2183" fill="none" stroke="black"/>
<path d="M240.793,11.4037h 8.14553" fill="none" stroke="black"/>
<text x="155.265" y="22.8075" fill="black" font-size="12.8453" font-family="Helvetica" font-style="oblique">
: Run 284113, 
</text>
<text x="56.7042" y="22.8075" fill="black" font-size="12.8453" font-family="Helvetica" font-weight="bold" font-style="oblique">
CMS Preliminary
</text>
<rect x="0.5" y="269.128" width="566.929" height="96.1173" fill="white"/>
<rect x="57.1929" y="269.128" width="453.543" height="58.6315" fill="white"/>
<rect x="57.1929" y="269.128" width="453.543" height="58.6315" fill="none" stroke="black"/>
<path d="M57.1929,327.76h 453.543" fill="none" stroke="black"/>
<path d="M57.344,269.128v 58.6315" fill="none" stroke="black" stroke-dasharray=" 1, 2"/>
<path d="M117.776,269.128v 58.6315" fill="none" stroke="black" stroke-dasharray=" 1, 2"/>
<path d="M178.208,269.128v 58.6315" fill="none" stroke="black" stroke-dasharray=" 1, 2"/>
<path d="M238.64,269.128v 58.6315" fill="none" stroke="black" stroke-dasharray=" 1, 2"/>
<path d="M299.073,269.128v 58.6315" fill="none" stroke="black" stroke-dasharray=" 1, 2"/>
<path d="M359.505,269.128v 58.6315" fill="none" stroke="black" stroke-dasharray=" 1, 2"/>
<path d="M419.937,269.128v 58.6315" fill="none" stroke="black" stroke-dasharray=" 1, 2"/>
<path d="M480.369,269.128v 58.6315" fill="none" stroke="black" stroke-dasharray=" 1, 2"/>
<path d="M57.344,269.128v 58.6315" fill="none" stroke="black" stroke-dasharray=" 1, 2"/>
<path d="M480.369,269.128v 58.6315" fill="none" stroke="black" stroke-dasharray=" 1, 2"/>
<path d="M57.1929,327.76v -58.6315" fill="none" stroke="black"/>
<path d="M510.736,322.874h -453.543" fill="none" stroke="black" stroke-dasharray=" 1, 2"/>
<path d="M510.736,310.659h -453.543" fill="none" stroke="black" stroke-dasharray=" 1, 2"/>
<path d="M510.736,298.444h -453.543" fill="none" stroke="black" stroke-dasharray=" 1, 2"/>
<path d="M510.736,286.229h -453.543" fill="none" stroke="black" stroke-dasharray=" 1, 2"/>
<path d="M510.736,274.014h -453.543" fill="none" stroke="black" stroke-dasharray=" 1, 2"/>
<path d="M510.736,322.874h -453.543" fill="none" stroke="black" stroke-dasharray=" 1, 2"/>
<path d="M510.736,274.014h -453.543" fill="none" stroke="black" stroke-dasharray=" 1, 2"/>
<g stroke="black" stroke-width="1" fill="black">
<rect x="56.9235" y="296.815" width="3.25821" height="3.25821"/>
<rect x="57.2257" y="296.815" width="3.25821" height="3.25821"/>
<rect x="57.5279" y="296.815" width="3.25821" height="3.25821"/>
<rect x="57.83" y="296.815" width="3.25821" height="3.25821"/>
<rect x="58.1322" y="296.815" width="3.25821" height="3.25821"/>
<rect x="58.4343" y="296.815" width="3.25821" height="3.25821"/>
<rect x="58.7365" y="296.815" width="3.25821" height="3.25821"/>
<rect x="59.0387" y="296.815" width="3.25821" height="3.25821"/>
<rect x="59.3408" y="296.815" width="3.25821" height="3.25821"/>
<rect x="59.643" y="296.815" width="3.25821" height="3.25821"/>
<rect x="59.9451" y="296.815" width="3.25821" height="3.25821"/>
<rect x="60.2473" y="296.815" width="3.25821" height="3.25821"/>
<rect x="60.5495" y="296.815" width="3.25821" height="3.25821"/>
<rect x="60.8516" y="296.815" width="3.25821" height="3.25821"/>
<rect x="61.1538" y="296.815" width="3.25821" height="3.25821"/>
<rect x="61.4559" y="296.815" width="3.25821" height="3.25821"/>
<rect x="61.7581" y="296.815" width="3.25821" height="3.25821"/>
<rect x="62.0603" y="296.815" width="3.25821" height="3.25821"/>
<rect x="62.3624" y="296.815" width="3.25821" height="3.25821"/>
<rect x="62.6646" y="296.815" width="3.25821" height="3.25821"/>
<rect x="62.9667" y="296.815" width="3.25821" height="3.25821"/>
<rect x="63.2689" y="296.815" width="3.25821" height="3.25821"/>
<rect x="63.5711" y="296.815" width="3.25821" height="3.25821"/>
<rect x="63.8732" y="296.815" width="3.25821" height="3.25821"/>
<rect x="64.1754" y="296.815" width="3.25821" height="3.25821"/>
<rect x="64.4776" y="296.815" width="3.25821" height="3.25821"/>
<rect x="64.7797" y="296.815" width="3.25821" height="3.25821"/>
<rect x="65.0819" y="296.815" width="3.25821" height="3.25821"/>
<rect x="65.6862" y="296.815" width="3.25821" height="3.25821"/>
<rect x="65.9884" y="296.815" width="3.25821" height="3.25821"/>
<rect x="66.2905" y="296.815" width="3.25821" height="3.25821"/>
<rect x="66.5927" y="296.815" width="3.25821" height="3.25821"/>
<rect x="67.197" y="296.815" width="3.25821" height="3.25821"/>
<rect x="67.8013" y="296.815" width="3.25821" height="3.25821"/>
<rect x="69.3121" y="296.815" width="3.25821" height="3.25821"/>
<rect x="70.2186" y="296.815" width="3.25821" height="3.25821"/>
<rect x="71.7294" y="296.815" width="3.25821" height="3.25821"/>
</g>
<path d="M57.1929,327.76h 453.543" fill="none" stroke="black"/>
<text x="504.709" y="362.476" fill="black" font-size="9.3181" font-family="Helvetica">
T
</text>
<text x="373.565" y="354.331" fill="black" font-size="13.7271" font-family="Helvetica">
Level-1 Trigger Jet iE
</text>
<path d="M57.344,325.453v 2.30681" fill="none" stroke="black"/>
<path d="M72.452,326.607v 1.15341" fill="none" stroke="black"/>
<path d="M87.5601,326.607v 1.15341" fill="none" stroke="black"/>
<path d="M102.668,326.607v 1.15341" fill="none" stroke="black"/>
<path d="M117.776,325.453v 2.30681" fill="none" stroke="black"/>
<path d="M132.884,326.607v 1.15341" fill="none" stroke="black"/>
<path d="M147.992,326.607v 1.15341" fill="none" stroke="black"/>
<path d="M163.1,326.607v 1.15341" fill="none" stroke="black"/>
<path d="M178.208,325.453v 2.30681" fill="none" stroke="black"/>
<path d="M193.316,326.607v 1.15341" fill="none" stroke="black"/>
<path d="M208.424,326.607v 1.15341" fill="none" stroke="black"/>
<path d="M223.532,326.607v 1.15341" fill="none" stroke="black"/>
<path d="M238.64,325.453v 2.30681" fill="none" stroke="black"/>
<path d="M253.748,326.607v 1.15341" fill="none" stroke="black"/>
<path d="M268.857,326.607v 1.15341" fill="none" stroke="black"/>
<path d="M283.965,326.607v 1.15341" fill="none" stroke="black"/>
<path d="M299.073,325.453v 2.30681" fill="none" stroke="black"/>
<path d="M314.181,326.607v 1.15341" fill="none" stroke="black"/>
<path d="M329.289,326.607v 1.15341" fill="none" stroke="black"/>
<path d="M344.397,326.607v 1.15341" fill="none" stroke="black"/>
<path d="M359.505,325.453v 2.30681" fill="none" stroke="black"/>
<path d="M374.613,326.607v 1.15341" fill="none" stroke="black"/>
<path d="M389.721,326.607v 1.15341" fill="none" stroke="black"/>
<path d="M404.829,326.607v 1.15341" fill="none" stroke="black"/>
<path d="M419.937,325.453v 2.30681" fill="none" stroke="black"/>
<path d="M435.045,326.607v 1.15341" fill="none" stroke="black"/>
<path d="M450.153,326.607v 1.15341" fill="none" stroke="black"/>
<path d="M465.261,326.607v 1.15341" fill="none" stroke="black"/>
<path d="M480.369,325.453v 2.30681" fill="none" stroke="black"/>
<path d="M57.344,325.453v 2.30681" fill="none" stroke="black"/>
<path d="M480.369,325.453v 2.30681" fill="none" stroke="black"/>
<path d="M495.477,326.607v 1.15341" fill="none" stroke="black"/>
<path d="M510.585,326.607v 1.15341" fill="none" stroke="black"/>
<text x="53.446" y="340.483" fill="black" font-size="11.0817" font-family="Helvetica">
0
</text>
<text x="108.021" y="340.483" fill="black" font-size="11.0817" font-family="Helvetica">
200
</text>
<text x="169.113" y="340.483" fill="black" font-size="11.0817" font-family="Helvetica">
400
</text>
<text x="229.389" y="340.483" fill="black" font-size="11.0817" font-family="Helvetica">
600
</text>
<text x="289.666" y="340.483" fill="black" font-size="11.0817" font-family="Helvetica">
800
</text>
<text x="346.685" y="340.483" fill="black" font-size="11.0817" font-family="Helvetica">
1000
</text>
<text x="406.962" y="340.483" fill="black" font-size="11.0817" font-family="Helvetica">
1200
</text>
<text x="468.054" y="340.483" fill="black" font-size="11.0817" font-family="Helvetica">
1400
</text>
<path d="M57.1929,327.76v -58.6315" fill="none" stroke="black"/>
<g transform="rotate(-90,21.6784,321.749)">
<text x="21.6784" y="321.749" fill="black" font-size="13.7271" font-family="Helvetica">
HW/EM
</text>
</g>
<path d="M60.6512,322.874h -3.45827" fill="none" stroke="black"/>
<path d="M58.0575,319.82h -0.864567" fill="none" stroke="black"/>
<path d="M58.9221,316.767h -1.72913" fill="none" stroke="black"/>
<path d="M58.0575,313.713h -0.864567" fill="none" stroke="black"/>
<path d="M60.6512,310.659h -3.45827" fill="none" stroke="black"/>
<path d="M58.0575,307.605h -0.864567" fill="none" stroke="black"/>
<path d="M58.9221,304.552h -1.72913" fill="none" stroke="black"/>
<path d="M58.0575,301.498h -0.864567" fill="none" stroke="black"/>
<path d="M60.6512,298.444h -3.45827" fill="none" stroke="black"/>
<path d="M58.0575,295.39h -0.864567" fill="none" stroke="black"/>
<path d="M58.9221,292.337h -1.72913" fill="none" stroke="black"/>
<path d="M58.0575,289.283h -0.864567" fill="none" stroke="black"/>
<path d="M60.6512,286.229h -3.45827" fill="none" stroke="black"/>
<path d="M58.0575,283.176h -0.864567" fill="none" stroke="black"/>
<path d="M58.9221,280.122h -1.72913" fill="none" stroke="black"/>
<path d="M58.0575,277.068h -0.864567" fill="none" stroke="black"/>
<path d="M60.6512,274.014h -3.45827" fill="none" stroke="black"/>
<path d="M60.6512,322.874h -3.45827" fill="none" stroke="black"/>
<path d="M58.0575,325.928h -0.864567" fill="none" stroke="black"/>
<path d="M60.6512,274.014h -3.45827" fill="none" stroke="black"/>
<path d="M58.0575,270.961h -0.864567" fill="none" stroke="black"/>
<text x="38.784" y="326.636" fill="black" font-size="11.0817" font-family="Helvetica">
0.8
</text>
<text x="38.784" y="314.418" fill="black" font-size="11.0817" font-family="Helvetica">
0.9
</text>
<text x="49.3732" y="303.014" fill="black" font-size="11.0817" font-family="Helvetica">
1
</text>
<text x="40.4131" y="290.796" fill="black" font-size="11.0817" font-family="Helvetica">
1.1
</text>
<text x="38.784" y="278.577" fill="black" font-size="11.0817" font-family="Helvetica">
1.2
</text>
<path d="M57.1929,298.444h 453.543" fill="none" stroke="#0000ff"/></svg>
