<?xml version="1.0" standalone="no"?>
<!DOCTYPE svg PUBLIC "-//W3C//DTD SVG 1.1//EN"
"http://www.w3.org/Graphics/SVG/1.1/DTD/svg11.dtd">
<!-- Creator: fig2dev Version 3.2 Patchlevel 5e -->
<!-- CreationDate: Mon Apr 20 10:36:58 2015 -->
<!-- Magnification: 1.050 -->
<svg	xmlns="http://www.w3.org/2000/svg"
	xmlns:xlink="http://www.w3.org/1999/xlink"
	width="5.1in" height="2.1in"
	viewBox="-8 612 6169 2473">
<g style="stroke-width:.025in; fill:none">
<!-- Ellipse -->
<ellipse transform="translate(1370,1889) rotate(-0.00000000)" rx="1370" ry="472"
 style="stroke:#000000;stroke-width:8;"/>
<!-- Line -->
<polyline points="2456,1606
2882,1217
" style="stroke:#000000;stroke-width:8;
stroke-linejoin:miter; stroke-linecap:butt;
"/>
<!-- Arrowhead on XXXpoint 2456 1606 - 2987 1122-->
<polygon points="2930 1259
2981 1128
2845 1166
2930 1259

" style="stroke:#000000;stroke-width:8;stroke-miterlimit:8;
fill:#000000;"/>
<!-- Ellipse -->
<ellipse transform="translate(4734,1889) rotate(-0.00000000)" rx="1417" ry="330"
 style="stroke:#000000;stroke-width:8;"/>
<!-- Ellipse -->
<ellipse transform="translate(4404,2746) rotate(-0.00000000)" rx="1417" ry="330"
 style="stroke:#000000;stroke-width:8;"/>
<!-- Ellipse -->
<ellipse transform="translate(4356,951) rotate(-0.00000000)" rx="1417" ry="330"
 style="stroke:#000000;stroke-width:8;"/>
<!-- Line -->
<polyline points="3134,1889
2740,1889
" style="stroke:#000000;stroke-width:8;
stroke-linejoin:miter; stroke-linecap:butt;
"/>
<!-- Arrowhead on XXXpoint 2740 1889 - 3275 1889-->
<polygon points="3140 1952
3266 1889
3140 1826
3140 1952

" style="stroke:#000000;stroke-width:8;stroke-miterlimit:8;
fill:#000000;"/>
<!-- Line -->
<polyline points="2503,2173
2887,2556
" style="stroke:#000000;stroke-width:8;
stroke-linejoin:miter; stroke-linecap:butt;
"/>
<!-- Arrowhead on XXXpoint 2503 2173 - 2986 2656-->
<polygon points="2846 2604
2980 2649
2935 2515
2846 2604

" style="stroke:#000000;stroke-width:8;stroke-miterlimit:8;
fill:#000000;"/>
<!-- Line -->
<polyline points="4346,1275
4540,1469
" style="stroke:#000000;stroke-width:8;
stroke-linejoin:miter; stroke-linecap:butt;
"/>
<!-- Arrowhead on XXXpoint 4346 1275 - 4640 1569-->
<polygon points="4499 1518
4634 1563
4588 1428
4499 1518

" style="stroke:#000000;stroke-width:8;stroke-miterlimit:8;
fill:#000000;"/>
<!-- Text -->
<text xml:space="preserve" x="472" y="2031" fill="#000000"  font-family="Helvetica" font-style="normal" font-weight="normal" font-size="328" text-anchor="start">L1_KEY</text>
<!-- Text -->
<text xml:space="preserve" x="3590" y="1977" fill="#000000"  font-family="Helvetica" font-style="normal" font-weight="normal" font-size="202" text-anchor="start">Configuration Keys</text>
<!-- Text -->
<text xml:space="preserve" x="3165" y="2834" fill="#000000"  font-family="Helvetica" font-style="normal" font-weight="normal" font-size="202" text-anchor="start">Run Setup (RS) Keys</text>
<!-- Text -->
<text xml:space="preserve" x="3685" y="1039" fill="#000000"  font-family="Helvetica" font-style="normal" font-weight="normal" font-size="202" text-anchor="start">TSC_KEY</text>
</g>
</svg>
